<mxfile host="app.diagrams.net" agent="Mozilla/5.0 (Windows NT 10.0; Win64; x64) AppleWebKit/537.36 (KHTML, like Gecko) Chrome/136.0.0.0 Safari/537.36 Edg/136.0.0.0" version="27.0.6">
  <diagram name="第 1 页" id="u8PYOVjmnOJMgeo8I5Fw">
    <mxGraphModel dx="949" dy="715" grid="1" gridSize="10" guides="1" tooltips="1" connect="1" arrows="1" fold="1" page="1" pageScale="1" pageWidth="1000" pageHeight="1000" math="1" shadow="0">
      <root>
        <mxCell id="0" />
        <mxCell id="1" parent="0" />
        <mxCell id="ag9oP0E_3bfdzs0P4WXb-3" value="" style="curved=1;endArrow=none;html=1;rounded=0;startFill=0;" edge="1" parent="1">
          <mxGeometry width="50" height="50" relative="1" as="geometry">
            <mxPoint x="100" y="80" as="sourcePoint" />
            <mxPoint x="210" y="60" as="targetPoint" />
            <Array as="points">
              <mxPoint x="120" y="110" />
              <mxPoint x="180" y="100" />
            </Array>
          </mxGeometry>
        </mxCell>
        <mxCell id="ag9oP0E_3bfdzs0P4WXb-4" value="" style="endArrow=classic;html=1;rounded=0;" edge="1" parent="1">
          <mxGeometry width="50" height="50" relative="1" as="geometry">
            <mxPoint x="80" y="130" as="sourcePoint" />
            <mxPoint x="80" y="30" as="targetPoint" />
          </mxGeometry>
        </mxCell>
        <mxCell id="ag9oP0E_3bfdzs0P4WXb-5" value="" style="endArrow=classic;html=1;rounded=0;" edge="1" parent="1">
          <mxGeometry width="50" height="50" relative="1" as="geometry">
            <mxPoint x="70" y="120" as="sourcePoint" />
            <mxPoint x="250" y="120" as="targetPoint" />
          </mxGeometry>
        </mxCell>
        <mxCell id="ag9oP0E_3bfdzs0P4WXb-6" value="" style="endArrow=none;html=1;rounded=0;dashed=1;" edge="1" parent="1">
          <mxGeometry width="50" height="50" relative="1" as="geometry">
            <mxPoint x="100" y="80" as="sourcePoint" />
            <mxPoint x="210" y="60" as="targetPoint" />
          </mxGeometry>
        </mxCell>
        <mxCell id="ag9oP0E_3bfdzs0P4WXb-8" value="" style="endArrow=none;html=1;rounded=0;dashed=1;" edge="1" parent="1">
          <mxGeometry width="50" height="50" relative="1" as="geometry">
            <mxPoint x="100" y="80" as="sourcePoint" />
            <mxPoint x="100" y="120" as="targetPoint" />
          </mxGeometry>
        </mxCell>
        <mxCell id="ag9oP0E_3bfdzs0P4WXb-9" value="" style="endArrow=none;html=1;rounded=0;dashed=1;" edge="1" parent="1">
          <mxGeometry width="50" height="50" relative="1" as="geometry">
            <mxPoint x="210" y="60" as="sourcePoint" />
            <mxPoint x="210" y="120" as="targetPoint" />
          </mxGeometry>
        </mxCell>
        <mxCell id="ag9oP0E_3bfdzs0P4WXb-10" value="$$f(x_1)$$" style="text;html=1;align=center;verticalAlign=middle;whiteSpace=wrap;rounded=0;fontSize=8;" vertex="1" parent="1">
          <mxGeometry x="90" y="60" width="20" height="20" as="geometry" />
        </mxCell>
        <mxCell id="ag9oP0E_3bfdzs0P4WXb-11" value="$$f(x_2)$$" style="text;html=1;align=center;verticalAlign=middle;whiteSpace=wrap;rounded=0;fontSize=8;" vertex="1" parent="1">
          <mxGeometry x="200" y="40" width="20" height="20" as="geometry" />
        </mxCell>
        <mxCell id="ag9oP0E_3bfdzs0P4WXb-12" value="$$x_1$$" style="text;html=1;align=center;verticalAlign=middle;whiteSpace=wrap;rounded=0;fontSize=8;" vertex="1" parent="1">
          <mxGeometry x="90" y="120" width="20" height="10" as="geometry" />
        </mxCell>
        <mxCell id="ag9oP0E_3bfdzs0P4WXb-13" value="$$x_2$$" style="text;html=1;align=center;verticalAlign=middle;whiteSpace=wrap;rounded=0;fontSize=8;" vertex="1" parent="1">
          <mxGeometry x="200" y="120" width="20" height="10" as="geometry" />
        </mxCell>
        <mxCell id="ag9oP0E_3bfdzs0P4WXb-14" value="" style="endArrow=none;html=1;rounded=0;dashed=1;" edge="1" parent="1">
          <mxGeometry width="50" height="50" relative="1" as="geometry">
            <mxPoint x="160" y="70" as="sourcePoint" />
            <mxPoint x="160" y="120" as="targetPoint" />
          </mxGeometry>
        </mxCell>
        <mxCell id="ag9oP0E_3bfdzs0P4WXb-15" value="$$\theta x_1 + (1-\theta)x_2$$" style="text;html=1;align=center;verticalAlign=middle;whiteSpace=wrap;rounded=0;fontSize=8;" vertex="1" parent="1">
          <mxGeometry x="130" y="120" width="70" height="10" as="geometry" />
        </mxCell>
        <mxCell id="ag9oP0E_3bfdzs0P4WXb-19" value="凸函数的定义" style="text;html=1;align=center;verticalAlign=middle;whiteSpace=wrap;rounded=0;" vertex="1" parent="1">
          <mxGeometry x="110" y="140" width="90" height="30" as="geometry" />
        </mxCell>
        <mxCell id="ag9oP0E_3bfdzs0P4WXb-20" value="" style="curved=1;endArrow=none;html=1;rounded=0;startFill=0;" edge="1" parent="1">
          <mxGeometry width="50" height="50" relative="1" as="geometry">
            <mxPoint x="300" y="80" as="sourcePoint" />
            <mxPoint x="410" y="60" as="targetPoint" />
            <Array as="points">
              <mxPoint x="320" y="110" />
              <mxPoint x="380" y="100" />
            </Array>
          </mxGeometry>
        </mxCell>
        <mxCell id="ag9oP0E_3bfdzs0P4WXb-21" value="" style="endArrow=classic;html=1;rounded=0;" edge="1" parent="1">
          <mxGeometry width="50" height="50" relative="1" as="geometry">
            <mxPoint x="280" y="130" as="sourcePoint" />
            <mxPoint x="280" y="30" as="targetPoint" />
          </mxGeometry>
        </mxCell>
        <mxCell id="ag9oP0E_3bfdzs0P4WXb-22" value="" style="endArrow=classic;html=1;rounded=0;" edge="1" parent="1">
          <mxGeometry width="50" height="50" relative="1" as="geometry">
            <mxPoint x="270" y="120" as="sourcePoint" />
            <mxPoint x="450" y="120" as="targetPoint" />
          </mxGeometry>
        </mxCell>
        <mxCell id="ag9oP0E_3bfdzs0P4WXb-27" value="$$f(x)$$" style="text;html=1;align=center;verticalAlign=middle;whiteSpace=wrap;rounded=0;fontSize=8;" vertex="1" parent="1">
          <mxGeometry x="350" y="80" width="20" height="20" as="geometry" />
        </mxCell>
        <mxCell id="ag9oP0E_3bfdzs0P4WXb-30" value="" style="endArrow=none;html=1;rounded=0;dashed=1;" edge="1" parent="1">
          <mxGeometry width="50" height="50" relative="1" as="geometry">
            <mxPoint x="420" y="78" as="sourcePoint" />
            <mxPoint x="320" y="118" as="targetPoint" />
          </mxGeometry>
        </mxCell>
        <mxCell id="ag9oP0E_3bfdzs0P4WXb-32" value="一阶条件" style="text;html=1;align=center;verticalAlign=middle;whiteSpace=wrap;rounded=0;" vertex="1" parent="1">
          <mxGeometry x="310" y="140" width="90" height="30" as="geometry" />
        </mxCell>
        <mxCell id="ag9oP0E_3bfdzs0P4WXb-33" value="$$f(y)$$" style="text;html=1;align=center;verticalAlign=middle;whiteSpace=wrap;rounded=0;fontSize=8;" vertex="1" parent="1">
          <mxGeometry x="400" y="40" width="20" height="20" as="geometry" />
        </mxCell>
        <mxCell id="ag9oP0E_3bfdzs0P4WXb-34" value="$$f(x)+\nabla f(x)^\top (y-x)$$" style="text;html=1;align=center;verticalAlign=middle;whiteSpace=wrap;rounded=0;fontSize=8;" vertex="1" parent="1">
          <mxGeometry x="380" y="90" width="90" height="20" as="geometry" />
        </mxCell>
        <mxCell id="ag9oP0E_3bfdzs0P4WXb-35" value="" style="ellipse;whiteSpace=wrap;html=1;" vertex="1" parent="1">
          <mxGeometry x="510" y="30" width="120" height="70" as="geometry" />
        </mxCell>
        <mxCell id="ag9oP0E_3bfdzs0P4WXb-36" value="" style="ellipse;whiteSpace=wrap;html=1;" vertex="1" parent="1">
          <mxGeometry x="525" y="33" width="90" height="57" as="geometry" />
        </mxCell>
        <mxCell id="ag9oP0E_3bfdzs0P4WXb-37" value="" style="ellipse;whiteSpace=wrap;html=1;" vertex="1" parent="1">
          <mxGeometry x="547" y="38" width="50" height="30" as="geometry" />
        </mxCell>
        <mxCell id="ag9oP0E_3bfdzs0P4WXb-38" value="" style="shape=waypoint;sketch=0;fillStyle=solid;size=6;pointerEvents=1;points=[];fillColor=none;resizable=0;rotatable=0;perimeter=centerPerimeter;snapToPoint=1;strokeWidth=0;" vertex="1" parent="1">
          <mxGeometry x="560" y="58" width="20" height="20" as="geometry" />
        </mxCell>
        <mxCell id="ag9oP0E_3bfdzs0P4WXb-39" value="" style="shape=waypoint;sketch=0;fillStyle=solid;size=6;pointerEvents=1;points=[];fillColor=none;resizable=0;rotatable=0;perimeter=centerPerimeter;snapToPoint=1;strokeWidth=0;" vertex="1" parent="1">
          <mxGeometry x="520" y="82" width="20" height="20" as="geometry" />
        </mxCell>
        <mxCell id="ag9oP0E_3bfdzs0P4WXb-40" value="" style="endArrow=classic;html=1;rounded=0;entryX=0.685;entryY=0.622;entryDx=0;entryDy=0;entryPerimeter=0;" edge="1" parent="1" target="ag9oP0E_3bfdzs0P4WXb-39">
          <mxGeometry width="50" height="50" relative="1" as="geometry">
            <mxPoint x="570" y="68" as="sourcePoint" />
            <mxPoint x="620" y="18" as="targetPoint" />
          </mxGeometry>
        </mxCell>
        <mxCell id="ag9oP0E_3bfdzs0P4WXb-41" value="$$x$$" style="text;html=1;align=center;verticalAlign=middle;whiteSpace=wrap;rounded=0;fontSize=8;" vertex="1" parent="1">
          <mxGeometry x="563" y="56" width="20" height="10" as="geometry" />
        </mxCell>
        <mxCell id="ag9oP0E_3bfdzs0P4WXb-43" value="$$y$$" style="text;html=1;align=center;verticalAlign=middle;whiteSpace=wrap;rounded=0;fontSize=8;" vertex="1" parent="1">
          <mxGeometry x="510" y="88" width="20" height="10" as="geometry" />
        </mxCell>
        <mxCell id="ag9oP0E_3bfdzs0P4WXb-44" value="" style="endArrow=classic;html=1;rounded=0;" edge="1" parent="1" target="ag9oP0E_3bfdzs0P4WXb-45">
          <mxGeometry width="50" height="50" relative="1" as="geometry">
            <mxPoint x="570" y="68" as="sourcePoint" />
            <mxPoint x="560" y="123" as="targetPoint" />
          </mxGeometry>
        </mxCell>
        <mxCell id="ag9oP0E_3bfdzs0P4WXb-45" value="$$\nabla f(x)$$" style="text;html=1;align=center;verticalAlign=middle;whiteSpace=wrap;rounded=0;fontSize=8;" vertex="1" parent="1">
          <mxGeometry x="558" y="113" width="20" height="10" as="geometry" />
        </mxCell>
        <mxCell id="ag9oP0E_3bfdzs0P4WXb-46" value="$$\nabla f(y)$$" style="text;html=1;align=center;verticalAlign=middle;whiteSpace=wrap;rounded=0;fontSize=8;" vertex="1" parent="1">
          <mxGeometry x="500" y="133" width="20" height="10" as="geometry" />
        </mxCell>
        <mxCell id="ag9oP0E_3bfdzs0P4WXb-47" value="" style="endArrow=classic;html=1;rounded=0;" edge="1" parent="1">
          <mxGeometry width="50" height="50" relative="1" as="geometry">
            <mxPoint x="530" y="93" as="sourcePoint" />
            <mxPoint x="510" y="133" as="targetPoint" />
          </mxGeometry>
        </mxCell>
        <mxCell id="ag9oP0E_3bfdzs0P4WXb-50" value="" style="shape=image;verticalLabelPosition=bottom;labelBackgroundColor=default;verticalAlign=top;aspect=fixed;imageAspect=0;image=data:image/png,iVBORw0KGgoAAAANSUhEUgAAANkAAAEQCAIAAACyTEbpAAAgAElEQVR4Aey9h3Ncx5Xo/f6Ot1Vr+9netS3JkkgxiDmByGmAyYPJOeecc845IecwyJFgEiWKyrblsOsoS6IkihFh8gy+GoxFUV7ZT1qX30KfcKvrVt9Bz8Wd0797Tvfp093/a2f/2JfA3pDA/9obj7H/FPsS2NlncR+CvSKBfRb3Sk3sP8c+i/sM7BUJ7LO4V2pi/zn2WdxnYK9IYJ/FvVIT+8+xz+I+A3tFAvss7pWa2H+OfRb3GdgrEthn8WvXRLlcLu0exWKxsHsUi8WvfZf9L/wXCeyz+AWRFAqFV15+eWFu/sm0fml9Y2OjWq4KYpXCXC6XzWYzmUwul/vCXfYv/lsS2GfxC2L76Pbtc6dPf/87332cnv7RjxfnFx4XKpVKVRDz+Xw6nb59+/Zvf/vb7e3tcrlcLBZLpVL5iaN6+fi7+5m/L4F9Fr8gnxsv3ZgYH39scz/88MOFuflyuVwtVAUxn89X1eG9e/dWVlYikchHH31UKpWy2Ww+ny+Xy4VCoVgslsvl6uUX/sH+xd+WwD6LX5DN7Q9vb29tVT969OhRJBTOZDLVyypkhUIhn89vbW09evToV7/6lV6vx2Kxr732WrFYzOVyhUKhVCrl8/mqRqxmvvAP9i/+tgT2Wfxy2RQKhVAw+P777z/+c1XPVXXe1tbW7du3Z2Zm2trajh8/3tvbm06nqza6WCw+VoeFQuGxTn18n/3M35LAPotfIplyuTw0OPjOO+88+bfHerFYLKbT6apSfOqpp773ve8JBIIPPvigSl4+n8/lctVGY9VSP3mT/fzfkcA+i18inLXV1bXV1f/6h6r9zWaz29vbly9fhkAg//qv//ov//IvbW1t169ff/ToUbXVmM1mqyzu913+qwz/zif7LP61cN55552hwcEvta2lUimXy21vb9+9e7e7u/vIkSPf2z0OHz4cCAT+9Kc/lUqldDpdZXFfKf61ZP9v1/ssfkFC77//figYLBQK1U8f3L8/Mz1dzVe9NlVXzm9+8xuZTPbD3eMHP/jBD3/4QwKB8OabbxaLxe3t7aqNrp6/cPf9i78rgW8ci+WdndLOzl+cLH/3p33tPxYKBafdPjw4tDA3tzA3l5qcxCCRa6sr1RuVy5UOcqFQ2NraWltbA4PB3/nOd/5t9/jud7975syZhYWFqtbMZDLlcjmTyezb6K9VB98sFss75dJOubibSrv50k65/FnaRbT8hfPnf3xc6m9kCoViwOf/t//z/cde7u9/57snjr74pz/+oVwu7Q77FXO5bCaT/vDDD2Ox2Pnz559++umjR48eOnTo6NEXDx8+bDabHz58mE6nHzx4UCqVtre3H3eov1aVfGsLf4NY3NWI5cJOOb+bCjuVfHGnVNoplSvpMYWlXdW5e/7qLH5WsjLIVy4XnkjFcrmSShUPYnZzc/O1116TyeQAQAeFQiWRyCAQRKlUAYFABALx61//Op1Of/LJJ6VS6dGjR/tm+mu9V98sFovlcr5czu2m/C4uxXKpWC6VyqXS32KxotO+XvovxSv3L5eKpXQ6u7m5de3aS1qtIRyOvvXmO4l4D4fDf+utdwYGBtVq9bVr16qqsVQq3bt37/H4zdeqkm9t4W8Si+WdYnknX97J7abPWNxVWuVy6fMq/ExBlnfVZYWsz8z5/z1TMcZf/oVSsZxJ5zcebf3y3d/ceOnmH37/p7ufPpoYn1WrDPfvP7pz5+6rr7767rvvbm5ulkqlQqGwsbGx7+v+vFK+Qu4bxmJpJ1/ayf0llfOlcmE3FSuK63FD8YkWYanC718amNVm5v/lXGHxb5JbLJQe3N/88IM7D+5vbG5kfvfb93u6hxVy3e3bdzKZTLFY3Nra2tzcrA5YV0cLv9Q39BXq5dtY5JvMYgXKfGmnUNop7rYZP7fSj7kslXcqTb/dpuVXOlcahl/OYqm4UyyUM+nCp3ce3bu78ehh+o9/+LCne0giVn10+9OPP75TKpUymcy9e/c2NjaqkTv7evFrvVL/f2dxZ+crIfgkrNXO+n8hslQs5/OlfK6Y3s5tPEpvbqQ/+fje0OCYVKq8d/dBJpOr6sWtra387rHv0PlaIO7sfJPWMCmXd4q7FjlfqljnqoGuWOdqX+OzjvBnHp5dS72rF3cKFe34NdJuA/OL/Z1dp87u6F9618uYz2Qyd+7cGRwckEjEt29/WA3wfnLo73Hk2Netkm9t+T2qFx8HpD6pXXZjqovFUqHiXykWCsVCsVTaTX9p5FX6u8VycbdjXS5VvD3FYrlQ/Au2f0G4WMoXS5V8sfRZY3OnktktVmlflsrF3X9QhfGz2QT5UqlQqnw1my+kP717+5M7H9y7/8nQcI9YzL19+8+ffnrn4cOH1V7L1tZWNainGrzz+Lf8VeZby9zf+uF7lMWqUqkGBeZyuSqR1ZrO5fL5XH57e3tzYyuXzeVzxVy2mMsUM9u5jQfpB/fS9+5s3L3z8P6nD+/eefjJRw8+un3vo48+vXPn/t17Dz/99MHHH9+98+m9+/cf3b+/ubWZTafzxUI5ly9l0oVcrlgqlqo339ra2IWvUChmc/ntdGajUNwqldPF0laxtJkvPMxk7969/+fUzIBGJ/rgw98VixUbXdWO1aetXlbzf0Xh48u/VSvfzs/3IotVpZLJZKqR0lUEq5e5TD6zmclsZjbub9358O7H79/56M933v/DRz9//deXFq4tpC7NTqwOdE94bBGzxmVQOfRKu1ZpUcr0eo3V647Ewn3xSH9/z+jU2Pzi3KWXr7/+y5/99r0/fPTRB3fv3L7/6ccP79y+/8nHdzc3t9Lp7Xw+my9ks7mtTHYzk31UKG6Uylv54qNC8VGx9ChfvH//4Z/Hp5IKFfujT/6Qy2ey2c8f+PH8rH0Wv/p7tRdZLO4e2Wz20aNHGxsbudyuyskXsunswzsP//jr9965+Yurizd6gv1KvoaOZaNBREAt5PhzZ2tPtGDBVCKcBW7CwFpwDKxIzNQImUo0lNLZ0oWGUTBwals9tP48oKUO3HwR1FQDBLUigS1d8E48n6lwWcLJ8NBQz9j46NTly1d+9ctffvLJJ48ePdze3kxnNre3H+TzG4ViJRUr54cPHr4/NBIVSxkPHn5UKuV3Z8JUHr3q00mn01tbW9Wu9GNF+FeZr15P34aSe5HFaqhL1T/y4MGDTCaztbX13p/eu3H1lf7IoJKjocIZVAQTDcB3XADjQRQxVUnr4tYeaYE1YrVcm0HgosL4BBBHy3O4NFGL3E/p4kFbcByiTMkzM3FiKorPIcrQICqgFsHCS0QMjZihlbL0NDT/4om2o8+dRSMoZCKbQmYJ+DK7zZOamv3lL3798UcfP3xw/9HG/c2t+xub9zY2735y58/9AzGFUrCdflRpN+zOPbh///69e/eqFFanHPwVf09efhsI++q/cY+yWI1X3d7ezmazd+/evXXrls/rZ1O4ZBgd0YCB1aFFeLmSpqOAWFy0VMuyMhGimudbkPVkpzQS0PYK0GoqUGQTh7sd40nHmIxmxLTTRWSNnu9koaQUGF9I0jBREjyQpeU5nMqwSxXxaOIarh1cjz39QhObolJInDyOns1Q0ygSIo5LwHFgEByNyrNaXH19Q6srl95665133vlZOBKWSCQffvjBw4cPq83F6kTVamjZgwcPquERT/L3ZP6r19O3oeReZDGbzT6u0U8//XRlZUWn08EgcEgrjI8TcxAiTANJhFZoaGYqgCtCqT2SiBSrb3oBTGzm+GU9cf2YGG3AN3LUZGdUPzLomTULAjSISE4xmwV+AVbDQ6uNfJ+MYqZCRAauJ2wYiJmHw/oBiyjQ1UA59VybQR6PBxc99jG7aUgjj7DpRjxKfOEs5MgL9c0NCASMQsSxRQKNTmPncWQ8rvTnP/vVJ59Uhl7y+UqnqtquqFrqakTtk/w9mf82EPbVf+PeYfHxWEllTmd1AG1zc/PatWt8Ph8AAAA7QAQEScM0qMlGcitTilHbOF5Wp1iEUHtEMR5EefEpALqGbudEErpxNcFJaRFpCK6IanjQOeeSxFlQuRCtU1MdLKic26W2CSNqqoMGFKtpjoRprM8xHdEOuiQxfCv3xR+1ytixsHvdZZr1WBdclhmzZsSoHiCgNOdOIJBQoZjvVEq8KpmXRdd0tuHPnGyjUwV6nWl8fPztt9/+85//fP/+/Ww2WygUPpuQ9SXBGVUiv3o9fRtK/o+yWMGv4pLePaqBX5VzqVzxYG9sPPrlu790OV3NTS0tTS1oOJoAIcpJai3FQm3jKrB6rzjKBcvYQKmJ5iE388//qBVxlmKk+hKacTMtyAIoNQR3WDHUZ5nxSnt5cA0PrpHhzEygTIgy+OR9WrqH2CoQoPQR3WiffTakGfKrBjgI3YmfdBKhVpt23qKe8dsuhZyX3aYFu36a2GW6cALPIjt89lTEN+91jPNYNhCAcexwy8ljTY0NHUQiTSZVGfSWcCi+funqe+99sLmxWchXNGPFZ/mFVPmRj4/PB9Iff7SbqUjnieNxsc8yn/P5pX7+6oefF9rzuf9RFishhpVYmoqHulzYHVzO/+VcLmxvb11Zv8xhcFrqWyDtEDQIjW7H8brEUoyG3MqW4/QBWVyK0hIaWCygFFvLAJ3AkZr4aoIjohwOSAfECKMIbvBL+ntMKa+kT4wyM4FKNlhFaZdKsNaQZtTICRPbxSy4Nqgbi5mn/NoRv3aEDtOeegYMrhMYJSM+w3zIshxzrvtNC279DAlhPnsEi4fpHLoxt3nCbhjSyGIElPzCaeiF02BwB1mj9DBpCjyG29GOwaJYWo3T7Yr+7J3//NOfPrl7b/vhRm4rXcgWStniTq64kyuU8vlKj3vXe1qsiKCYT6e3q8ui5PO5YrFQDeAtFPKFQsXTvhuL9Dg28wuR7VV0v0BkdQzzC6X2Ooz/cyyWd3aKO5UosIqGyJfLlQCcSh3t5ArlXLGUKxbza0urZAwJUN8ObYag21EkIEWAkioIeg5ErMDrXcKgimhCXiCBT6KRFyh0gJjRIZVhzCH5QFI3IUNb6O1SJz+RNEz5ZQMyrJ3cKsE1CvDNQineEdKOW/gJKlhFh2l82rGwacqnG3OphrAd0vMH4R3naHpeImKZD5vmEo7VkGneb5ihI601R/GQJpFW1G3TDNn1gw7jEBWnPncC3HQRyyAaB7uvWPT9WkUMBuIcOdgMATHqLiIoFLlK7RkdW3ntzf/44OONzWxxu1BOF8rpXDGTzedy+XQ6sztdq9LWzGYzuyyms9l0oZArFHL5fDaXy2RzlctSqVAV2e65OtHiLw2b3SGiJ1RoNSC4Iti9zt+Tz7dnWNwNBquAuFMZBCmUsqVdFvFduPrTtR017VgAlgVny/AqC9upJhklaJWWYtFSLOiL5LqftuPqGSqCldEhkaCMYcVgUjcuQZmIjXwTIxjXTYRVoyqiG9cogJ1n4JtFKoovrJuwiXuYCD0JpLTL+6O2Wb9hwiTuRrYKm08RQDV0FTMQNs3ErPM9rrWwad6jmaLCTE2nqJ21XBHN59CNeK3jLvMQBac8dbQD0ESV8UID8eseWyrsXZDwAy8818KgGhvqMGAIE4nisbl6ldbjCw+Oz6xefeWt//zj7fsb6c3tzMOHmw8fbm5tpTOZbKFQzFfWPikVisVCZYQzn8tnc/lMxYueS+/imK2EHO2+wV/EsTog/4TV/5zFbxKMe5HFXDFdKGVKpfza8ioagjz9wsn647VVFgVIsYXtNNCtLBBfhtXaOF58A732mTYOWOYWxmjtIj5ME1IMJPXjMowF38DVkNxRzVjSkDLQg+g6LuAYHt8iNrAjEf2kSz4gwNlwAImOF0045wPGSSUrCG/iwZu4iEaOiGAP6CcT9sV+7+WIed4uHyWCdKA6PuAim4I0OnTDYfeM2zpMwshfPNgCbGEohfGod9VhmkyG153m8eOHwRikvOYcUq9PmMzdMoWHRFWg8QI8VUzjqIy20Mzi5Xd/9fv3P7hz//7m9nY+kynk85XRxkw2vztQXqoY8GLFkleMeSGTzmzm8tvlcr4SeFRJxc8nUuyGaO5OhHgM5ecRI08qnj2e36Ms5ouZUqlwaXm1CwQ/9NTBU8+dQDZ3UcE0SgddSzVpyEZCE1WKUXvEYVwDrfUQWEuxR1T9lFY+o0Pil/Z2Gya0ZBe5RajA2cKqkV7zrJ0Xx9Rzmw8hCa1imyAZNU75NSMKmhfTJhKTnQnHXMA0KaK4IPUsCkxF7JQy4BqncijpWBr0X4mY543CPmyHEtOhhDTyUZ0yk6I35p3zWIeJaNmhZxs6mmgyXtRjmTOpRwOuxYBrAdzOP3UMfuYkXCoJ2G1D/sCEyzNssnVzhOZWIKGpHU2kiM2W8MTkyhtv/voPf7zz0ccbDx9lttOFre18JlfM5AuZXD5byBUqMRvFQimXzW/nC5knWHxSQT45O+ev8sXdjs4eh/Avj7dHWcwV0sVifn31EhKEeP7fnz30o4PAGiChnUhoJatJejXJgK0niZByM8sBPYMCnkBYOd6YZoAOEFJa+U5+tNswYedGWEC5FG0KyAcqXWlJL7lV1HwYSWwTOcTdUcNkxDBh5EfxADGjSxu2TAVME0KyHVzP5BOsXIwR3yE2iZJx+8KA73LYNKflJlBtMlqXmQDVINpFcm4w7Eq5LUNEtPTgM7WtdWS1uMdnXbQbUi7zTNR3SS3t/dEP6s6eREmEQbt9NBCc9gem/KEplS6CxIlwJBmNocHiRSSyTK7wBEOjU9NXfv7un+49yGxnS5l8KZ0vbucL6Xw+W8xni7lcMZsvZYulXPkvSrGqGqvn/M5OpbX9xfT5lKBd9bnP4t+XwF/1XZ5oLxZKldCYYiF/5dJlLAx94N+fe/Z7zzS8WI9uQpPaKWqSzkC3UNoY9A4OByJsPwoBn+oyMhwxTb8Qoaa28Y10T1w74pf28GEaPkzjFff0mqfDqiEeXNt5kkACSOyiZEQ/nrBOOxV9VKgS3ylxqQb8xlEJzQltZEnpbhXT29XEVrMDEct0r3s1aJhWMiPIVimP6JIw/KhOCZNgcpuHHaZ+Ilpy4JmLTTUEu34q5FyL+S67LfMx/5V44PLh5yFnjqOk4qjblQoG5wPB2VB0QWfsxRBVTK7N6hz2BaZM5l4my9wBpLd3UuyunktXX33r579578NP7j3a2s4XcqVyplDYyGxvZLfTxUyh0r17ksLCzk4FxJ2/TADKlncep0x5J1OdFbTP4t/HcPevf5vFYjmXy28X8rlr61dIKMKhnxx86l9/cubZ0/BaOKmNLMMprBwnFyrsuoCBnUVCz3R1XcAqCfq4tl9PczA6hCqCJaToC8p7BXA1o0PiFMSShomYdlRJdHRdpFM6JDZhLKQb6XbM+nXDHLQe2cI1imJe/bCC5YU3s5Usr1kUg9TSZFRXwDCecCz4tBMyehDZJhXT/Hb1MBGuwkAkJnXSqu8mYiQHf1pbdw7jtS54LIt9sZse66LfsRLxrkM7Fc8/A2AxPFbLpM837/PPR2KrWuNAF0ZFZzssjvFgZCUcW/P45zgCz+lziNpGLLSLQ2WpfZGhlSu3fvvnjx9l8pli8VEu8zCb3i5k819gsUrhYxazu/BVEUyXd9Llne3dT/L7LP5jLO7kc/l0Lpu59fJNNoV56oUTB37w3Is/frH1eGtXLZID5Vk4dj5C3H60s/M4hAZgUdqYCrw2oe/3iCMcsFSM0gZkPWFlvwCuorQKbNxwXDcW1QyrSA5UHZPaKTXzwkHtcJ9rPmwaExItyFauiuP36odUHD+8ma0ThNyqfngDg43S+3QjMdusXzchZ4SQrRIpIxC0TjOwRkQHTyX2W3QJIkZ84JmaunMYn3Xeqkn1xW66LQs2/bTTNEsjup76t2YMymg1T3rcC3Z7yhdYFMtjIKiUwfbaXbOB8HogvO7yLooVSRhSKZAGxYoggaZGk8RCpS3UPfbSG7/46P6jB5ncRrGYLpeyxUK+WHU0FioWuWKac6WK7c6UylUKH7O4vcvidnknt8/iP8RirpQpFrPb25sfvve+w2CDtIAaTtYf/rfDB797sOa5GmwjToKRYurxjQdaSC00FVHHg4kMdGtC3xfV9HKhEkanICjv7jaMKHAmRqfYyg0kDKNeaZIBlABP4SgdIgPbH9AMDHjnw+ZRGc1OgclFZIvfOCyh2SENNJ9hKGIeZ3apgDUUr3Y4ap2OWmd1/DiiWShjBv3mKTHDjQaLeHSzRR/HoQRP//spQBM15FryWBb6Yjf9jhWrLhVyr7U28NoaeUcPd8kkPR7PksMxm+y+zheGO0BiDj/scC+5/ZcC4WuewGUmNwIAy2XqXpd/1hWcMTsH2RLb0TOt7TBCz+jM67/87QcPHm0WihuZ7ObWdiaTKVQGcyrB6YViNpPdSqc38oUKdrs2OvOZUqziuM/iV0CxMmnvSV/3E+3Fze2H2dxWPp/d3tiKB6LgFuDZF04f+fcjB7978Ln//dyJH55oOdzafKgVeALCg4tESBmhiSLDqiPqZFzXx4WK6QB+SNHdYxzRkKyMTpGW6ohoBl2iGLmNDziBIrbx9SxvUDvY45wOm0eVLDcNIefi9F79IBdvgDUxAqaRmHVcSDADa8g2WXfUmorb55SsELJVqOKG/eZJjSiCg0nIGLlBHcYh+c89dbazhRZwLHgs8z2RGwHnslWXCnvWmus4cJCqo12M6tJbzCmLJRVPXmdxA1C4SiBJ2FxLTt9lX+RlV+AqlR0FgJUyzZA7tOyNLTuD0xbfaCOIdOBkczMEz1fbplauv/v7Dz9+sLmVri5+W1kYfDduPF+oaMpKx6XacNzZye7sZHZ20js727vnfRb/MRY3th9ks1ulYr6ULw31DLXXth74wfMnnz7ReqK15rmaMz86g65Di1AiJoglxcgtbDsLxGOD+R5JMKbt4UJFdAA3qEj0mIZNDCejUyBEqn2ypI0XxDUx247Bsc1MHcsd0g/GLGMR84ie76N3yWldcoc6Se2SoQDskGU0ahlVs1ywRrqK7YtYpxKOWSHJiW4X64Rxv2XCoeunYpQIIFMhdhHQgheevQAG0D2WlMs8nQhe9dkXHMbpkHulpZ5DxFhE/FhzI4fDCen1Y4HAGp3pR2KMYnmfxbVk913xRm7a/ddIrFgHTC/VjjlDa8GeawNTb9hDs00QFoqmUtkSaIaqE8Mh87Xxvqk33vrNJx8/yGYKuytl7A6d7nq4d1/ralcm9xmOmV0o99uL/xiLlTHbcq5ULJTzxdTwZHtt69P/+pMLL1xgQOmUDnLniQ56J93AMDKATA6U5xH7+XAxvpFs5Thj2m4BQsro5Pqk0R7TsIPvZ4FFjE6hjRcwMFzoelr7iS50E11Nt4f0A0HDYMQ8YpVEWGgVASzQiwKYTi4JJo7ax6KWUYskgm7n8vCGsHki4ZhjIvXYTrFJmgzapgK2cS7F2NlM5NA1RAz/8PMXkFCu0zTuMk3Fg2s+x5zLMh1wLTTXsnjMgN06A4MoQUCZTNZrs89SqG4MziJTDtjcy3b/VU/0VbPnCp4RASGtMv2kI3jJF78a6n3Jl7iEpBgQZI3M1GPyTehcwwiSvL4Vw+aoZ2fWP/jzne2tfCZdzGaK+VypUCjt7qBQGdPfbUdWcczuVBqLhf324leA8W/b6NJOvlDKZtJb2e3M+uIlLAR94IfPnT94noPkaOlqYgu+6YUGwLF2yBkwB8pxidxKoprUQtVSTRF1Uo7TMDq5dp6n2zjkk0b5cDm5jaOl2hUEE6aBBrtAwDYzZWRzQNsX0PVHLaMOZYJP0GM6OHySAd5C5+C1Mcd43D7q0XRTYBISROLXDyccMySIAg+WWRS9Eed0xDWp4DvBbSQckodDcl549jwZK3Oaht2WqVhgxWuf9timPbZUQw1VJev2uhdEgmhzE5tMthuMYxisEY0zqvUjdu+q3X/VHX1V77yEpgXBOIfMNG0Lrvu6X06OvaV1zVxo58BIJnNg3hFdcifXrMEZMkNfVwdvboSrFLYb11+/f3czvVXc3sznspU4imKFyGJ1suJulyW3a7X3WfwKKP6d9mKp0o/e3trcyKYz77z2tpwnO33g1LEfv0jqJHhkLglGVPfcxXM/OXvxpxfR9Rin0OWR+NhgnhynjqgSJqadBeLrqOakYSCq7pHj9FQAT4rVC7pUxFY2qZ1L6uAJcTqPMhnUD0Qso251j5hqQbax0B0cUD1JxrTHnRNJ57hf38fFaZCtbLuiJ2ZL4UFSElRhV/fH3DNh54RJFcEieNBOCqST8MJz59g0jdsy4nekYoElr33K55h2mMZqzhLM+mG/d8FhSyGRWiBQIpV3t3eK0DijyZZy+tfsgavu2Ksa+0oXOQAneZXWeVvoqifxsq/npsKaakWombKeYP/NQN8Nd+KKRNffAeZerEE01SPampFkgqC/N/WH393e3MhWJuRs5Qr58q6CrOD4WfOxOjbzjRmS3pPjLoV0JreVSW/ls7nf/+Z3LoOj/njtge89B74AcohsaooKcgYEOwdtPdLS9EITD85Tk7WUNpqwSxJSRt3iABvMl2KUcV1fUt+vp1lZYBEPIWeBRUywUIhWseFSLlJhl4QjpqGIecitTiqYdmQbo/lMF6ieoBN6E67xXm8qYOiTUC3QBqpRGIlYJnFACQWucmoGIs5UwDbmMvZyqBpgG77uAvDIwRoh2+hzjIU9s7HAotc+6XOmzNr+MyeQDst40LcQDi6JRJHOThGOYDp/kYwjmu2uuSqLrvirStsSnOTrogZUtkVr6Jor/rItfJWvGWkAK6iipLfnlfDQG8GBWzxFX30L82INEtPFkwhtYoGFhBdymIqhgdSf/ng7lynlsjv53GMcK73Cz8asv4pi2BNl9gaLu69yNWasuJNLZzez+XSxkC8VS+/9/j2v1dNwuv6Z75Py0U4AACAASURBVD7dcKzBzDfbBFZcE5aH4GkoGlIrCXYOhmvEY+pxPLgwqIhE1Ak2RMCFi+P63m7zkIXj4iOkLLCA2sHhd0k1NIsArWLBJBZhIGEdDZuHXepuDdeNameePtAKqidY5OG4c7zfNxvQ9ytZTkg9Wc3xhsxjOKCYilC5tIMh+5TPMuqzjcgFrs5WwrHD9ceP1It5toBzKupfjAdXvY5pv2vWoOo9cRTqtk+GA4vx2JrROITBahua6cdPIck0m9Mz6/Iv2wOX3fFXlJZ5GMGNogVV9iqLrzgi10W68dYuPU8z4ut91R69ag6us2Q9NU2MphaaXBEKh2cNxgQaLQAACFSqJJkc/Y//eC+b3clldwr56lIFu9GLlQV8n1h+bU/w9vce4n+OxZ1qeHI1rrtUCTOpBDNW1hopFHPZbGWpkFKxeOfjO8losqm26cf/50cnD5wSEEVGvgXXSmTDeUFVxC3xssBs4AlIw/PNuHqSiWn3ScM8hIwK5Jl4Hp8yYeK6OAgBoZWEbsCxoHwzz6WimWkQoYHrHfDMRS3jPm2/RRYjw6RHn6prO492apJ+42C/d7HXPWcShbta6TSE2CILIVpobKw2bJ+KOGZ85smgLaWXx6AdzBeevXjmeLuU7/LZZqLetahvLeJdDbmXhexgUx3dZZt02ifDwSWna1Ig9LcBWEeOgxAoqck27AuveELrntBVmWYMSXCyhN16+4LVt+YIXnZHrwlVw1CsVWqcsIevWIPrGuc8huk738qFE41m70xs8LrVn6JybUiCjMRQs/h6qyN65drrd+5s5HYd4tntTC6drjgiCvlKW+gbcvyPsvgFGX0+36W8U1m/sBKbXyptPNqYGJ8AdgB/8qOnDj17BA8lq9g6dCsR00IMqiP99iElQQM/i2w91IG+iBd2yWx8nxCjIXZw1UxHQN/vUUUFGDGyAYmsQwrRYqfUp2PZKCCBlGRJ2qditsmAYcSl7mOi1S8+3dB2Hu0z9vuNQ72uxQHvsl2RJIC5qHaqgm2ENuF5RG3MlYq55gPW2aBtzqzqR8PER55vOHeyUy70+2zzUfeViPdyzH815F5lEF3ANrHDMuFxTft9s07XhMU6RKbpz9Z0dYCZCk3E4Zny+JejiZcM5hSGYGdyozrTlDd8Odz9siuyzhTFYTizxpZyxa6aAysMaeLYRerhCyS8IGSKrLl6r6ncU0SBi8C1inURicZP52rlKvvs3PonHz/IZ4vZ7WwlOnJru1ws7rP4Bcq+7sXjlUCq2wKsrq6i0einfvL00z96trMBKiTL0W1EwGmQTeAc9UyYWTZaO1PcJZOglLCzaGwjFdfCQDfT1SxHyDTo08T4aAH4HBDThNYy9G5ZQEU1UToFQpwhYhxN2FNh87hHO8DF608faOusJYSsw2HLeNI+3+2c9+kG2FgFvJnAxIqgzTgR1RBxTiU8S2HHYsA6b9eN0gn6k0faz58CqqVhv30x6r4a9VyN+68HnKsEpBnaKbcZx0OBJZ93xuWeCARn+CJXbRO2tgmDIcrlqrjLOx+KXJYp+iFwDYsXsbnm/JF1V2DFF7tCZHmbwVKledwSWKYIw7WdggOnsU1wpdA6aU5eNcUvCy2jKLadKHSbAhOe+LRQ6YKjmCSKoKdn7Pe/ez+XKeQy+WwmWyzss/h16fti+epc/UKhUN0C8tatW0wm89mfPvfv3/9J7ckmBoqLA5AbjrSIcbJB54hXEhAiJC6+LyCLIs5j6w+017/QUXeogwjkG/g+jyoiJkhbjzUDz3RqaNqgJm7he5lQKQMmdyl6EvbpmHXSpx8UkEw1R0GQRlLUPpZwpqLmVNSSiljHlGwbtAmLBBBhLTgZyxKyj3f7luPuFb91zm2eEHPcNaehuyyGAo7FqPtKzHst5rvmtS3COpRdULXVMBb0LwQD84HAXDA0y+RaWjooTe3EdiAdjVcJJRG9aYwnjHShdTJVbzC2nhx4JZy84ggsElhOCFYr1PRwVckuqqUZLjnbysbw/Kb4FcfAq5bul0S2iS6WgyBwm0OpyNCaxpYAIug1dWAcnpNMDv/xj+/nsoVMOlcs7rcXv8jW173a2trKZrPFYrE6Ufo///M/9Xr9i0eP/fgHT585fAEHIpMhtOZjbbgWQkgdCatjoi6JlW0fsI0KENLGFwC1B9qaXgTD6kmMLqmSYeQgeS0vNnWcBKio2qihxykJ0aESAoBvEcWSjumEI+XVD4go5oaTMGgTOWwbSbpnwsbJkHEi7piyKUKIVnzbeQisBa/mOQLW0aRvOeld81tnfbaURhpuvIg8e6JdJnD7bHMh56Wo72rMd8Vlnm2r5+LRRqtxvMpiKLwQCM3QWEYUXkph6kl0DQqnQOM0VIYTTzLBuhQiWczmTvmjy4H4qtE1iaNboXgNmmbuohppkgBdGmxGSPGisLX3hmv4dcfAq2JHCsFy4QVevX/K07Mk0ASaQWQAhMzmqUVSfW/f2G9/+972dq5Q/Oa0Fvfm+ovV3cGrLObz+Y8//jgajV6sqX3mR8+ePHgG3oKiI1jA8+DOMyADyxRWRwVwoZFungkvWDmuthdB7SdgXJRCRjVxMEo6jNdVj2o83Ai7ANfQ9EFNwi4OMGFSUqfQIoolKixOuzV9ApKx4SQUVI/3GnrizsmQYSJkHI87JgOmHhyIVnusBdqM04vcActI3LOQ8K4ErLN+W0orj7bUoU8caWJR9C7TlM+6GPGuR7yXnKbp2jNkJtXlsEwk4+se95TbM+EPpqhMA4WpV+rCeku3UOpD41QgqKipldHczuSK/AbrsN075Q7NaaxDrRD++RZKG0LYRdPztXG+Ng4masmymCF+zdZ/y9Z/k2MehzCcZHnUFF2wRGawbOO5ZgyervBFRpQ6J4UhjiWHP7x9L1/8Js2+2jt9l8+1Z3XRiFwuV93P7NGjR+Pj421t7c/8+LmjPz0OrIUwutiIhq72EwAhWuiRePgwvolhWUysdBv70fXEjtNwPdsRt494tUkV04RqxNYdrOs8BeR1iexCr0cek5FMZKBIw/Qk7KmEI+VQJrl4Td1xUOs5hFURDFmGI6bJiHkiah2L2geZaMGFIw3QZoxJ6g1aRyKO6ZhrIWib8VomVOJgSx368PMX0TCBVTviMEyH3Kthz4rdOHnmGFrMD3mdqaGBG07HmNU26PVN4ohKPFml1IWdvhGba1go9WOJmsZW6unzSEiXCEVU4ag6CseKICgPnQZfbKdimUaOKqByDoqMcQhZQxCH1OFLlv5blr6bFPVAJ8XG0vU7ey/r/FMgouJUI5rM1Uf758zuJARF68Ix55eubm7nvkGKcS+yWNWImUxme7sSIpXJZJaXl2Ew+DM/fvbgjw+3n++kw5mIRiToLIgJZpiYRgGcb2FZp0Oz494pEVoBOAVV0ozj0YXJxHLCNijEycDnoPAaJLGNxoIKlVSLjGgidvBFeGPcPpVwTFllMSZaceEIoP4EUMO3+wy9MctU3JYKmgYTzmExVXnhSD20GWVR+EL2kYB1PGSfCdpn3KZRKc/dVNv1/NOnO5qJBmWfRTPqdy6GPIt24/jxQ1C1LBn0zg0N3vB6pjzeCa9/EorgowkyjTHuDU0GojNW17BEGYSjxefr0J0wDgQpBKOEULSooZN64CQAQVYqbT3m4JgzMSu3dQOJCjTfq4lc8oy/4xp5g6TsA5CtfPOoq++qwNxfB+WcbSMyZA5vMmXy9IJQjKOnm+Vaxy9+9bt9Fj9Xcv+NXHUlmqperC67ePPmTSaDefjAkUNPH2k9245px8HrEdhmDKmdqCDIBXC+iWkacY2mQjN2oQdyAcnHKkbDc3P9l8ejc1ahiwFmi9AyJVnPRyk4CAUFKITWkKgQqVfbHzAOmSVhMkxQd7wT1ICloYRefXfSMZ10Tnv1PWFrr0FkbT7TDm5CmhXeoG3YYxwO2lIR15zXMibmOOtrYIcPXGhrxLIpVqdx3GObjvqX9creYy+ALPrBoG82mVgNheYisXm3dxwAYmJJSotzMBCdCcVnvaFJvaWbSNOA4By20C7ThmTakFDpxdLV51swNJHNGhrz9c0HBhbFpiiQKMOJfbr4um/yZ97xtymagQ6KjWce0YcX0TznqVZyE4IrMkU93dMaR7IFSjpypgVPF0d7hu7eu7+7tG7lVN3hujqP+r9RL//sr+xFvVjtslS3ac5kKlPZ3333XZ1Wd/bE2RMHT7ada++8AILWwhgQGr4VJ0Ty+HCOjqLts/RNh2d6rAP4NioeQI9Y+md616a7VzyKkBAltfM9A86JbsuohR+ggsRtJ9HgGhIPq1cynSqOEwtkAevRHKIMWI9265I9rpk+77xX3+M3xu0qT8dFcHsNSCu0Ba1DbuNQyDEd8yz4bONCtr3uPKT2PBAJZYFamQ7TqMc2FQ+uSAXBE0fAdsuI3zMVDM5Go4uR6LzVPtjWySBQNDbXcCAy44+kfOFJo62HwtRhyXKtJe4KjXkiE47AqEDtbYMzOEq3NTTq758PDC6w1W4QSUpRhAzxS+7h151DtyiafhDdzjUOiWwjbVjFyRYSmKRUOvu8vXMSU6i2A1vXicXSJWSW8NXX36i+z1W/RNVxuzc3WNiLLD5edT392fGHP/zB4/ZcPHvx1KHTgJqOtjPtwPNAFpxJ6SRyYEw2mKEmKpKGxKhnbDI0zUWK2k5BNBzreGxhpmfNr45JsEqvNDwXX1vqvTbsnTPzgrhWHug8EdvOJYD4RDAP3IDraidJGJqOWoRR4ovbJvp98wFTb8CcMMscgIvAxtOtYobGZ+n3WUai7rm4b8FtGeHSjbXnwJ1tGDZdDWiiiDmekHc25JmV8H0XTncZtd0Bbyrgn47FFsOROYOpp72TQaLpba4Rf3jGF6qy2E1maIl0tdHR641M+uPTnuikSBPoQHIEGp8tPOrrm/MPLNDlDjBJxtLErd1X3EO3jPHLBGkMznLyjAMsbaIRITrbTu1i6HTeIXdymimz1wAwICyni8xv7oAPjY7dvXt3e3u7UChUV0KrrlZaKu05d89eZLG6O251L+bqEoyffPJJb29fc33zqUOngPWg9rPt7afbmDAat4vFAtOo7UQxSpA0xEbcI6nojIKqqT/SRgKzQuaeVGI5auxVkvVeWWQuvrY2+Mpi741e+7SUaGXAlRq2W0jU4zrZgItIUAMKDSS3nAcKKVqvpjfpnAqYegKmmIqra7sAaDkHEFAUTn3CaxqOe+eT/kWncZBOVJ0/1Q4CYGRCCwLE6QILQt6U1zEu4rqb6vAKaSAcmA4GKiyGwrNqbawDxKaxzA7PWCAy6w2lvKEprSlBoKooTL3FPeiLpPzxGXd4kq/0dqJ4Il3QEZ3w9s77+hYoYhuELBcae90D1/0jtzT+eTTPi+K42NokWeJrRYnrIWwsx2gOjFpDo0iarKYdg6bLAF2UY2frbQ7X+++/X12b9LHBqS5S+s+2uV/3/nuRxZ2dnWoofXWZ4Vwut7W1tbS4hIB0nTlyBlQP7DgPaD7eSAOT5EQxC0LDNaDoHZRuU2I2OjMZmtJzzJ3nYZB6lIyu7fOMxU39aorRIfCnQsurAzeX+14Z9i1pmT4p2dbnmRmLLAeMvWK6DtVBqj3RXHuimYYUathut7rbZ0g6NT4hRdJ0prmjDsQlSqzqiM88nPQvJPyLFm0PASU6ebSxsw2lkTtJWCmgiaxXx32ucTbdBGihyKX+CovB6Xh8MRCalimCICiXxbO7fBMVFoMVFlX6GIaoYHAsDt+YPzrjj885g5MsiQuIFkiNMVd82tsz7+mZJ/DNUIpSZhvwD14Ljd5Uu6fQHCeSacXznWiWGUpSAXFistBiC4+q7YkWGPUiAEPmaS62IZ49dFKp0X3wwQe7s2QqerHquK2uIv51Wflnl9+jLFZXjX/MYj6ff+3Wa2w6+8LxCx21ANDFzqZj9YR2jI6p4iHYXReguAZ0VBte6V2eic+YBTZ8BwXZiidDWXa5P6TtVpKMRqZzwr+4NvDqYs+NYe+SnhOQkKxDgcXrs++sjL08GEnpxDZgAxzehhHRNCKSUYDXSel6AVnGwnI664Bd7Sg8lKaXeEL2sZ7gYsK/YFYn8UjhqWNNkE6sSefjs4wIEJuMVwY8Y0SsHNhO02miQf9klUV/IMUXuiBwPl/s8QSmgtG5XRZTcnW4CyNjC5ye0HQgPh+IzzsCE1SeDYwVKyw93uS8p3vemZhDswxwqkblHPb1X46M3NB6JrFsG5ioAuJkXVQtiWfBMDRMqd0WGuEpHWcbYfUdGDJXdex8yzMHj+n0pvv371eHVat+ib0J4t7da6i6a3g2m626GPP5/G9+/RuDxlh/pq75bBOsAdx8ogHZCDNxdXK8CHKmE3Ee6hI5VnqX1gZXbSI7DcriYkX0Lp6UqnXJQhqqRU93jvsW14deW+h+acizaOSGBHhjwjF1bebtS5OvTg+s+UxRCpKp5OmHolMh44CMaqEiBPBWDOBiZ+PpJngbEtyEFNK0Dl13xJWKe+cchj46UXnhdDukE2vUerVyH4uq62gh20zdSBgXBmLZLb0+z2gwmEokFn3+SRbHCkeKJIqgLzQdis17g9Pe4LRYHoQhxXyJLxCbDyWWAvFFu2+SyDJDcTKNfTDQu+JOLtijMwiatoum07pGvN0rseHrBu8EhmFsgXFaoGw8y8BX+ig8I1/hMnv78Az5i+daG4EYDEX47OGzzx86aXe4q7uqV/0Sjzco+Wcruf/G/feiXqzuY1AqVfaxr/p3stns++9/EA3FWmqaa1680NUCbzvdDL7QYeHpDAwV6GR7+9FmC9u41L2wNrBiFzsZcI6Ga1KxjUKCQseyaagWHc0+7Jq5NFTRi6P+FasoJsSbgsahpeEb84OX54YuJTwDQprMILUtjK5PxleHggsR+4BJ5mivAZw/cr7hdPPZw3VdHVQuSafk+YzyuFrsJ2HEZ0+0tDcjtEqn05JUybwtDRgeywQDMdAIvtc15HYOBQNTVRapdEMXWiJXRwKRuXB80Ruc8QRnBJIAGCYUyULhxEo4uRKIL9m8kxiqAYZX6l2jof51V3zBGp6BkdQoukHvHvEmFuNDV/TOYSheXtNCAMA5PIVHqgtSuHqx2q23xYBI+qFTDS0gLBBB/uHThw8ePulye3djnoq5ysY4lZVJH3cN/xu4/FO/shdZrDYWq9u6PI6QuHfv/uToFKCh/fTBU+h2ZOeF9o4zrWau1iEwQU4BLj51xsoyrnQvzoRTbomXhxQb+XafJiIjq7ldYj5SJsVp4sbB5f4bq0M3pxNXPMpeId7gUiXnB6/ND19dGLma9I6I6SoF17g29fLK2CuXJm7N9K+l+hYoXXQ8hIgBEQAXochOGhbCw0AEKBAf0k5rvIg49Nz5plqwVukKuAdN2giwnQwD0cEdVBJO6nUNuxyDfv9EPL7g9U2QKFokRqrSxYPR+VBs0ROo6EWB2AeGCiSKcCSxHEkuBxNLVs84iqRBEJVG92h0cN2dmLcEp6AEJZZpNHhGvIm56OAlpaW7Bco+VY9CkGRqW7dEFySw1GKtV673NwIwh07WtwDRDa2w7/7wpy8cPuFwuqoIVs/V7Zuy2ex+P/orvVePt6KoOmmrr3Iul1tbvgRuA585dBoHxHQ1wyEXOw0sdUTto7bgm5+rNZA1M/6plHeyR9cjx6rUZEOPZdAh9NJBbHwrmQXnRwzda8MvrY+9MhVf9aiTYrLBoYytjr+6On5zbuhat3dCQjcycfJXVt69Pv/2XP/lmf5Lqd4lHlFKR3PJCJaAovKYkh5Tj0EepOMU9edgZ463Hz/ccOrFRhZVYdFH9KoACsG9eA5y/jSISdVYTN0B37jTORwIpJzuMSxeicEpVbpEOL4UjC7YXaNu34RE5kdjpQpV2OOfCMfnYj1LVvcIDC3G0TQm91BsYDXUs6hz9EHxUorAZgmNe7pnPT3zbJX/TBvhdBuBKnXp/aNcTQDH1XPVbjJfd6YefPhUw5nathdPXfze939y4tTZYDBcdehUrU11rL9qqb9SZfw/LLQX9eKX//zyzms3XyNjyeePn0N1IvEgDLwBoiCJE9qQEiuGHu9QoaQT9pF5/+yodVSD1SixmiHr2IBtREnWIOq6cG2EgDa8OLC2NLieSiyFTX0ymskqD6+M31wevTndf7XPP6dgu3AQ4UuLv7gy8/rq+Ms3Ft6a6llmYyWAGgSoARN1DV2Zf2Nx4kZq+LLH0oMEM2FAGgUvRYAZHLoG28VDQlmd7cQXnr/4zI/PsGhavTYS9E84HENe74TR1AfoZGEJGrW+OxRbCseXXZ5xh3OYy7Oi0EKF0u9wDYZi07HuebOzvxPGJLN0Fs9AvH8p1r+oMsfgBDFdZLVHJ3z9C87uGZLEcbKd2IwRSl2DuvAkVeklim0cjQ9BlRyvAbxwqvbAi2efO3js+z/8SUsrYHZ2rrq3dblczuVyGxsbVQW5B9es/Sax+Nv/+J1epa89XQtuBpFgBEgtkANnhFV+B8eEPY8Qg7lT9rGl4MKIeUSD1WqwuiHr2HRoPqyNEgEkSA3UwDOlErNLg5dSySqLRrPEvzRyY3n05vzgjZHoqkEcIsPF66k3VsZffnXl56sTLy+OXOMRlBePtotouvmRq+uzr82OXF2aerk/NsuhagRsYzKSivjHuqPTVkNUwDZwWfrjR5u//51DUBAdjeSjkQIu16pQBPlCV209jsGxm+3DnsB0IDIXjMy6PSNMlh6NERqMsUhsOt49H47P6C2JNhCFytG7QmO9o5di/YsKQxhFktLFFmto1NM3b42nMDzTmU4yhKFV+ccU3hE429CE4rZjeXUgwsk64Ima1mNn646fvvD0Tw+QyLRf/erXj9uIuVzu4cOHe7b78k1i8c4ndxKRROOFxraLbXQUBVLbSQUSImp/UhOmNOKYzeQxy+BSaGHINKzBarV4w5BlbCY0P+IdlZHkgNMdNAi91zmwMrQ+nVwMGrplNINe4J4furYyVlGNqb4rLm0PHSVfGH5prv/y9dk3FoavTvetEcDs+uOdCc/o8sSN6cH11OD66syrY30rXLpWyDEtTL+yOHNzPnVjafaVge65eGSqsa7r+NFmAdfEpGvJRDkOJ0WhRO0d9Gefb2hspXRh5FSmRaaKGM09CmUAgxV1IXk6fSSenIv3zPsik1pzHACls0XWcM/cUOpaqHtGqPKgqXKOwmUNj7l75/ShUQhNdbKd2IqXYMUOCEN7ppN8sBZ6pBZypgXZCiO1Q3F1LaBzNQ1PP/OcQCi+f/9BdXeP6jr11b1n9qBS3Ls+nS810xsPNyZGJjoa25svNDIwVHgjmArEJ4yhUWc/G0DFXUAmFJE5/8yQaUiL12nwugHz8Gx4IRWeNvHM4AtQSA1cTlF12/tme5YG/RMqpllGM47FFucGry4MX0/1rvsMfSSYcDi6sDR8fXn0peHIrIZn76hBdtQgk57R+ZGrM8NXFiduXFt5Z3b8Op9pYNM0y3O3Lq+8PTNxbWH6xsrCrWQsdf5MJxBAGupfTsRmepLzkci01donVwRIFG1TG/VsDaq5nYbEyvEkFRzJb2zG1tZ1QWAsOktHY+vxVCWSID5bBwfAGGyxTW4IM4QWIJp7tgkJQLIxLDWWq29HcQ6c7TxQA2lAclvwonMQ2kU4o4Mo6sTzERQRTaDtIrCa2iDnaxoPvnDUZLZU16avmuYqlNX9Ffcgjt8cvbizs7W5tTS/hIJ0NZ6rJ3cRMO1wKggXNwQnfEMSBA9xCmShGUZtwyPWYQPJoMKq+4wDs5GF+fh8QBWgg5mYZhy5kyolKqKm5IBnVMe1icna4dDM3MDlxZHrswOXQ9YhPIgbtQ8vDF6J24dEFC0BzCZBuTggs8c3MT24PjN8ZXXm1kurP1+celnCtdBJioXpV66u/Wx28qXZyWs3rvzCZo4fP9oIBdHmZ16ZGr+2tPD6lSu/np9/Y2LyleHR6yicvKmNQmNZDJY+s61fpQnzBFY4ktfQgu2E0Fs7yReb0Z0IVhuYWtOMbgFTUVQ5lqGCE8Un62HnWlBQkhjH1Z0H4J450dKC5gosMZrK20GW4oRmkSXKVDjYCptU7+4iMBvbwHUNra2tgOHhke3t9MbGxubmZrXv8thlu9+P/lJ991U/TKfTN67fYNGYdWcuIjsROCAK197lldsmfEM6sgJ8HMDtZCRUkXHHqIVukaHk3Ya+mfDcUvfSsHtYx9BLcFIFSSnEisUEuY5tkpBVEopmJDKzOHx1dfzG0sj1pHsM28k0SXxudZSDkcmZJp3AqRM4qQhBj298afyludFrS5Mvr87emh27JuPbSFjx2ODa+vJbK3O3psbWF2dvcJjqhloYEECanry2uvzm1cvvrq39bGnprbn516emX4UhBQAw02TrH5u6ObPw5kTq5Z6BZbkmgMKL2QILmalB4IRyfcjo7IXhhDCCSGYM20Ijzuh4F0UKxgtUjqSnZwbFUp9qRdNVntjUdWNkAi+28o1hjbefpXCIdG6NJQDDUGob2s6crYFCEGtrl9Lp9ObmZtWJU3WQpdPpqvf7q8r9/1W5b5JezOfz7/78F2qF6sKpcx0NbTgQGlLboWXIRz39Dp4JdKwNdQ7mEzgn3eM2lk3UJUnqeuai88s9yyPuET3DoKPrQpqwTxmQk5XkThqyEcdGCpPOocnkwkzfylT3UtDc01mDpCEETKRYRNL0+iaGI7MR2wAexApaeq/MvnZp5tbq9KvLqVdmRq+qpW4CWtgdnV6affXa+s9mJq/0xKeQcDqDKutoww30zl+/+sv1tXfm525dWv/58uo7/YOXgFA2GMF1eEenZl9bXP3Z7OIbg2NXNMYonWt0+kdUhgiRqfFEJnrH1olsLUfu7J28krr05sTKa1ShiSwwhgYXhxZfoclsx5sQBKE5OLKmDQxTIPp76wAAIABJREFU5E6Vp0/r7aeIjFKD1+AIQ5HEC7XNh48cR3Vhbr16qxqSXO2+VB061RGEfb34D71ipVLpvT/+yeNyXzh9rubkOWQHvP1sIx/N6HfEQwoXpgYGONysxsmG7UMOnlOMlEQ18bno3HL38qBjUEvVqsnqpKl7KpxKmLulRDmkBgGpQQgJcgPfahDY9HybmKK8cKgRUo9Ws6097rFU7+rC8NXR2DwOyPQaEpemX7089/qVhTeXUzdnx6+btWEiRhTyjsynXr669vbU2JpZH8CiWGZDEAIkx8JjK4uvr196e3Hp9UvrP1tafstk6W5owcNQArd/fGbxzbWrv1xce7tncEWq9osUnt6RNZtvCEmU2PxD3SOrOKZa7+qdWX978aV3J1ZeIwuMbKWrd/rq1PqbfL3/xXpoB16g9gzwDGGqwmWKjGm9fUSeVqr3aCw+CAJ/7nz90SPHRQLx73/3u0KhUO04VzOP98r8h2rin/Plb5Je3NnZuXv37tDgUFNdw/EXjsLaQB0XWqgQXNzgTxgCbCAFcLiZ3kaOqsJuoVuKkftlwVRoerl7edwzZmFbFHhFXB9f6l6aTy4kLT18tBBSAyd2UCVkhYgkFZPkAqIEcB6CAZAGAhPLI9fmBi+vTrw8kVyiIgReY3Jp/KX/j733/q0ruw99/48HXLyLPN84ju2xp486JVGNFCn23snTe++99957723vs88+laSortHMeMb2dXwdJ07GiVtsz3gksVMPh7KdANf2L7YAK5CwwCPshbNAcH32t6z1Le3Kgw3og1rhDpC7aVAGkMssqyEGle7AwJ2wP08lCXlsldMem5/B+T3ZfK5za+u76+ufwPVHFeAehaa+OrA8u0Q3WFKl6sPWze82Nr/tDgEUlk6s8mYrt53ByswqU6INWP3FFYLI6MsXW4+KnQ9ChXUkQ8FWu1PQnWz9PkvhuDS2NrhIQrI0q3QVSWLV+QpCQxDNkHFlZpZQNTa1cK7n0pnTZy1G869/9etuX8zjBKxu/6HjLoQvBqS/wKovE4uHh4dfPP6i1WxMjo+/98Zbk4OjE1eG5vomjGxFQGFnzBAWLk4h+pe1ZLWVY+Uu8wwMY8lZaoYaRXvBSDMIVgVeiRcOwc1os+AsaBk68hxFhJf4dcGAPhTQh5xKN2mJRllhliP1Vv4OlNpsFe7mgzBpmWuW+8HURqN4twO+DxfvVvO3zNowcpll1kUa1YeVwqZO5UIsk93OeCRUGBla8nuzuWzr5uYnGxuf1BuPkuk2Es2fmCHOLdG1pngRfNDc+A68/rHZlSUw1GpTNAfe9SfqKzghU2wVqL0IiswRBfPN94vrH5pCJQRTKbfH882HwVyLLDDM4/lzeMGNRfLoGoOj9en9BZbCQeJpBAoLmsi62jd0+sz58+fOu+2O3Z2dV3Uj/gJvyf+9xP7+/pOnT+7fv7e8tPjWN18fuHTtxoW+a+9dYK2SnSIjbQaPG0HihlG8FY6JZWQvc5REZdFZbIabJVvRTDcJVwQekbsWhJrRRtldtPAsnDWOjq0rB0pgBAAiQNKR4OME1FVWOVJv5m5Dqc1m/k4hVKcjRTqRqxRr1fK3O+D7LeBhvXzPboyjVzlGTWi9/mE2UaeRRMhVMlDu5LPw9b4phy1aLHTarffbnQ/bnY8cruwKgo0lSudXGGpDpFR90Fj/BKg/UhrCRIba4skXoPuRbIfA1qJpilWSGM/R+tKNQucDYOsTgTGIYqutUaDQet8UyOPYKqbcTpfZ+mewfTM4gSGo9WZJfB1DbBCrreMzK2+8ffKtt969dvlK0Ovd295+xeL/DdJf4En3eGzn6Sff/phOo5x45+3e0+eunDrf880TyJFFI1tJmcZSpvHsJTplhiQnyFhLbBFalLPlmqFm2V6yMizCZYGT54B8YDNSB31lj8QpQPN0LE05UAQjFSgGZD0pGVVKXWGUI3AjewtObzXzd0rhBo+gVLAt2WANym61gYfr0Act8KHHlsGjBBq5tw1/4HWml+ZwfLai07oPlDsTYytyqbmQbzfq9xvNh63OB2KpA4UViGTOJQRboQ0UwXtw51uZ0hZP5qRwDf5EvQQ/TJS2OArnDIo9MIOjy+zh8mZp81vA1ic4gR7H1wdLG4X2Q7klROCo1I641pWaQXP6pjEUsVlkCBA4ar7SKlJZLvUN/82XvvL1r722ODe33my+YvEvgN0fXOLw6HB3f+cHP/w/RoPuau/Fc++e6H3vTO/bZxeuTyopIvI0hjSFVVMU1Fkyc4lBW6BxVrlJY7IRqFfsZTvLJljm29nWqqfSCMO1IBjRBuUEsZ6lBoLFaqRUT4HlUE7P1dBW6eUwXE9vNbK3Grnb5WhLSjcIKdq4p1w9ZnGj9mG7+n7QXSJhxRK+FSzeUkpsCzNonzverN+BwE0chkUm8rKZeqN+t1a/VwG3SFQpk6O1ONMILF8kd2XLt6DWh4E4TOUaOFJHonSz0vowU70rNYZGFsm9I6siUyhRu1vZ+iTTerhIlVDktlTjXmn9EV/jJHLV9nDRGQNQDEX/NGYWzUbRZVimXKi2M/mqnksDX/rbr371K19jUCg//pcfHezuvpKLf5ClP+thtzbes8Odve0f/es/RaOh4YGBk2+81fP2yWunLkxdGRZhWdRZLH4caROYeQgOfgKHHcdS5+lRbbTuhwF7xclxCJb4VoYJcJUaoRocqsb1YSleqKbJwWARipZaGagSyhn4GsI8oRKuwambrfydevZWJdZW8+wsnCxsz/9XuRjzgzSinE1VRwMAlSAi4zlAqVkFNmBoS8jXLC3g0inoOYu+QB6F5WoNwUgSxpIkbIE5kVsH6u+bXFk8QyU3hvPwg+rmJ7nafZUtcWOO0DeN0XqzmeZD4Na3fYX2LEHANQaynfeLnfdZMjOJp/alIFccQDMUQ/OEG3O4gWn05AoZTxcvIkjnevvffOvE6994QyoUPv3N5we7r+zFP4u6P/zlo2dHh0cHT3ee/Pjf/7VQzI4O33jrtW/2vHOy//TF0YvX2QgyY5GIG0c4RRYNTYWfwM5fncNN4MPqMOyDQXvFzXUKlnhmmqHiLNZDUP2YRSGKIyMIgUC+Fil1MrVyMKvjKBHjiEqoVktttAt369ktIN4xiD1UhMBvTsP5223gQRt8v1G+lwzVWBQVCSsy6UKri2Sj1g0BHQjcaDfvyiSm2WlkKllt1O/VG/dFEjMGz/cHS0XwNoEqo7I0kVSzVLsv0wcxVIXJk6u0P4RvfTcHP1Dbk0MLpCkUyxYD8+1H1Tvf1QUKs0SB3JnMtN+PlDeoQj1NpA9kYLM/h6RJlwiCOQzn8ujytbHluTXy0MTi2QvXTp3u6TnTYzMad588Ptx7xeIfxunPfHp0cLi/vfP0l7/6ebMFL8zPnnjr7d6TZ/vPXJy4PEhfwdGX8NjxNSvf4BLbqHOksbPDyCFESBmEfTXIBXoFbv4ix0DRlhx5OFiFg9WEMSJEccVYXtmXgyLl9UwdCBcMPM3a6GoxAEDJTrt4p569CSbaNmWAuMx266P1wq0WcK8NPqiX76RCEJuqRCzRBWzd8jwxHQdKuXoDurXReSCTmKcnEZl0rQHfq8P3UGg2ja5IZVq1xkMqS0WiK0LxWq5yhydzYWgqdxSqbnzcuP2/c3BXLg4vEFcpEk+6Xmg/gu58V2gMLZKlxlAl03ho8OeJPC1P7fRn6ip7DEWXM6RWhtQ6g6QvYBhkjnx2GdvT23fqdM+NgaF0PL775MnR/v4rHf1nYveHv76/v7e9/eSLx58/ev8Bh8m8dO58z7snL5/sWbgxQZxHYqdWEMMLBpYyrPUJUZyJnpG1gSWf1F3zgnUfFJD4eItsNUFesGXgYLXqrySMMTFWIEBzC+5sLVptp5u1OGSVWBBjiJQzW43VO4WtdmGrmmz5jTHsHMWm9MG5zWbpVqd6vwXcTQTKLJJ0egSBR7BpBBFYWC9nms3qnRZ8T6dyjw4tlQudRu1+Kb8+PYWRyRyl0k2odl8otlLoCl+wEs90WEI7mWMKpTu1jW/Xt77b1dGW6OA0GkGR+NONYvNR9eYndIkNw9T6Mxs5+AORIYLn6uW2aDDfkhiDGKZSYgxKjQE8Sy5QWjVm3wqK3HOx/8y53sWFlSbc2NvZPTw4fMXiH4bpz3x6sL+3u/10+8nj73/veyadvu/ipbe/9o1zb51ATC5iZlYXb0wv9E+qqKKkOWhkqZauzSxfm3XyzYCrAHnKIZlPtMpTYMUZU6IZrdeC1aQpLsNLeChuxpGpJ+qtdLuVbrmUHuQ4OmgIgxFoPb+5UbpVSzVjjjRqhmCU2OFcp1m62QHvtIHb2QjIo8puXJlGLJBMam+1cLNW3GoCd+HKbbspOnBtDixvterv+9y5mSms3ZYAwTvl8pZWF6AxlA5X1uWrUNkWrsQXz92CN75T2/h2Dror1fv7xlYXMGxfAio3HxXhh0SWni6wZYD3C/C3OEo/jmvQ+/KBQoen8eA4arklJNZ5SGyFTOeU6xyTs4jT566cv3CVSKI/fPDo6PDZX18+/p9C4GU66z46OjzY39vb2f7XH/3I43D2915+/ctfPffWCfTsCmEBNT8wOXt1VIxnp6yhkMpFGEfMXhwz0lUFSzpnSoblPjVeJsdJEvroRrK9nmxnbWkFSc5FcuOWRD3RaKXbzXTLq/Fjp/EupQeMQuuFzc3SVi3VTDgz2HmSXmSpF9bXwdtwYb1e2oTyHRlXd713nIzhpEKVWvFWE7h3s/FhA7jnsiaH+heLufVW/X2J0IJBciIhAKreLRY3LdY4laYwmCJKXQRP1Sn0yXTpPtT5pLbx7UzlFltivT6OmFwi2YMFoPUonGnjaBqBwl+qfSsPfUQTOXFcozUKOpM1mtRKE5s1jjhfaadwFXK9Syg3Ts0hz/ZcPXXmIocr+v73//EVi38K/D937ujouKr8k1/87OfFbH7ixvAbX/n6mdffXZtcpK7i565PjF0Y4KPpaWs4b48LkcyZC6MSFDdtiBUs6aQ2YqJrZRhRSOlvxRrteDNnz2hoah6SG9KHnrPYSDUD+hB5kWoUmKux2nphc6N4E041U54ccZmm4RvhXGejeqeWbzfKN+HihoCuuNozJGAq4fJNuHxrvfb+vY3vtMD7fmd2dHAlHqlCwG3UGovP0RcLGzXoXqGw4fUVqDSFWOqgsQwogtLiAQrQB2DrW1Dn41iuQ2SpRuawQ9NonT1Wbj40ujIYikptToHN76RKDwkcM1Fgcacben8Bz9MJdF6DJ82SGGl8tVzvYvAVU3Nr5y5cPXHqvFZn+sUvfnV48Eou/rnE/fHvHx3ubz/d/uKLLz7//O7WbdTSynuvvXHqG28vDE9xcLT5gcn+E71cJDVhClQ8GStXu3x1hjyBCUpdgDOfNydNdK0EJQjIPV3fJVzNO7MGlp6L5HqUnmMd3WokmxFzjIVky6jyagzq5DfWC5twupnzF2kIloKtBVP1dfBWs7zZBm9lwhX0EvnS2UGV2Nys3qlXbm/U33+49b9b1XvRQHlqFOmwxpOx6uwUzqgLNuD7dfh+qbQZi0M0uoJCk6+iBViyOhDvAM2PgeZHleYHnmgVRRYvYpjDsxiJ1p0Fb/EVLixNZfNVoPZ3Asl1DENHlzv9+Y7UGkWxlApb1OBN0YQallgn0znwVN7Y1FLPhas9F66EQrHt7b39vaNXOvqPw/RnzhwdHu7t7m0/3d3e/v53vsuh0M6+9d7J196aHRiXUHnIiaUrb/fQl/AhravkSoXVbsIYYvHylAovzhrjWWNcT1FJUPyQ0lcPV+FItewrWvgmLpJtFVmfs1hPNpKOlAAvZKM41Ri0Xljv5NfhdKMYrrBxfClDWYwCrfJmB9yCCm2z2jU9vNTfO6KVW+HyzQZwu1O7/2DrOw3wdjYJL8zgJEKTXuNdXiAFvLl28/1m40EVup3Ltxgs5eIyZXaRRudZk4U7UOc7QPOjQu2+wZVEkoU0gWYBTWeKDMFUjcBQk9j6YLJVbX1icpcxDK3IGPYXOhyNG8NW6jwptSNK4ir4CpNEa13FUAZHpnsuXBkemQSr8MHB4f7eX2Fc2J8i4GWyF591Q00ODvd2D3Z2/vWH/6yXq3pPnT3x9Tcn+4ZldAELRbl+8hJyZMEtNZdcybQ5zFokTZ0bokxgXDxzTO03ULssBhXeZgRqxGpgoGwXWbhItp6rbyThVrpZT9aznqyUIiUtkGqJ2nphvZ3rwJlGOQoKyGIRTZoLlZqlDbjYCTrjHIpoaRo1M7osF+lr5Y0GcKsJ3rqz/hFcvgmWNhDLFCKOi8dymXR5OgE1G/fbrYet1sNyZZPFUQ8OLU3Pk+W6SA58AG98p9r5KFPZkmg9WLpEbQ2QOAo8U2p0JVfxApbYmijcLMGPROogjqXT+fLeXJMiNRMEWoM/Lda7CWypRGsTqYxzq5gr/UPnLlxBYQj3H7y/f9DtS/Kndv6vb+5lYrEb9LS/d7i7e7i7+4t//2kiEBrsvfreV98YutgnILC0XPn4xcHRnn4TR1XxZNLmsADBWLg0jhpYVGAFIbnLyTOKkRw731T1F2uhStmXd0ltXCRTw1I2UnAr06gnawV/XslQoCdRtQTUybdbuSacqQNxUEyTCCiiXKjQBjZz0ZKQKcOvUQQMKR5B5dIlLagLIlRc32w8qBY6Deg2DsWcm0GPDC2YDL5CrlGDbrVbD25ufQRCW3yh7kLv6NwS1e4tF6CHXSd6/VuxfJspMlK4Sl+iJNE51ogcsdY1j2SKNb5M5U4WuE/hmog8ozNZcySreIGOJjMZ/Sm2wkRgSxRGF1+um1xY7em9dvb8JYFI+n9+8MO9/W59iL8+3v7Ub/RSsdgtnry93+1Uu/f5r35dr1Snb4ye+Pqbl0/0MFFkt9o63z/R/+5FHUMG+nMZS0SEYmGHVygTaMEK3S0wuQVmIYKloykKjhQYKJZ9Oa/SxUOx5FRJI1U7ZhEqh4p6vg45vlaNAZ18q5GB69k6mKzK2QoukZcO5tarN33WEGaZQMOxfLawgCml4tnt2q0OfKeSa7ah27XSRgO6zaRK+q9N9l+bCPjS5WIbrt3eWH+0sflBFdqSyMwXL40uI1mBOFyqPYQ3PoY3vtXVyCwZT2FKlptGd3QBTSVx5PNIusYaLdTuJYtbOLqaJraESuvWWAXLVbGUNo0rShWpqQKF2uphieQjU/OnenrPXrisN1l/8tOf7+52y5X8qZ3/65t7mVjsNm07PDjc3d17uv2bX3++1VpHzC2effO9njdPMtHkkMmDHFsc67mupopL7lTeHhej2fRZnIogEK7SpSi2Ei/grdB0NFnBmWzFq804GDUGhDguD8NqpKB2tt5IQbUk6NE4EeMrWW+qnW9ACaBdaIIJQCvQMjCMoD0EpEEJW4ZfI7nNPjBX00gNOAQJLNS32g8ruQZc2dhs3i9m6xaD7713Ls7Pov3eFARubmy8v7X1IQjdrNa2tHr32OQqliwKpxqVxiNo/SN481uOUH6VwDG4wvnahiean1zGjc6j1gg8R7AAtj+IZNp4hpqr8iRrt/WBDJot52rsAr0Tz5WJdDa9M4Clsq4Mjrx7pqf3ar8/FPnN4ye7e3t/hZl+f5r/l4rFbnTE4cHe3u7T7Se/+eLR3QcUNO7MG++eeu1tGoIQswX4WMb0pWExlp23xzOWiBjNJo4hTAylmaHkLpIZs3jaDFZNFudsMShYhELFuDkoIfC4aGYtDjxnEUoAHo1zfmAmZPJ3Cs1Wrt7MN4rhgl6kZ2AYFpVVJ9HTsAyt1FDJVOFSUyHUrMwhoVKzBW01qzcb4M1b64/yachuDp45dZVE4MQihUqpDcO3Njffh+u34cYdmcIyNLZIpEmjmVal+aja+QhoPdTZw0gy1+KL52vr3nh+Dkm6NjqPo4u9sUq184HVm0dRZGJDIAbelFhDKLZMbPby9XYcRywzOXROL4JI6b1+470zPcPjE/lS6YsnT7Z3d46OQ7r/9Pb/Vc2+ZCwePa9N9HR758nTH3z3e0q+uOetk299+TXExKJHYzMJ1At9E/QFfNIULDgSOpqMNo21c7QhuUOMYCL755ADC3I8P2UOVwMFMJBPWSNyioiNpFdChVYGbqZrz1mc6Zu0yy0bpfZGqd3MNyqxskNtJ62SmDgWYZXIJnHT4VwH2qyXWxqpYW5iqZgG6sD6RuNOC7p5e/1hPlPVqWznzlwVCdSFXK1cbJTLrfX1+6323Vpji8WVXRuYJDNk8VwHaH5Q7XyYATYFSiuBJXbHcnm4408VECRWT98YU6yLF9u1zY8kWj+CJNa6kqFSi6YwoTkyjSfK19pwbJHS6lZbnQso7PmrfSd7ziMwmK07t59sP9neeXLc1/xlUtMvE4vdfI39/YPusc72/vbuzz/996DDc+3MxW/8zVeGL/SrWBK30rIyOIMcXvAr7KAv55FYBGt0K1ud0PpsbA3mxtLshREhkpk0BaFgAQqXso6Yii5lrFLy3nQzXWtlarUk4Nd7Fm/MmsWGjVKrnW+0i812qRVxhFcnV2duzBBWCVaNDSrA9XKzVqxbtPb5yaWwL9GCNjvwVgfeWq/fLuVrJDzz1ImLSoUJhjYgcL1SbnY691qdO4VyHUdk9V4ZJtLEsWwLaD4C24+CKYjCUzJFmnAOKNTXI3mAyBGdvjwo0thL9bvw5sd0gQlNkTliFXe6iuLI8EKlKZziqE14rlht94i1ponFlTO9l8/1XhaIxf/wg+9v73Zf1oODvcPDl8l9eelY3Dvc29vf2TnY2fvNL38Nl8CZwbFv/M1XLrx5modj+LUO7MTKTO+Iji4ruVJ+uZ2/StNRxGmDP6nziRD0uYsjlBlUVOeGQvlapJh3J/RsOXWJkLSHGymwla1BiXLE4sfOIMxiXStXqybK7VLjFrSZ8MSmrk8M9g7IubJ0OAPkwGoBAvNVs9a6PLfmtvk2GrfqQLtd26yVW7l0ZXRo5uSJ8zKptlHfbDVvwbWNTucO3LjpDyURaNLlayNYEj+YgIDmo0rrocWXwtKFEp09DTRKzc14CaLwpWevDskMLrDzsNp5RGCqyBxdKN82h/MrdAFdYTSHU0ylniJSqO1ulkRxY2r25IXeK9cH7W73T3/xs5297e2dJ/sHO69YfFFGyNHh4dH+frd3/O7ewc7u0y+efHT/EQWJe+vLr536+tuUZZxPY6cv4YdPXaPP4cNqt0tkYs0TZBh22uCvOBMuoQ4/urx2fcbEVhTdiZI3WfKlTHw1aQETMfsaKaB9zGLCEaatEk0ibS1ZKYdzrQJcy4BOrX3o0uD0jSm/1VdOl4qpUr3SAPJVo9qEXsXaTc7N5m240qoD7XIOctkDA32jl3qv83kyoNLotG9vrN9ttW6VgaZKa8ES6ONTy2gC1+HPA82HpcY9pdmHpvINrlCxsVFpbyXKNTxTcL5/lKcwlRp30sAGji7jyOwJ4KbKHVtlCIUmt84XpUnVbKVObrbjGOy+0fET588PjY9nCvnfPPlib7/r3+3vbx8e7r2ozXgB675McvHZ4eHRwTGLe3t72zt727uf/vBHKr7k1DfeefvL31genrWIdWwEpf/tiyt9Mw6B3ik0shaIIiQ9ofdUfemkwStC0RevjFFmUA6xPmHxA8GMVawlzqECemcjVWnna9V4Ke2OstFUDUcGRPOVSK6Wrrh0NjaBMXixn7CKSweT5XSpkgVa1RaYr7ptHiqBplMYWtDGen0LLMDlbJXLEi3NI+fn1pgMQSKebzZu3rr1fr2+mc4CDLaIyRHjiCw0gWuwxyuNh4XabYHKimOIXJEs2LkFdLaiBWAJR7kwMI5nimPFujtSwlAlIo0nWb0pNvswXJnaE5XZfCShQmywiXSmRSz+yvDIyQsXphcXGp3W093tvYPdvYPtvf2nr1h8Aa/M8yWPjp4ds3iwt7+7vbO/s/sfP/25y2y/8N7Zr/6/f9t35pKMLmQhyH1vX5i+MGRkynwyiwBBEyJpUY0T9KVytpCeJl67Pr1wZZSHpPpV1oInZhNpyfMon8bWZTEH1RKlzDGLUiq3GEyXwum0L8YnsxHTy6NXhzgkVjrUZREuw02wBRVr6UiGx+AL2KJauXln40ExDeRTlZUFFJ8jpdN4FDLb64lA1fbt249qtfVwNIsl0KUKvUimw5H5KoO/DN/NApsskY7CkYczALR+B2jfDKYKUyuYKyMzS1i6M5RVWwIYqlhhCiSADZ7WQRJqzMGMUO8g8mQKq5uv0k2tIi4N3jh18SICh7v78MHT3e3d/Z39w53dVyy+MBKPF+6KxoPDg4P9vf3dnZ3PP/u8WW+MD4/9z//nf7z19deZOAobS526PDjdO8hDkNwSvRhD560Rwxob6E9m7UEjW0qZRdAXMWIcg4+iaOhCFU3AXiN4FMZ2utJMluuJUsoeFBIYXBwlZvfZ5DohmS2ictV8OX4ZwyIwIq5QKVmCirWt5q0W2Al7YhyagEZkVYv12+v3c4mSQWVZW8L4PRGt2ry2igv44+US3OncabVuma1eHJGhNzlNNh+FLhLJTLliO5IAaCyZRGnJlpuV+lah2nb4E0to8hqBuYCmSLUOKldB5Smd4UK83GHLLTSxweRL89U2qkAtN7nYEvX4wsrp3ivnrlxV6g3//ONPH+88ebLzZO9od/9w5+jolR/94ng8PDo6ODzs0niws7vz+MmTjz76CIVG/6//70t//+W/Q8wvswiUldGppYEx8uyqjiEQYajMZYxXYaz44jlnyMJXsFfxSgrXwlcwltD0RRR7FU9bRFkFymaiWA2l4Vg+5wrreVI2hqhiC8jLKDqKGLZ5S7GckMajosg+i7eUKoN5aKt5u13dCDgjHJqQiKZBpcZG41YuUSJiaBQiq1SAHDbf9NRSNJIpFqBGfXN9/a5QrCJS2G5f1BfNSo7aAAAgAElEQVRMMFhivkCdSAJOV4xCExlMvjK4AcBbuUpLa/YiCSye3LCCo1O4siUMlSXWhDLVQAqkC/UcqVXniHOkZrbEqDR5aHz50PTiu+cuXhkcDiYSv/riN493nz7eebJ7uLt3uHP07BWLL4jF4/yrw/3fluLf3dt7urP9vX/4B75A8O4773z1y3831HedgsKipxew04uk2WU+gsBHEmkLCKtAUfREyr6YW6bjIggaOj9qcJh5MgmeTp5dWewbYa/i4iZXWG/Lu0JJm1dIoM0PjmJnlxhInFNjqsTzxVhWJ1bTMBSX0VXNVcE81ATajUo7EcwI2TLsGqkOtJvV9VggtTi9Kpdom/Cm3xsdGZ6ORbPFAlSvb0JQB0egUxn8RLoUTxXZHCmPp/D7UxqNnUYXOVwRsLZZb93JlRp8qR5D5uhsPiyNt4qnjy8gOVJtNF81eeJElkKkdqnMIRpPI1LbdbYgiSXuG5l671zvxOxiGap9sbO9vb+7vbe9s7+9u//0FYsviMTfhul07/yfd4k4PNjd2/uXT//V6XZdu3rtG1/92vlTZ9CLK7j5Fdoyir6IpMyuMpfQ5JllA1tU9IRrkXRQY+YhCSoqp+SNlH1Rn9JAW0D0v3Nm8EQPexXLWEKJsBQuijB3ffjqibPUVbRDqStF00AinwkkHForFU22qi1wqV4tQECuChXqxWRFLlQjFjFwpQXkazqFaXUe5XWF1lu3Y5HsjYGJYCBRKdebjZuhUGppBcMXKYuVeqEMC0QqNkdqNLq5XDmLLQ2GM7Xmreb6vWQWJND4FI7YE0kf61/E4OSCRGdNA02ZwYWhihTGgFjjJjClSqPX6Ayjyeze/uEzF69iSbQ7Dx7uHh7sHR3sHe7t7D3d3n38isUXxuLh0XOh+Lz6+XN1/Ytf/kcFBKampt55860z77y3NDGNnlmkr2IEGDJlZoU4tYifmNcxBSVvpJnIRw12HpIgwdNK3kgrWcjYfSoqZ/bywMjZXjmJqSSzlRQ2B0XAzS6OXbqmF0hKkQSULoCpPJgu+swu/DJGJ9HWy/VaCS6lu5q6WoA1MsPS7FolV01Hc1gEQcAWF7JAE17PpEsjw1M2q6cGtZutmxKJeg2J15scJaAOQG2l2sxgiIRCNZHIFoo0qQxQb99utO/4Quk1LFWkNMZygMbquT4+Nzi5oHcGio1NvtKMoYq0tghPbsbRhFqrX2/zL6NIPZevX7k+LFPr/uEHPzx49uzg2eHB0f4rFl8Uhc/XPTrshi8e7Hfb5nRrtz17dnh09PjJkwcPH6JQqNMnTp4/dWZ2eGxpZJK8iFDTuKwlNOLGBGJoUkPnlX3RRjwXNzmFGDIfRUyYXY14Dgwmoga7CEdhLKHAYKKdKtZj2aTd49HoF26M2OSq9TLYyJcriUy9AMTcQdwyWs6V1gpQA2hWsgCQA2ulukljXZxejgbiTot7anQ66Ak3ah2wDBcL4Mz0okKurcOdarWBxhBpDG4wnMyXqmCtZTS7KFQegcBEo6lqja1QajQ7d8HahsHiXcPRTK5QulJ3BBN9ozND00tWfzQPd9gSLZktMzqjbLGOyBBrLX6Zxjq1gOi51DcxuxiIxv/9Zz8/eHZ08Ozg4Gh/b397Z+/p4St78QUh2S3e9jsWuz1gjt2Ynb3dH/zwH9ls9ql337t6oXduZHzi2gBuetHIlQjRpIWrN+auDCjIzII7WA0l4yaHnMTgIfF+laEWSTfi2ZzTr6KyqfNrZV+klcy3UvmCL+Q3mNbGJ+1KVT2br6ZzlUS6Va4m/RHcMkrI4JXTpQ7Ugct1IA9CJdhqsC/OLBs1ZgFbtLqwBhSqneYmWIaBCry6guJyRCAAx+KZ5RWUQq3PFoBsEahUG3ann0hkLiygkEiS1eavVNvNzp1MARJINCQGP5wq5qotTzQzMDE3ODmvd/kD6QKVL2NLtCZXhCVSM/hKjcnN4suHJ+YuXOlH4Um1ZvuzL77YP+wGdO8f7O0f7O7t7xy8ugN8QSweG4xHz+Vi12Q81th7+/s/+dlP1Wr126+/cf3y1aXJmcGeS6jxWRNPKsPTZ3v7R85cEGKIaZu76AnGTDYdkydAE+wiedETBALRhNmhorIoc0t5lx8MxlqpHBiJO5QqBgrlUKkSLlc5nmiXgS24lQlG8asoLoWZi2U2Gxvr8EbXasxX7Sbn8twql8FDLCGlAlm1BLUa663GOlRtYNAEOo2dzRRNJjsGS7Q6PEUAypWAEgi7PEEsjjo6OotGk72+GAC1m53boXiWxOAJZJo82CjCbWcoPjyzeHV4QqwzaexuLIMr0phMrhBTqBTIdCq9DU9h9Q+NX+4fZPEEDz748MnOzu7+3t5+t2/dwcHe/v7u3t7Oi9qLF7DuS3XvcqyVD7uZHPvdSuhHh/uHB/uHB599/nk4HD5z8lR/75XlyZm+0+eXbozpWAIzR4Ienho5fYG1gooaLHmXL2lxWPgSEY5kFUpLvhAUjhe9QYdEwUVgck5PNRSDY0kolsj5/TwCQcFiJt3udrnSqYCtMlhJZpl4ModMTwbjG431m81NIAeWsxWP3bsyv7I8t7w4sxj2hcEiCJahjc5WDWrQ6WwSkZpIZLg8IY3O9vhDhQpYgWCg1vAFIyg08caNCTqdF41lK9VWvbXl9kdRBKrW4qzUO3moaXL7J5bWLg2O0EVSmlCCJNPVVofO5qZxxRKVQakzo/DkqwND14dGtUbT93/wj0+3t3f39rqe3d7uwcF+9wx2/9Ud4At4abpLHrPYNRKPa612P591x87e7r179+ZnZi+dOz83MnH97MXR81ekBHrK4tYxeAvXBkiz8z6VpuQLZJ1uu1gqwhHMAhEQCtei8Wo46pDIiDNzLpliPZtvp7NAOJr3B7h4HBePK0cjrWIRzuWgXK6SSvOodB6VEfUF60CtWW2UMuVSthz0hFbmVy+cOU8n0aolsA7CyXiq3ezAcEOj0a2uIsLh6OoakscXBiPRbKEIt9r19no8mUWi8EPDEzq9JV8ESwAMNdZNNvcahuAKRsDWerxQFml0yzjC6PwiikKbWUOiKDSrLyDVGIh0tlxjkKq0C6uIcxcvjU/NpLO5n//il48fP+nGcj+3ow8Ojw4Ojw6PXtBWvIhlXz65+H+zuLu/9+1vf5tKIl/pubA2Mz92uf/GmYtCLCWmtzlEcvTYBHJkzCmVA8FwzuWxi6U8FEZFYxS9/lo0DoYiLpmcPLdgE4nb6WwrlalGo8VgQEQhsTDoQjjYKBTgfP6YxZSQwWSTqCG3r5wtlLPFBlCvA3WH2bG2uHr14hWVVFktAU2onsvkgTIIw7DN5picnBIKRUvLK2qNNpXN5ctloAaDMJxM57A48sjolMFoK5ahSrVeqTbkaj2WRHOHovDGVrJUQZAoFJ5AoNJMLq9eHR3H0Vkmt0eoUDK4AqXOSKIxTp8///evvTY9Nw9CtV9/9vn29nHHyecsHidfHb5UaQb/HVjcPzz48aef6jXa/t7LmIWVhaHxgVPnuUhCWGuJaE2M5dWFvn4di132B4pen0sqY68hRDh81umCY3EwFPYolPSlZQOH20ymGokkFIuVwkEFk05DrGb8XjifrRdytXy2kkrKeTw6Du80mcvZfCVXhCtQp952WZ3jQ2ND/YMhnx8slVtwvQqAqUQSgqBoNDo4ODg1NbWysuL2eipVsAQCRaBSrlaT6SwGSxgaHtcbLBUQrjXa2WKFzuHTOLxQMl2uN6O5wiwCKVRrQpns9Bri1KXLJA7X6vWx+Hw6h6M1mohU6runTn79G69h8bjbd24/ffJ0f2+/KwiPnj07ODza2z/Y2T3Ye1Xb6UVI8D+uow+ODj/77LNYODLSP4CYXUBOzd84c5G1gonqbWmLU4wjzF29xlpdixpNlUDQr9awVlcFGEzG4ajH42Ao5FdrOAikkkqrx+NwLFZPJivRkEHEJywuxF1OKJNqlApwIVdOJvVSGRWDMas1daDarMJAvgxXIJvRev5Mz9TYeDlfqBSKLbjebjTDwVC1Wi2VSkNDQ+fOncPicYlUEqrDFahaAgEQroWisYWllb7+G0qVDoTqrY2bsVQWhScKZcpsBYzl8o5gGEmmyAzGNABSBYJTly+jqRSjw87kcXkiocagR+Ox75x878Tpk1KZ9Hvf+97+/u9AfM7i7v7B9u7B7l4XzZfk338HuXh4dPT0yZM6VJufmJoZGkXPLo339lHn12IGe8bqUlKoS9evI4aHDBx2yeeNGPQcxJoIhz1mMQaGgiGdTojFiHDYWjRSDYcaqSQQCztUcszsVNhqAlKJRjF/zGLcpJRTsWiH0diCoBZUa4BQNBCkkciDff1zU9NAsfScxY3OeiQUrlQqMAxPTEycOXOGx+dn8zmoDgM1qAJVoUbd6nCMTUxevdbPF4jKQLW1sekJBFdQaIVen69Wo9msymLGMegamzVbrcqNhktDN8bmZ/E0MoaEYwu4dDbjat+VL/2vv+k5f9bjcf37v/3bb63Do2Or+rlcfMXiC3wJ/4jvcvis24324w8/IqIw185dQM8sLFwfQY/NBtWmjM2lZ7HRY6NzV6+wVlfCel3UaBDhsCIcNmm11ONdFmMmo4xEZK+tgqFgJeBvZdPVRDRg0q+Oj/gM2nI82ioX64VcKRGzqJVULNrvsEOlEpAvbDbbCpFkbGiYw2AuzMwmo7FiNtuAajc3NlKJZLFYhGF4enr66tWrRrMpV8iDcK1ah6t1uAQCUrlidm5hcmqGSmMk0xmwButMZgQOZ3Y6u7c5NYgrlyFIREcoWGrURVr1+NL80PT4hau9Zy+eG5kcvTFy46133vzK3395bHwkn8/9+le/enZ49Ozg8Nn+QXd0WTw43OnGMb6Siy8GyD/O4sHBwS9++jMJT3Dym2+uTcyuDE/MX7th5ogzNrdVICTNziwPXEePjapoVJ9KqaRSeChkSKetx2NAMJCwmFU0Km1xAQgGygFfJ5eBktGYw7I4POjSKAuRQLtcqBfzpUTMbTLQcBiDUlnOZiu5fMQXwCHRJBzeYbEuzExbjcZ8KlUDKhvrbRAoZ7PpahUYHR0eGxsJhPzpbLpah+B2vdqoheIRGpNJptKoNAYOT3R5vNFkiisUEen0UCJRbbfyUBVDo2Jo1FAmXYBrFD4XQSEQGJTL16+cOPPewI2+64PXzp0/ff7iORKZcPPmxtOnj7snODs7+9s7hzt7z/YOnu0fHu11xysWXxSL3dOc4/H8c7975XV8snN4uLuzq5Ep3vy7ry2PTq2OTI31XJESaFm7xyWVUxcW0GNjywMD9KVFp1SiZbKYKytuubyRSADBQMpm0zAY5Lm5st9f8vk28rlaOpFyO+ZvXHeoFPlwsF0pNY5ZDDsdVAyaSSQCuXyzWqURCPOTU+lY3GWzzU9OycWibCJZLZc22512q5FNZyrlUn9/3+zsTCqVTGfT9Wa9td4CYMhss2LxeIVKrdHq0RicwWh2uj0kKo3NFxRAYOvB/VAqNYdY4ynk4WwmWsjjGHSagGd228l0MpaAEYi4OAK6f+Ba7+WLbDbzww8fdU+2d3d2njzdefL0YGf3aO/g2cHRs/3j8cpefBEwdtOjj1E8ODraPzraf3a0dzz2jw6fbm//6j9+WchkJwaGpvqHMNMLExeu4ifmPTK1T6HhrCLoC0sSHJG+uEyameMh0CIMzqtQdVKZdjKdtTt1DBZxajZttbeS6Y1cfqtSzno9a2OjWi6nHI50SqVWoQDncgmPh7CyLOdxwVzWolEhFuZ4VGohmbRodQQEWszhp4KxXDK91dlswfV0LKVSKM+ePjs4MGi3OxPJ5Nat27fv3i2WKxwen0SiOJxunc5IIJAMBpPFakcg0QazNVsqlaqQzmxBEQhKoyFXBWUGPZZG1dqseqsFg8MymXSZTIpGo3p6eq5du+Z0On7840+7t6PdLMluZOfRQfdv9Ozw2W/HKxZfCIvdIJQugs/HcxB/+/Pg4MnjJxvtzuLkzLUzF5ZujI31XFnuHzGy+GGNQUYgMxZX9EyOnEjBjE4QJmc4q0iHSLqRybcS6ZzDbeYK8BPTXrkKCkdbqQwcSyRsdvTEpJrJrkSi68Uui418PuHxUJFIKYsVdjkFdBqPRkmFgkA2U8lkqBgCj8rKx9LVfKUJwg0QruTLZBxpemL6et+A2WTNZnOdzkans5FKZWh0Jo3G8PuCVouNQqFJJDKlUo3B4l1ub7EM5EplkVyBp1CsHncBqrLEIjyDbvF4lDotGoPh83lSqXR5efnMmTMjIyPJZPKXv/zlf/61n/su//Xnf879tf/vZfKju+bi70D8vVB8zmKX0b3973zrYxISc+6Nd8d7r42cvTR65iIfgQ2otDoGm7W8ZuULXRIZbX5xqe86anhMQ2PAkVjZ609b7U6xlDI7b+ULm4nUzUKx5AskrDbq0pKKwSgGg/VMBk6noVQqHw6KGTQehcQlE9GL8waFtJSK5+NRIJtlk6gkJBbKl9ahZjlTqAPVQjo7Pz0rFUsH+gcMekOhUICgGghWPR4viUzm8fnxaNzv8zOZLBKJxGAwqFRaOBIBISidz1EYDAqLEUklskCJyKJTeWxnwCeUinEEvFQqFQgEk5OTZ8+eXVtbq9frn3322UtW3O6PvBQvH4vHYVH/qaD3juk8ODo62Nv/t3/5VCWSXnj7xFDPpeGey5feeBc1PG7hCQ0sjgCJsfAEMYNJTaUvXuufPH9RjMWXvf6Cy5OxObxyJWt51cThbeaLt8uVajhS9PulZLKMQkm5XJVIBEzEy7FI2u8VM2grUxNTg9cJa8tBpw3IpdvVSimZkLC5y1Oz7ePg7Eq2y6JJq5ufngkHQ6PDIyqlKpfNwTAMgqBaoyEQiVqtNp/NJeIJgUAwPz+/urrK5/PT2QzcqEcS8TU0iisWlmvVaDaFIOLYEqEr6Gdy2RQaRaVSMRiM/v7+8+fPc7ncR48ePX78+KUrKfYHaXzZWDy+g/69pv6tvfjsaG9/f2d7+7P/+FXY4+vvudh/+vxwz+Xe19+Z7r0qwRG1dKYAhdEz2SmLLajWkqZnx8+d5yPRZa8fCkUqvkBA1bUpNTRGJ52txxP1eAKMRPRcLhuJjFgsQDTayGahVLIYCSt5nLG+q4vjowaZJBsNbcDVzTpUSMR1Utnk4HAbrLXBWh2oAvni2tIyGU/IZ3MLc/NCoTAaja6vr0MQxOFwiCSSx+upAmA+l5fL5aOjo5OTkwqFolQuwY260+tZXF1RGXRwp+UIeFdwaLFGafO6KQwal8fTaDQ4HO7ixYt9fX0Wi+UHP/jB9vb23t7LFAPxB0F89uzZS8jic/flvyjrrr4+PNjZ2Xn8+W9q5crU4MiFN9/rP9nTf+Ls5MUrzKVVBYnCWl5VUWgpiy1ttSvJ1JXrg+SZuYjOUPb6AX8wpNEJUBg5kbyeyZZ8fjAULgcCRj6fMDsbsVgamcwWCNSzmWzQz8Jjb/ReoGFQUY8TyKZuNmpwqVBIxK0a7fj1G5V0rl4CWhDsd7pv9F83aLSFbI6AwzMYDK/Xe/PmzVKpRKaQmWxWKp2q1+BSsajVakdGRsbHx/V6fQUEqjVIrdOuopBOvxdqNWQ6NYpM0FhNapOBwqApVEqlUrmwsHDu3Lnp6el0Ov2Tn/xkd3f3lVz8Y3y/sOfHuVddj/F3OP5eQO4fHXaD9Z4+/eDeA+Ia6uTXX+/55tsjPZfm+waIM3M8JIo6Ny8jkmIGY9bh8MhklLm5xb4+MRbnlsrSNltYp5cSCCIMdqtQKPm6Jzt5r8ciEqImxuJ2W6eYXy8VEy6HRsCdvH7t6tmTbBIuFfTWy7mNOrhZr9aKeYfeMDsyFnZ52lWoksuzKNSlublEJFIuFoR8PpGAdzodzWbD5/MSSQSFUl6plOtwrVjIm0zGmZnpqalJk8lYBsrFcpEj4BGopFgmlQdKZDaDzGFYvA6eVERnMy1Wi0gsHh0dPXv2LAaDabVan332WTes+OUqzP1HAHmZ5OKz5yz+/nzx+HDxuU99cKym93Z3P/2nH6mEkhNff/2tv/3q8PlLqyPjuMkpytwcZW5WSiAE1Oqswx7W6biItYnz59duDIpx2IBaFTUY5CQifWFhI5sBggEgGCgFfB6VAj05lnTZG7l0IeRXshkUxDJiZmJ2eEDKoVcyMSCXgIrpdRgAcmmHwbA2O29Squ501kMez+jAgFIqrRTytSqg16oxGJTL5SgU8hKJmEQmWm0WCAJrUDWXy9hslrW11cXFebPZWCoXMrk0kUpiCTjFajmWSaxgkRypwBnykllUFp/j8Xk4HE5fX9+5c+eYTOb9+/e/+OKL/x5C8SXT0d3ulL8Ny+t2iO8y+TtN/ZzFnZ2dX//HL4Muz8UTp7/5pb+7evIsenKaMD2NHB4iTE0IMSiPXFryulNWs4yIX7sxQJmbEWJQEjxWSSHxkGuUuelWMl7yecBwoBz0+TQq3MxkxGIImvRSOpmBWlVyGFaVjLC6IGSQqvlkKR2p5GKtaiGfiLjNJsLamkoorBUKRrVqfGjQ53LUq0AVLPt97pWVRYvFGIkEyRQCi00Phv0gWKqCpXwurddrZmYm5xdmbHZzrpAORQIoHEqpU4KNqjvkmUcsKYxqZ8iDpeAFUpHVbiORSFeuXLl+/brBYPje9773+PHj/x7G4kvF4vMLwO6V6/Mo0cPnLB5nvnXPHff2958+ffrkN1+AhdL4wNCbf/fVc6+/jZyYoi0urN0YQAwNMJcX3DJxNRTIuxxaBpW1smhgM8w8NnV+FjE0sDrYv3bjejUUAMP+eiJSjQajZgNuekLJpHBxKMLSjJrLSPkc+YiPil6mYVdLqTCQi1ULiTZULCYjIZeDjsdyqeR0OEgn4ekkfNjvadbAcimXzSTmF6Y1WoXFasDhUVKZKJmOlSt5ECjmcimJVHBjqH9mdsJiNSRTUavdhMIhrS4L2AD1Nv0ydsXssZq9VjQZI9coVBrVGmKtt7d3amoqHo9/+umn29vbr+TiH9H5L+7xf2XxGMfficZurtvB0eHO7m53Y3Z2H9y+i0eg3nvt9RNff33xxjAfjcJPjc1dvoibGHFJRbVIoOC2GzkMztqSictM20wWPpu+ODd35eL1d9+0i/lhgzpi1HjVMquYN33lwuroAG1tQc2lp7w2KBMtJ4JMPIKCXspEPGAhDhWTbShfzsRSIT+fTkXMz8T8numxYZNWlUlEGlClUs5XyrmlpVmpTMDm0PEEtMGkyRXTAFCAquVkIsLh0ienRuYXphRKSSjiU6gkZDrR5XcUwIJQIcRQsa6IR2aQYygYrUkrkYpnZ2dPnz49Pz8PAMAvfvGLnZ2dbrbF0ctzu/LHCXl57MXnLO535WJ3HAfQd6++ju+69g8Pnu5sdzdmb/+ff/CPKons4skz737tG1PX+hRUMmdtabzn1FL/ZYeYB4V9eZfVKmCzVublJCwY9AABt1smpM5PXX3zNerCtJiIEuKQ9JU52vLslXe/OdPfaxCysn57KeoFUqFyMiik4ynoxYjHXC3EaqVEE8yC+XgpFVMKeeMDfVqpaHpsKOC2Vyt5uFqCquUqWESjV5gsysLiNJmC8/gcZTAPVksQVA74XTQaAYVeXkMsMVkUm9PE4tL4Eq4/4o1loyQmkSFkBFJBupCBo+NNdhOXxx0aGnrrrbcQCMTW1tYXX3yxd5zg8sp3+eOEv4iZ37O4d/hs71hTH2e9PL/u2j882Nnd3d3b293d/eXPfxENhkb7B09+443Ry5e0bLqCgp+8cGaq96yJx6j4XXmX1asQCzCrQsxqzmmu+F1Ro1pNIyz2XWIsz2pZFC2bqmQQhQTEWO9p9PRw0m2Gs9FcyFmMecupgErIoGIW3WYlVIzB5US9kqoW4mA+ZdWp+i6cW52bYpDx0aCnCVcatXKzDoBAnsEgriEWB29cY7EpiVS4CpdAqFip5GxWPYWK43BpJDIWg12VKUVYIlJjVEbTYVfQsYpbkeokgVQQQ8NQuTSzw0ylUS5d6n3nnXeYTObHH3/8/DTnlR/9InD7k2s+Z/E5iMcsdkNRjuXi8czR/nEa5tMnT774/DftegO9snbu7XeHLlxQMihmARMx3DfVe0ZJxWWdpoLbGjEoxXgEZ20halDl3daUTe9VipgrcxIiKmbWxC3aStgdMauJ8+PExYm011LLhMFkEEgFKqmARS2kYheNKl6tFK9XkrVyAszHgHwi4DSffef14f5LNqMmlwxXK7l2A2y3wEo5I5FwRscGbgxdlcp4+VISblaAai6dDqvVYiaLpNPLBULmKmKeTMMi0Et2jzlVjGvMyiX0vMGpswdtCNKaQMHXW3QoDOrMmTMXL140mUz/9E//1E2GPC4u9Eou/kl0/uKTv2dx97dy8b+yeHBcKH3/4ODx48dPnzz9zsefiHmCi6dOXzt9io9FuhUiAWZl6folDmIhrFeUfPa4WSPGI1ircwmLFo75KwFn3Kzho5d5qKWc25L3WNfzCTDqVdDxpKWpmENfifugdAjMhIB00GtR0XBLcgG1Vo7XgWS1GANy0XImGnRZXv/7Ly3PjkcDrlolV8jG1lvVZqNSqWRUavHVa+fn5sfNFm0JyNQa5TKQ8flsQiFTIuV6fTa9QY5ELc4vTSKxy76wKw+keVL2Gn7ZHrDKjTIsHaO1amRq6ez87MmTJ6enp/P5/M9+9rPf1hU6OHjF4l8ctz+54B9h8dlxJZOnO9vbu7tdV7r7ufuzn/zUZbX1njl79s3XifPTfo3MLubip4bxUyMumQAMuZNWnZyM4aOXk1ZtLeotem0Rg5KHWmIsz9Ri/noy0EiHm5mITyslL0+FrZpKzFuOecsJH5AORtxGGm5JwMDWyvEGkKoWotVCrJQOW7Syr//t/xSxqZl4sFEtVoqpJlwGgRwI5lRq8aXLZ4kkZCQU12IAACAASURBVCjsLlUyIFQoltMGo5LFIhlNqmQq5PZY8ETEwNBlPOn/b+89w9q68oXf7/fL/Xbfe99n2pkcJ5PJJE7iuMUFF2x67yA6EqhLSKKKIkAC1FGXEGqgipBAottxEieO7TQ7zqS5dxtjm6beuK+0MjqMz3jambExZj9+8NZW2av89r+t/1oLphrqt44PY+vQKCJcqhYTyLUEcq1oQNjc3pSRmb5nzx4cDnf69Onl5WWgo8PxrU3f5a+y869+E7DojwhFX9h3CWfVR/ogGAqtOB0ulyu8VILXG/AHPC63SW9IOBy7/Y03StJSJLQOFauXUAapSE1g1ONH5UJtX28XrrquPF9GJVv7+dZ+nkHAoOIRxLKCae3AjH7AIufPGJRDfAYsN1XU3TZtVE2bNGHRaFBo+3kkZEUjvmbKop21GyfMQ5OWIfOgtLG2Ztfbr7Oo7WMmnd1imh0fnbSZR4aHpibN7W2kw0fer2/E6vRK6+iwzW4Zseg7u1pqaxFiCdc8otUM9hNJ6CPxMXgiUqOVD48aYMgqUhNBrpHBcTUtXeR+tQxPxB2JO3Lo0CEajfbTTz+FA1hOp9fr3WTxX43a3/N7AMdAOKX2538RFkOrq5F18MJ/XC5XWFr4fJ+ePAktr9j25lsJ+2PaamsFVGptRVn2wf3ogmwZtVXH7WE3YAnFWax61LhScFwvt8i4fa0kVGG6UcS0q0V2tWjWqNALGdDsRG5b/aROMW3UzA4P2XVKrZTXiK5pwiKnzIYP7NZJs37MoBQy2yA5cVmJh+vQ8BmrddRgHDcPT4yareahqXEjvKYo5sC7BCJ8YEA0NmqdmpoymvStbQ34WrhU1jc6ZjSaNC2tdYnJsXgCSj0oF0sFkJKC9o6WAWU/Couk0WlcHqeouGj7ju25ublDQ0M3b950RQ4Q0/l7Gm/9f+bFiemAtlybJbompgZkg8/nC0vHyHHhm2/ITc27t+98f9t2eGkFs72jHg7POXywPCWBhkf0U1sELbX1pdl0QvW0RvSBQW7p5wo7GqpzklTsTptKMK2VHDMOGEQMeF4Kqxlv10in9Kpp46BtUGFWyJoxCEJ11YTJOGu1jGoHdXJ+PaakoiABAyuuguROW6x2o3lyxHp8fGx81KDVCCvKMhLj38fjoGIxd8xqnZ6aHRgYqKvHNbcQNIOyMZtJq1M0NRPS0hOqaypk/SIWuxcKq+ByWVKZBIvDMllMJpORX5C/ffv26urqEydOPHz40OMBkYMXbWfepz8TLxqLT6kJkIueyAG2xrp27ZpQIDh6+Mjbr7+Zk5RGbSS31xLK0lLKUxPqK4p6CYi+JmxTZR6DWD07JJ7SCIclLGFnY0VGnKy31a4UTA+FWTSKGbiSrJ46lFUhnNKrJvXqMc3A2KCyvRaLrSwzKuQTJoN1UM2kNEAhSZSGGha1KT8tcdw0PGGyHBuzn5gcH7caurvqa6C55aXpWHSFQMCyWizjtkkGnY7GVDNZndYx/ZjNKOvn4/CI/IKsIkgulUZpbWtqaCAplQNMJh2FQrLZrK6uTjC9taWl5bvvvnM4HE6nE6xD6fNtEBw3AouhUHhOanifjcjh9/s9Hs/Dhw/tdnthfuGbr/3+8Pv76+DoDiIJVVQAz0nHF+U0lOdT0ZXNlfm9tdDZIfGYnGMUMSS0pvK0I3xKvS3MovSYccAsYzdWQyhYqFHMmTaopg0a+5DSqpbTWxrrENViZu+oVmNS9iPLcwmIAu0AY0jOSzt6wDKktYeTx0ZnbaMmrRyDLK4jVTU3IuA1EC6nZ9QyYjaNNDU2otDQ/gHe9KzVOqpjc7oRyEoEElpckl9dU1leUdLR2T44qG5oqMNgUGw2C4/HHzlyJDLBRXTr1i2PxwNG/wKBACDyKQ/pi3R5w7LocrnOnTtHxBN3vL1tzzvbK/IKmlFoYmU5oayooRKCL8wgFWfVlWZ3ocsnVXyLlGkUM2Q95KrMeHojxqbgTw9Jj5sUFjm3AwdrrC7W9PXMGNTHhodmTINjg3IetbUZi+D3dBgVMnpbY1VhqoDROGtTGdWipEP79QrFhMkyMzo2a7OKeT3VlblMeiO/j1JVmdfbQ7GOjKgUqlo8jlSH0epkUzNm47Cyk9qMRFV2UVuIJHRGZlJi0tFeOk2h7EehEGRyE5/PKy8v27ZtW1FR0ejo6NzcHLBDwKBLYDOms66euLU6GshFr9d788ZNHqcv7mDsrq3vZsUl4ioqSVUVjdUVXdiaxooCVHYCKjuhBVYw1s+2SlkjMvYAow1dlNGOqQJy8YNh5aiCx2zC4ktz5IyOWaN6dnjwuEU3ax7i01qJNeUCeoeU3V2Wk9ZehzAPcadHB1QSVlbiYQmHM20Z/Xh66pjd2k6uxaFLFAOMoUEeDJbf3t5g0Gk5LE4tHtvd02YyK23jeqVa2ETGk+pQsn4eh9uTnpF4NO4gyKXAYFFcLlso5OfmZr/99tb6+vqzZ88+ePAAGIsgo3vTj15XKK5GfRewfDIYjVhcWLSYLXmZObu2bks9GIsoguBKIfVVpcx6HJOEwuallMbtJRanG/k02wB3TMFXsiiN1cUNMIhNIZgalH4wrLKphIKOBkR+qpjWMmtUzZhUM8PqYxadlNmFqSgg18Lb6zAV+WkaCWPSIrUNi5ViRmVhZnsdadw0/PHMtFmrQlVDOtqwRoPANqbE4yvq6zASsaitpbWujiCVca1jQ5bRQYGol0Cq6aQ26gwKhUpcUJQVn3CIVIclEDEodI1IxKN0tB49enj//n0CgeDKlStLS0veyLHJ4vqiMFqayCaqYUsR2PI+n8/pdJ786GRlSdnurdvSDh+FFxbB83OxkDx2Y62iu7WxIj977zvonIQhNmVCJZhQi1Tszg4cDF+Wa1MIpwZlHwyr7WqxtLsFlp0o6Gw8ZlLNmlS2IZldJ9dK2biqwpTDu+Gl2Rxqk80onbXJ7cMio5pPRFbCIIX6gYGZMSufSYXkJ/E4rWaT6NiMrq0Ni8PCerq78DhcU1OdTj8wPmk0W9R0ZhsaW8Hp6zIOK1UaSXll4dG4mJzctOSUuLJySE9vV1kZ5K2tb6SmJpnNw/Pz877IsLvL5QIsbo5HRxlYLydgtjoYFgsv7B0x6i/+8BO1rSN+/6GUA7FlGZnl6ak1OenMepxZyBS01FanxdZkxIraCaNyzpiCP9LP7cRXV2TEGYXMcZV4clA6MShVc2joogwepf6YSXV8RDOi5FvUwtEhST26/ODOP+BriqxaybhZNmWVTFmlVr2ESiYWZ6UPSqWjBi2yqhgFh6gVzFGrbGJcSaUS0ZhKIhGHRqFoNMrwiHpi2qjVS1va8LjaKomMpTP08wQ95RUF5RWFxSW5e/ftSEiMLS0r3B+z+ze/+QUCCfvii88dDgcIFESfuk0dvV4QfKIc0dGwcDpZKPRwbl6r1BRl5qYePlqUnFKYEFeRmtBTi7JIOFpOVyusqDxpfzM0X8vptKuEY0p+C7Icmp04IuXOaOU2lWhcIxns68YWZ9EbsfZByZRBPq6T2XVSJZ9aWZAYt//t7lbs5Ihi1CCcGBFOWsRjJhmvtz03JcGoHOgXcCA5KfTuRotZarPJ7bYBLrcVjiiBQPKQiBoul24ZHRyf0ssG2LVEWBMZM6DsG9SKu2iNSHRFd29bQxM+IzMxvyAzvyBr9/vvvbX1dTqdduPGdY/HA4xj4LJE6/tEO7yILzeCH/3Udg+tuhzO4xMz6MrqvKTU0oyMvCOHC44cpKCgBl6PnktlEuGwtMNlSfsZdQiDsHdYyqJgoRhI1rCYPatXjmskU9p+vZBBrMinkhBmOXdcJx3XSVUCaj0KknZke27KPgmnZdLSP6LlTFqFYybehGVgQMhIiY0ZVisba9HIqiKFjDE1obbb5VOTaqWKBYUVJCUdQSKrJZK+UduQbULL6etAYUq76c3qIaFCxW8iY8mttXIFv72jEYmqJLeQEMjKmAO7ExJjtVr1/Pyczxee9bfxQHyh5hg8lbinvxFaDfj833zxdUdTS0lWblVuXmFCXGbM+3XlhRpGh5HXLWmvIxZnFB3dTSzNotVWy+ltbHItuijTJOKcGB6cHJJNafuNYlYLsoxWhxjuZ48NCiUMch2isBqSVJZ3BF6eKhe0z44NjOjY02Miq4E7NarUK/lJh/bKuKzS/AxKM141wDxxTDc5qZiaVOr0Aig0PzHxEJGIU6kl9gmdZUxF6SIgMcViWa/OIBFLGbhaaA+dPKDkEUiIWiKCyeqqgZfv2v1OeQXkgxMzS0sL/vCK8D+z+PSav5DvbHC5GAoEb129IeeLKvMLYfkF0OzM9H274NkpKjplfIA3yGhvgRbA0mOboPn44kwKtoreiIVlJ/V3t08Nyu1hk7HfLOujERFdhGoNr0vKIDehi3FVWZ31UEp9FbY6U8Cs+3BabRvmzdhEtmHepHXAPCTKSz1KQlUX56YJOZ3K/t6PThhmppUT43Kttg9WnZ+aerSF3KDVKcYnDVqDiNQAwxHKNVq+YbifyW5Doku5vC6hmA6tLiLVI5nsrkJI5vadb5JbSN/+8ZzLFV4dPrKI0wbJzVn70GxwFoO+wNL8wuTIKLKsEpqXjy2F5B7eX558ZKC79diQ1MTr7kCUYAtSuGQsBVNBKM8lVRVCEg/S67BjCvGERnbMoBpTCrtJCHRxeiumrB5e0ISG8LtJenmvmNWAgWV0NFXO2vunx8QzNtGkVWQ3y4YHRbDi3KRDe2uRlZp+jn6I99EJw9TUwMSEXKliwGB5SUmHmpqIOr3CNq6V9PeiccXNrSjDsExnlLS212JwFXxhdw+9BVpd2N5R193bkpx6+ODh3dL+vtt3rvv9P2flAGt4bUdugPMNzmLAF/CuuL4+daaVQKrKzcWXlZSnJJQlxfJbCBNKgVnQSyfAcEWpMmqjikWhEqrRkMysg7tQ+RniTrKE2trf086n1ONKs9IPvFuZFUuqzhX21FsGuXaDYFDaWYfJw9WkDw/SZ+2S6THh9JjYNiw1qgQYaOnbr/2GRWs1DYnHx5QfHNPabbLJyQGhkAKF5sbF7a/FI4eG+s1WZS+zEYkp6mU2mUbkCjUXT6iqa4Bz+jrrGpBYfBWb21nfiH5/7zt5BakTUyMLCw+C4X2s1qSEbAAA11Rhg7MY8gf9Lu/1Hy6KmeyKnBx4fi4yPxuankDDVZsEvcY+GpNUgy9KFXeQzBKmmt3RiYcVxu9L3/teQxWEVFFYV1lUDy2C5SQk792KKEzmdRKGFazRob4xXZ9JRW8mFMIr4ocGOics/Okx4aRVOG6W6ZU8VCXkjd/+b7W0b9Qkn7SppiaUtlGJzSbr6MBU1+Snpx3FoKvVGolWL25uRaKwxSIpbdgi54uo1YhCSieRxaHAkSXkVrxIwiyryHvt9V9h8bCvz3/mdC2+WHuTr8Hs7zrd8CyGfC7Pg1t3RgaHqgryi9NSsKUF0MwkfHG2vJs8xOnoIVQRitM4jchhAW1MztKw20nl2Zn736WgyrtwsB4Sgt6AbMeWl6bGNCOLtCKqXce3aFh2PW9Ew2zGF6CqkozqnjEj55hdajPxLFqBStJbmpvy7u9/Y1CJxoYHxq0DttH+cZt8aJCJwxaRSFAYrBCLhUplbLGUTqirqmusUai5epO0m94IR0JYnHY6s7UaDmGwKH38nriEmC2v/ZLO7Lh1+5Lf74rMefy7+vVF/NAGZzHoD/hcrqWH8x9OT6KhFTmJRxHFecWpcXlx+2iEGiWzld2EIJWldaGLrKKuKSXL3t/b1wQvS9oj7iDq+jpHpHSDiKpkkTHFSe24Ep24a0LPt+v6Jk2C0SF2G7EYC001KntsBt5HEyqzhqMS0VidxIK0w/t3/F4lYY6a+idHVWMW2fS4mkmvQ9Tk0Hvq29vwWGwFrbuJ0knCEaq66c0arUip5jc2Y0j1CJGE0dpOQGEqRBJWW3vdezve3B+z02BUPX58Lxj0bLL4Ij5jP5c56Pf7PG63Y+n8F2da6glpcYeKs5ILUo6mxGzHlWULO0kSKrEZltVUkWqXUmeU9Ml+mopWW5W2V9pVa5X1Tg1yrQN0o7iLVJXeji0aElImDfwJA2/SJLDpuN1kGLoiWclvnRmRnbCpDXKWsLe5DgnBVOWlHd3F6Wm0GiQTVqXFKJkYU9URyon4MqmIyu9rx2FLcfgKNLYcT4AKRD06Q79YysLgoJ3UJomMjcFV1RLhYimnBl7+1tbXyiuKPvn0+PLKo0Bgk8UXGMXV8IxNnyfgc9+4donPpqccPZh8eF9RenzW0b2VWXFdtVVSGqkLAyFB4keFlBlF76SsS8dqQOYc4LXALVLalIYzpmAMS6lkZF4rukArpEzqeXZd37iBZ9f39VGxqPIkLhX3oV01YZRppYzOejihukDAIFcUJLbWVZu1whG9eEQv1qq5iOrcLgpOo2SrFCwCoaK4JK2sIptUD+8f4BpMA5w+KhxZxuZSeQJ6FayI3Erg9PVkZiVte+8PVFrrpct/dLmX/H5PeAWhjXtsaB29uhoelfZ6ggHv4uMHFpMuNy1x/46tucmxBSmHS9IOkSpzmI013fhSQlG8iUs+pmJMy7sNnKZaSFx3bemIhDqp4dhVLIu8h0osa0bkDvLbxnV9dh3Xru+z6/v6OY3o8qR2UunJyUGziivndsCL0+htOKtOXI8pxdbk65ScYa1wbLi/l0pEVOeGkySMErNJ0tQEz8g8VFCY1EYhavUyrV5G6ayDI0uFYmZ3b2sltLCX0d7e0bhn7/aYA7sMRvXDR/c8Xscmiy/2YxgMBsIb2Po8HtfKmVMfIapK33/njcQDO/OTD5VnxmNLMuors9uRhQRIgqaX9KGW+4GGNcSoa6pKJ1dnD4s6J9TscQ3bpmJyWhH1sMwBdqN9iAPkok3HHRRT8LD02uqMD2xKtYhKIcGQpWlaKX1mVMWhkcoL4hVi6tiw1GoU41CFpNoy1QDDPqoYsw50deHTMw4UFCYx2e1mi3pA2YcnwPAEmFDMbGjCYXAwvpCBQsPe2vq77Jy0j08eW3E89vlcwaBv0158gXEMJ+8EfIGImr7y0/d0KuXI/l173n0j5eAuWH4KsSqvOicOB0nC5h+VtqM/1vM/0vEG6SQKMr+2ONEooIyrWJND3HENW9pDJFSk8juxVjVz0iiYNAnGtBx9P7URnQcviR/V9vG76yrz47hdhBF133G7RqdgZSbtFrCaJ0cHZMIOBCyrsx09YhKPjynGrHIGoz4751BRcXKfoGt4RMnp66xBFLe2E7g8Ghpb1dpWLxCy8wsy39r6OoGI+eN35xzORa/XtbGDixt9PHo1nGPr9/uCAV/I7314/+7osL6iKHfnW68deO8P1YVpHbUwZEFSSeL7lSl7OfVVJ3S8E0N9Bg65B18Kzzpg4LePK5nT2r5JbZ+aS8aWJHbXV44oemdHxNNmkXWQZRzo7qgrgxbGipkNZHwptDDBrheZ1dxjNtWkpT8tfnsPBWs1icj1lQQcRMBrnbQrbaPyEbOkp4eYmx9bVJxEZ5FVQ3xKJxGOKmay27t7W2oQpT10Cp3RGZ9wePf724Qi7p07Nzxep8fj8vm8Gykr579LuA1uL/r8frfbHfD7g36fc3nxm68+p7U1Hdj1zu63XoXmp3Laic0ISOb+rTkxW7txJbOD3Bk1yyqhsuqrKlP36HltdgVjWseb0vF0QgoaEt+KKTD2Uz+wyo5ZpRYN0zjQTW+DV+QdbEAXVEMSGO2YyWHpuFE8MSKbHh0oyIxpIpT1CymVJYlt5Gq9ljNhV4xZZUY9r7UVnl94pKAojtyG4ou66hpraolQobi3tZ2AQJXRmZ1NzYT9MeHcHJvduryyGAj4nM4Vl8u1MdYq+e8UgisbnEWvz+dyu31+v8/rdTlW5u7cHDVpCzNTtr/xSmFKLKuNyG7FV6QfzDrwdjM0e0rFnlZzxvp7eC2I8uTdSnq9VdYNdLSa04wrS25G5mn4rVMmwaxFYtNxR9QMThcmN2lHXspuEiJ3WMWy6QUzln6rnj9l7a8uT8Yjc+vxxRXF8Ywegm1UNmqRWEfEKmUPkVgCq8mshKajcZA2ChaFLSa3YYSS3lpiNa4W1sugIJCV7+/ZXgOv+vrrL3y+sPvsjCyMscni0zh+Aa4HQ6HwBvOBgNfrdTsdrpWlP577opmA3fHmq3F73yNjoAp2R289oixlf3XmQS2nZULBGuvv7acREDmHhG3ocFhH2zeuYWv6WroIpW3YIlUfeTziRI8beGNaDqcLk3TgjdTDb2vEnZZBzvGxgXGTaETLHTeLm4gl0NKE7LTdRGyBVNRmH5OZTXyzic9l12Ow+a1tcFJDRUl5clllWiUsk85qZvd1VFUXkFvwvXRKXn7G4dh9YjH/zp1bYRsjGPR4wpNuN3X0C8Dc04oIWIzsMe/zejxet/PyT99xejuP7N0Rs/1NbEWBmkdTsNowRSkZ+99qqMwc6K63KxhqZmNjVUYfGT6pZh83imYNAquC3teOasUUaPitM8Miu77POsiSc5tIiOycxPewVWnjRoFNz/vANjBjkY4a+EY1QyHpSD66NTN1J5WCUA1Qx6ziUYvIZOC2kKtqawvYnHpqD764PDE+eUcFNF0s6+6mN1ZA86jdze2UxoOH9paVQz7++MTjx48iK+aEIpliGzYrAnTfRtbRkeV3Qv5gyOPzuzzhVcgCft+92zeHtZrSvIyDO7ZCC9IHOJ0mGYuCKUvd84eCI+9RUEXy7rqBHlI7Mr8dmT82QLerWTYVa0TezW1D4sqSmC01Y4PsabNIwSOjy5MgGXsq8g7iYekTJsGoljNjkRwblY2bheYh1rhFtHvbL3Iydol4TbpBhm1UPG6TymUUNDqruaVCM8QY0nNIjWWH494urUzlCTta2nG42io2twuFrtq5691eOu3uvdsul9Pr9f28NPkGR/GF2mvoacLvaddD4XW8w2vYun0Bp9vrC2dDBxYXHp7+9MO2RkLCgV0FKbHs9jqDjMXvIFSmHyyK31VfkUFBFQnaUK3wXGTuYT2/fVhKtamY0zqeitOMgsT3NkGHFb38HnwtLB1eHEepKyPji0oy9+nltDEdd8osmrVKJy3imTGZur9z+9b/BcmPUfZTjHr25Hi/fUzS0V6NRKSz2ETjcJ/RzG+l1CSk7CgojqsllVcjChqb0VRac3pGfELiEbt91OVyhkeNPL6APxj+FwhuiKXtntZdLwGL/tCqJxB0ef2+QDAQDLpdzutXflL3i7KTYmN3vV1fU6rkdCmYrfVVueiCxF5iFbk6t6EyHVNwtCRhh47XNqqgTw5xJ4a4ckY9ujiBjCmgNVYiSxMI1RnCXoJhoJvTianIOyhlNxwblc1YJNMWic3Etw8L6nD5Mbv/o7TokFzSZtSzpycHjHo2Ep5eRypSqWgmc1+/sovYUJIPiYWUJSQk79ob81ZBUUpObtLu998hELF//O6CNzxiFHQ6PB63z+P2eb3+TXvxqSCv8zfCOno1vKO3Nxjy+IPeiBPj83oWHz34aHaiuiRv5xuvlKbHsdsIA4zWFiSEVJGpYbXyWlCkspSqtL0pu7bQ6yqltFo1p1nDJXPbkOUZe7OPvlNdGNuMLRAzSBYN06bjipl1sKJYThf65JRqdlQ6YxEb1L08OqG86FBJfkxxwQFhX73JwJ4cl/F5DRXlcV2dcNMw12TuY7AJaHxuA7mqua0mNWNvbNz2gqLko3F7Y4/s0wwq5ubuOp0un9fvWHG7XT63y+f1bLK4zol7evEAi75QyBMMuf0Bl9fn8fq8Xo/btfLTd+e72xtj3vtDcsz2BkQxv4NYD81DFyWbJT1mSTfwXRK3/7YybU9NzkEMJL62LBkNiUs/8EbyvtcakDlqQeuIim7TcsYNPBmnEVoYS6kvPTYmnTDxpi0ijawdVnKkFpXFoeMKc/dwmbUjJo7VwmtsKIbXpHDYhJERns7AbCSXIzHZfHErh99cVZ1JqKtsaEJl5yZW15SdPnNyZWXR5XL7fYEIhQGvJ+D3berop3f2On8HsBgWioEwi05PhMXwskie+bk7wzpVQUZC7K6tFVnxHfhKYkUmPOeIgU+xKxhmcRerAVqZtodQmtSBK+qpL2c2V3XXldVWJNYUHGK0QC2q7plh3rERoUXd28+pa0Bm46HpY1ruhIFv03F5PbjUo2/KeI02cx8kdy+DhrSYOCpFRw0sqY5YJBW3Wkb4CkUnBp+FJeSKZW2ULlRFVRqlq5ZAqklKOdRL77x2/ZLL7Qg/OL5AeKFdf8jvD22IPf/+GjIb3o8O62hf+F/IGwz6giF/MBgIBpzOlS/PnmprqI3f915m7G5EfmJDVTaxOFFBrZ1S0i3SrqE+clNNZgMsvb+XoBO0jCm7jeI2ERXVBE9nNJeNKDomdPRpI9Ou7TFIWzsIRZXZh4cHmB/bVCp+G7Yypabk6OSIYMzEhlccba4r1KlpXW1VNVWJtA6EYZA1ahYy6TgEMrmNUskTNJDqStDYwk4qEVZTlJufNjE5urT82O0Jm7i+QMAXCEWKHdogOwo9ncaNzOLqamQHwVAYR//qn/6FVgOhkM/nu371skzAyUo4mHVkDyz7KL4oiQiJZ+Ag00q6XdFrlnVRCcW4knglq846QJ3Ws8eUtAEmngRNoOCzTTLyhLZ72kCfMfbaB6l9FER5xsFBAW1SJ2a1oOCQeAmTZFJ2202cZkIeoiqOx8AT0FkkXJ6A02jW87QaJrmpjEDI6eMRenvRSFRWU3N1SysmLz8Zh0ec/+YLt8fp8Yb958hQetAXCv/bZPHpGL8I74QiC3sH1rIYCfQEgoFHD+cnxkaqS/Nz4vdjitOqMw5BU95vLku2y6gzWq5FTmM2VcGy98vpBLu6d1zTO6qkKtkEfFlsEzzZKGmaNTKOmRiTWtr4EFXd1wTLOcLrIMnozXXVe2lsUwAAIABJREFUufQWhHWQOShpnxrh9fWii7J3kTDZSGgSvQs1pOw1abl97AY8NqerEzqgaGsml1VXp1E6MBhsaWp6LF/AvHHzisfr8vq8myy+CIj93WV8GovBYNDldFw49wWttTEn/kAdrKA6+0jmnt/XFh4189uOG/gWOU3QgSpN2SnqQk8MMkYV1FElVSdsaqhOrIcl6EUNH5jZs0aGZaDVomg1StvRkKQmBIQEy62rzhlRMca0TKuWMWnu0yk68tK3QXL2oKBJA+L2cat0UEEnN1Ri0dl8PkkqI+NwuRhsfls7qrAouQiSMT1jW1x85PW6fX5fOKoYCoZ3ag8FvaHw+caOdm98HR0MK+U/KeiIpg6Et/4NeD3uO7eu6VX9pdnJhKoCQnlW6u7X4Rn7NYz66SGOpZ/a30soS93JJlfZ1b3Wga5RJXVY1krBZZGqjipY2A/M7BkDfVjWbJI1m/rbCZXpkOS9Jan7eZ1Ym449M8IfN3LGhzl2M6ck7/20+LcI6Cy9hjE7oZTw29DwnIb6UpmspacHiURmtrTUEAjlqakHW9vqfvzpW5AeFlmmJOQPhcIsrga8Ye8lvNHX3/0YvngffGlYXINjhMWg1+t5/PDBpydmyARkdWFaC6qsLGV/0ZFt/FakWdY1LO1UcRrheQc68QUWedeokmZT04Zlrb0NEFzpIU5r2YyBfszEtCrbzfKWIWETsTI9Zuuv0CVJekmnWdV9alZpGeoZH2aPGpmw0kOp8X9oJOTr1fRxq7S3C4eAZfbQsBIxmUQswGLzqF24ysqs7OwEk0nz6PGc3+8NBPzhjbLDlm6URd8miy/e47W2xEBHA9H4X9IxsiW6z+dbXlq49MO3SklfWXZiE6KUjIBkH3i7AZqlYNQZxZQhHrmuKrUemqoTkO2aXrumx9zfLqLW4EoPUXCZ44PUYybm+GCXeaCF11mNLDq683f/D6cdaZR1WjW9n84MWIa6x/T0AVEDrPRQTtq7dfgchZSiVfU211XUYgtFglYOi4RGZTXUl5PJ8Ly8eDS68suvTnm8jkAgnJgT3h07FN6O+E9ycZPFtR37Ap5HWXxSU4dWfYGA0+mYu3f72MRoTXEOqiSb0YyBJO7NO/Ieswmq4TYN9jV31UKwxUcUTOKUjjkxRB9TUfWipjpofD0s3jLQNqXrsSjaVFxcAzy5Mmtv2oE3xD21FlX3iLr7Q7vIbmKa1B2dZEhVcUxZ0X4MPJXHInEZJBwyr41cI5dRuzpQOGxBWysSiSzMyjrKZnddvfaj3++ObG0Y2QN2FbAY9K36vaFNFl9A/tYWGayB9LOM+ZOa9q1GIo6BoMfrWVle+P7CV4yOZkh6XDO6AluSfvjd39aWJXeTSoWdaD4FCc87wGuvmdIy7Zoem5pqU1PbMOm40oMqDt4kbeZ3VrXj0utgCWR0Niwvpg2fb9fRh1Wdx8f6jo31yfmEmvKDddjM+toceGUChQzFo/JQ1dlcZqNY0N5QV9FQX9VBwZaVZpSWZlutunv3bno8rmAkegPKHNHRAd+q3xfyBTbtxbVd+8KdP41FbyjkCQQ9vvAEwYWH9z+YHC3JSs5LPNgAL0ne+yay8Cii4HAzPJPXjoBm7e3A5ZskbVZFl2Wgw9zfRsFlIQv3MpuL+R1VteWHUMV7Rd1w80BHXU1KZc5us5IybqTbjd2zYxxKY24FZI+URxByavHIDFR1embKbgKmSCHr6aJgUYi81hZUY31NaUlmR0fjhW8+X1p67Ha7/P5wJDGyzRzwXQL+Vb8/sn/7Bl7YaePPvYqwGAyGwuYXsBfDQnE1nC3hiiQ1ulzOhYdz35//gtpMOrp3W3VhemX20a7a0k58EaE8CQM5Whj/TjM8Q0JDm/spI3KKpo9EJebVlh9uRiQ31STVQY/yOspH1ZRJfa+4F1WQ9KZZ2TY9wjQqm5ViQhVkVzelZEjRquon07sQxfkHs1J309qxcnF3LbYEXp3X0oyCVeXBa4rttuGH83f9Pk9ks9dAKLgaDO+9GXZc/KsB/6rPH9m/fZPFF04arilwGMbAX2AxBEaovU6X27m8NHfnpt2sz046nLB/OyTlQGnqHjWnkdNSDUl8L277rzCQ2J76EnZLJbulvK+9qqe+EFGwvzR1G7HyiKCzyqpqs6rapgy9agGhNPMdGQs5burWyRuaCamVRTuUUpLF0GMcpPYLGzNTtudl7mN2k7jMZiyqmICvIBGgpcUZjJ72yxe/czqXnU6n2+0N5yk+lcXNdSPWdO4LdhphMfTnctG7uupdXXUHgisuz7LD5fV6lhcf//THc9SW+l1vvRq/962ixJ1DPPJgX3NvfVlpyvZDb/+/6TFb8uPezDr0WnHy22Vp7x5575fJe/6TRsqzazpP2vomdNSxwU4pE1ELPdyCSzEommRcVEXh9s7mXIOm1WLoHtH3dJDLstN2FuYcwCMLYOUZ5SVpSHhRCSQdjSw/NmNbXJhfWlqYn593u92h4Oomiy8YZn9XcX9mMSxqojrau7rqCa26AoFll2dpxRXeb9Ttejx///iULTPx8Nv/+f9lHHqrt758iEc+YRbJ6bUV6bs6cHnSHrSYhhhg4vgdVZjiGEJFrKaPYFN3jA91TuppY4MUJQ/Xik+rLtwhZsHr0EdRVfs0MtKoiWYx0BTSpqLc95HQFCwiJydt3+7tW44cfC8pfm966mEBj3771hWf1+l0rDgdjvDslkB42Zw1Otq/RkdvysW/q9vX5YdCodVwgsuTLLqCoRVfYNntW3Q4Hy8uBfx+t2vl+qUfWd2UnX/4j6M7tnTgiixy2sQgi9lUWRj/Nr2xVCto0vSRRpWdloG2dmwGpjhG2AUbVbbbhzqPmRkTeqpd19lVn12S9SalIaMo8w0WtcSkaRkz0SasrEZiTkXxQSYNKxd3VpYkH9j7ZtzhnXGxuwm46s/PfOx0LPq8bq/b4/P6HCtOr8e3yeK6hOl/WKins7js8S+5vMtO1+LySsAfXudk8eH9zz6axVdDjmzfAss5MCLvPm4SDvY1V2W9Xw9LMUnbrIrOicGeGT2D116JyN9DwWWOqSiTOtqEjmobokyZurmdpXmJWyoK3iWhYo3qJqOabBxsU/c3lBTs7mgpV8upeg2rDl8KLc+sLM3CoyvtY4bFx/f9XqfH5Qxn+Xo8i4srHvcmi//DXl+fX/9zFiPDGBE/OrTq9AWWnZ4VZ3if35WVlUAg4FxevHH5x+FB+Xuv/zLm3Vf4nQSjpHtaL+wmlVfn7GfUl9oVNLuia1hM1rAJHdisVnSGQdxsH6RN6nuM/U3G/iYZE5F84JdJB3+pkzfaTLQRLUUjb6pFJVeUHGDTsZoBWktTFawyA48pqcVVymW8G9cveb0Ol2vJ6Vj2uN0ryytery8UDi2ugphOMOJHB8JOtC8SHt3U0euTs3+wVKFIROS//13zM+Hld65euYRBwLa9+Vpu8pFeMkEr6pV015cl7+7CFJh45HF51+wgY1TW0V1b2AhNMYhaZ/Rco6xtSNig5OJRxQfSD79amPaOlIPTyluO24XcXlTcwS2CPtKJYxoOi1RYcBhRkwWH5/J43T98f2Fp8bHP6wapiaGwtw8G//4sASJS4GBk6s6fXV9T7A1yusFzI/7RXgqFQktLiybjcNyRIwfe3xkf834HCSXsqkflxTHrKj7Qcj7Uc6ZVPaNSSicmtyZ7n7S79kOLxChtF3cjqnJ21FYehUNichL/wKXCNVKyaZBWUx5HxGZLxWTdEBOLya2pyUCi8jC4Yp2+/8aNyw7Hit//84yqSCj05z//aLE3xuc3WXyyH/1+/6VLl7soHdvf2ZqRcLgkMwFbloWFJLchco28ZouodURInlJ3S7sQWMjBnvqSUSWN3lRanb+rOPUtBrl4RNWOLDtQmr1jwsxhdyOKcvYwulF6Lb2tpaog/2BDQyUKU0DrqT/7+UePF+Y9Hk8gEB5lWXs8WaCX5vUmi092dSAQXFxcOvnRR5mpKdWlRciy/MrchLy4nZD4bfwWqEnYPCxqGld1ath4DGR/cfLWZmQaruJQGz5Vyqg+ZmF+fqKf2lwQu+d/M7qgRbk70TXJUmGzQt5VXpYIg6UjUfl1DbCJKcP8o1s+vysQ8INdTteyuLEnQT/Z3Gteb7K4pjEip6HQqtfrvX7leh+LlRof29mE76xHZBx8N3bbb6pz9rejM1oRSfXQWBL0cGHiG3v+8H8Xp71Ja8gyKeoMcsLpY4IhKUElIhBR8Udjfp2XuY1JQ9lGBK1kaHlZEolUWViUKJL03Lz9vde/HAxFcsP+ZCMCHDfMBrxPNuvf8XqTxScbKRQKeb2+B3PzZz87DS2FIKsgHQ2oZkxpUfLulH1bKjJ2IIv2VGS+jSvbhy/fn3Ho1/Ci7YNCjK4fq+vHjumbZVzYuJnaUpf5+iv/V1XpIZmoWaPsroFlIJF5UFgOqa7mgw9ti0v3AwE3mJMY3fEU7H8NVPaTZXo5Xm+y+GQ/B4NhFpeXHfP35+xWM7SsAFaSxaHWN2GKqvIOtNfmydmYfiZC1YdW8VD18EOoku0aEcIwgD051WserDMoiSJOdV7GH2J2/6IgewelpQKFyMrNOVhSklpekWMwKi9d/uPC4gOQpxhe4AesIBaRioHwtgthrf1kmV6O15ssPtnPofCMVb/T6fK4XDeuXVINiKrKcqAl6Q3YEnhJQiM6a1DcYB2kmAYadVJCV11qRc4bYkbJmK7hw8kek4bIohZmJm+Ble1pa8xHwBJys94/cvitHTv+c8/etzo6G89+8cmD+bsO15LX5/H7w8sGAPiAgvb7/ZEV7jZZfLJTXtLX4cSeyNqhfp/X6Vi8fvVHo06OR5VmpuxLi38PVZUsYGJ1crJWVj8kJXA7Ieiyna34OLOaZNE2NmBjoSXb6/HJAjZSyMW3k8sP7H/tna2/OHTo3boGxKlTH9x/cGtx+bHL4/KFZ7T8mVBcjawuvqmjX1Ls/mK1AYs+n9fn8wT8Hq935cb1H/Xa/mpoXuzBrUlH3m4mQSx6un2YoRQSRAxYW20yuny3lFtNJWeV5G4lYRJ0qja9mtLbVQ0pOPjetl8lJu7uojWcOv3B44U5j9/t9LiXHA6XxxMIbvA5pn+xef/KxU0d/WTjRFj0+/wej9fp9bkCAY/TuXDx0oURi6aiPGvne68U5R0S9zUOCJtYnVAZG9vTVJAdvwUK2YWsONCAS5Pw8CN6ek9HdU76rvgj7+Rmx3K5nV99/emjxftO90o4k9wfWHa6HC73JotPNP0mi080SCS9P+T3Bzxuj2PFteTyOcJrfXmWbt+9MmwerKrMP3Tg3azUfShoej06twmTXVO4/+juXxze/YsqSIxC1Gwa7KW1wdMStm3b+suSwqRBtfC7775cWXnkC7gdbqczYg96/AGvPxLjfuLmL/fLTRaf6P/IYrbhFaC8Hp9j0bmw4Fx0+lzeoNfjdz94ODczM1EDK9u57Xepcbvr0JAGVAGuPAVXkZKbtKMgY4+Y08zowh+N2bpv5+9glbkalfDWzYsO50J4fZyA1+33uwMBdyDojiwGGZ7q98TNX+6Xmyw+0f+hyM4H7kDI4wu6Hd6VJffKss/tDvo9wYDD61lYXPzwxHECFpGbHoeFFpIxFWRMGRlbXpxxOHbPm1lJMalH96TF7+8gE45NWucf3Ha5llyuFZfbFXabgyFvKOTyB1c8frdvUy4+0fIbeo3kJ+v6d70OBYM+j2/FF3T4Q25vyOsK+ZyhoDsUcgWCj1acjxaXr129rh8ahFeUZBw5mJdwuDgtriDpcNrhPbHvb8tKPEJEVxs1Axe/O//g7s2VpcfLiwsut8vn93v9AafX7/AGHP6gwx/wRFbf3pSLa/tkUy6ubY3wKnnBoM/nX/EGln0hp3fV61kNOkNBRyC46PFevX3/k9NfaLXGzvZODKymEYsd4HKGFf18Wgeusqy2Gipg9H7ywbFLf7zw6P5dv8fjWF52rjh8Pn8wvEhzYMnlWVhxL7m94XHoyPa7myyubf2XgsVo5kG05uBKZIHGcNbgmsGPcApjMOjx+h1u74o36HEH/PNLSz9cvfbp51+N2CaoPUwUGk/toM6OT928fGXpwfzKg7lbF3+ctY1K+rg4OLyrpdViMJ4+efLW9RuPHz4Kh7PD8ezwuiTe8Gwv78KKy+H2gpyIcNZseLrsfzG59jxa2pfkZOOzGDYAI+MZvvAqr5Fp8BH4wHl4g2mfL5zb7XYDarzhXH+X1+teWVl6+Gj+p0sXp4/N9vEFpLqGLmq3WjP00cef3Lx+MyzwPB6/xxP0eQNez8rS0vyDuQvnv9ENDrU0NRNra4UCwfHjx2/fvr2wsOAMO9A+vz/o8fgcTrfD6fZ4vP7I8TOqkZHAzTHADf7URbZK9Xs8Hrfb7fF4QN9HOfD5wskygMjwPm1ut9PpvHXr1oMHDy5evGi327u6uvB4PI1GMxqNZ86cuXr16tLSUnjAxB9wu1wupzOykLE/MrU5fGFubu7rr782Go00Gg2DwUil0tnZ2R9//HF+ft7lcnm94a3U3B6P0+kEhfH5fOC+Lpcrms64wbvkKdXb4HIRgBjJQIjwE2EQaGSAIBBFEVkYhnVlZWV+fv7LL7+Uy+UEAqG2tlYsFp86dermzZsLCwsulwuwC2RtVJoGAgFP5ACgu93uBw8efPPNN8ePH+/o6MDj8c3NzQqF4tSpU1euXHn48KHL5QIPg9PpfPz4MfhlMDD90iZGbPw1TIDAi8IHlDUQSOAi+IDL5XI4HLdv3z558qREIkEgEBQKRa/Xf/7553fu3FleXnY4HCsrK0CPr9Wq4AedTqfD4YiK2Ii4dLpcrpWVlevXr58+fbq/v7+2thaLxYpEorNnz96/f39lZcUTnpgdFpNhczKSoRMxLn82JKI27tqTpwiUDXJ5g8tFgBrobGAXAm6AQnS5XEtLS4uLi5cvXzYYDEQiEQqFtre3T09Pf/vtt48ePXK73f5IOs1anQ5+DTgZgUAA/IjD4fB4PGDyFLjp8vLygwcP5ufnHzx4cP/+/R9//NFisbS2tqLR6La2NqPReP78+Xv37rndbiChvZFjjRe1FsKfzzcIdE+pxgZn8U+JDmGbDPguQF8Dtlwu16VLlwYHB1EoFBKJlEqlH3/88ffff7+8vLy4uLiwsLC8vOz1ekHajgMs6rDG7wHZr8DaA8gCiQvAASLT6w37KE6n89GjR3Nzc1evXj1+/DidTq+qqsJgMDqd7urVq2632+v1Aukb1dQA67V/N7yLvfFZDIYDhuEDiByPx3P//v1z584NDw+3tbVBoVASiWQ0Gr///vt79+4BnzfqzUTJ8Hq9QPIBVwNYh4CzqG8E5GUwGAQfdjgcQOZ5vV4ghr1e79LS0p07dy5fvvzZZ58NDQ1RqdSGhgYGgzEzM3P79m3gu6zlb+35JotPkacvzmUAB5CLi4uL33777dDQUFNTE5FIZLFYVqsV6MqVlRXgmkQdHaDTHQ5HJCLzcwgmKlY9EV8YKHHA7lrogdwNz/+PpENEmQ7vuRXx5Z1O5927d7/++muDwdDZ2UkkEnt6eqanp+/cuQMkcbQY0ZMN79asR7kIwr9erxcEPqJ6FgieqEUFItVAgQImQDoqYAh4EuAzbrf7+vXrMzMzfX19bW1tPT09Go3m448/vnz58qNHjwAcUSEH7h6dfQJkavRi1IiLeuhRRMBXwCejj+pa4xIUBog3AK7T6bx///6FCxcmJiYkEklnZ2d7e/vQ0NC5c+cWFhaixm7U5QcOO2gWcF/QOGszcKNXQENFS7L+T9YjiwAvEGcBSK0VOaBjPB7P8vLy0tISMOP8fj/wIZxOZ1SN+nw+p9N5+fJlm81Gp9MbGhq6u7sNBsPnn39+8+bNpaWlaPQbYBTlbG23gYtrr/xD509TrIAYYGWCGNCFCxdsNptAIGhsbKyrqxMIBF988cXS0lJkkZ3FxcVFILmB9w2k8srKCuASSH3w2EQd8/9hyf+hav5LPrxOWQRhYQBlNEQcjcUAgeF2h2PLQKP5/f8VzQbxkbm5udOnTysUiq6uLgaDoVarp6amPv/88ytXrjx+/DgaVY7yt/bkX9Kyf/NHgJCL1m5lZeX+/fsXL148efLkyMgIj8cjk8k9PT1TU1M3btwA2IGgEngagc8E2gQ8fsATj3IJTv5mMdbPB9Ypi9ExEqfTuby8DCy5qI6ORmdA30RtOCBm7t27d/LkSalUSiaTW1pahELh1NTU999//+DBg4WFhaWlJZfLBZTaWv7Wnj+b7gkEAmCYJzr86PF4HA7H0tLS3bt3v/rqK5PJ1N3d3dTUxGQyrVbrDz/8sLCwAD7sdrujhmy0+lHLEjyZwHl6NnX5l9xlnbIIHnRn5ABcApUNpEg0ZA2EYjAY9Hg8jx8/vnTp0vT0tFgsptPpAoFAq9UeO3bsu+++u3fv3srKClBhYLAEfHEtf2vP/yUt+zd/BAzegFIB2y7q2Xg8HuBxf/nllzabTaFQCIVCgUAwODh48uTJmzdvOhwOEJ9fXl5eWVkBswejTjfQG5ty8W92wd/+AOgYEEYGOigaQwEn0cFlMGo3Nzd36tQplUrFYrGoVGpfX5/ZbP7iiy9u3boFhtecTifQccBBiXb/Wv7Wnv/tIv6LPhF1d4DHA8xil8sFIo4gGASesY8//nhoaIjNZnd3d/P5fJvN9sMPPywuLoLQvdfrBT8VtVWiD9u/qKTP4mfWo1yMuqhut3t+fv7GjRt3795dXl72eDzR4TWHw/Ho0aOLFy8eP35cpVJxIodcLrfZbF9++eXt27dBmBpIGiBComZ+1GVey9/a82fR8JF7REMEUYcDyHiPxxMNA4Ew+Pz8/MWLFz/66CO9Xt/X10en06VS6fj4+IULF6IjisBEcTqdwKXz+/3PrCL/khutRxYjC8+FHeTFxcWzZ8+azeZPPvlkbm4OOCsOhwNkHthsNolEwmKxuFyu0Wj87LPPfvzxx7m5OaCOgYEPWARGPRCHQNdHxcZaBKPn/5KW/es/Au4VLSTQp0DJAqSeMI6BBnj06NGNGzfOnj07PDwsEAiYTCafzzcYDJ999tn169eXl5dBfYEpucniX++CP3s3GpkDmgWIK6BrFhYW7t69e+bMGSaT2dzcPDo6evfu3YWFhStXrpw5c8ZisYhEIiaTKRKJzGbzZ599duPGDSAMonk00c4GHQzs+rWd/Vfclz8r5b/nBajmE4UEL6MuCLBVoryCCJTX611cXLx27dqZM2dGR0flcjmfz5dIJHq9/vjx4z/88MPDhw+jAYdofaM/FQ1/Ru8VbfaowfDvqfHf/tVnKhdDodDNmzfZTKZULAFayeVy6bXapvqGa1evghRA0BMPHz48efJka2trSkoKEomcmJj45ptvpqam+vv7ORwOm83u7+8fHx8/f/78zZs3wVYUoM+ibb226qDdo6G+J16u/eQzOwdl+Iu3ixZv7WcAVQAXEAxaXFy8ffv2Dz/88MknnxiNRj6fz2QyBQKBzWa7ePEiyCqKRlujY/HRJI+otwRs06i7EwgE/mKpnsHFZ8eiz+c7e+bM2bNnM1PTdm/fcfGnn3w+n1Qs3r9n7+7tOz47dQp4zX6/f2Fh4dSpU+3t7TExMW+99VZpaalcLtdoNEwmk8ViqdVq4B3Pzc0BdxKYks+gsZ7vLaKiFIzf+P1+oLgfPnx46dKlTz/9VK/Xc7lcNpsNmujrr7++du0aGAuIDhyAQYFHjx49ePDA7XYDrIH1AmRB9Il99pV9dixG6zY0OPjKr38zOT7xzfnzH574EDREMBgEMbOlpaUTJ060tLQcPnx4y5Ytr776amxsLB6P5/P5IyMjZ8+evXr16vz8PKAwGu55jk9ztF7/7hPg0gHBD7gEsS3QbgsLC7du3Tp37tz4+LhUKmWxWEKh0GQynTlz5tatW8CAARExh8Nx5cqVEydO/PDDDyB2C+xpYGW+XCyePXv2zd//noivlYjFIIEFeBter/fu3bsfffQRDofbt2/f7373u9/85jf/8R//8e6775aVlSkUigsXLoCcwmisEbjG0aHnfzcNz/f3QcQH+NegJIBIn88HMAKh8nv37p0/fx4Q2dPT09fXNzIyEnXsQHjr22+/BbCeOXPm0aPwBLFoqkfUiH/2lX0OcvHe3bsxe/clHD1669YtkAABns4HDx5MTk5iMJh33nnnl7/85a9//ev/jBxbtmyJiYmpq6sbHx+/cuUKGHsAziYINIJRmWffds/4jmtZXCu9QCB2ZWUFDLR4PJ6VlZV79+59//33H374IYhK0mg0iUQCZt6A/CASiZSZmdnR0fHll1+CL4KZDy8Xi06ns6SoKPbAwTt37kTjLPPz859++imNRktLS9u7d+/7kWPv3r0HIseRI0cgEAiDwThx4sSVK1cWFxejTiUI9Lxw8Yt/guNo2BW4HVHPBgQp18atwCPq8/lcLte1a9c++OCDgYEBBoMRjUra7XY4HL579+6EhAQGg3HhwgVgcz/fZnwOcvHWrVvZGZnvvrX19GefOZ1OEFu5c+fO7OysTCbjcrlCoVAul0ulUoFAIJfLTSaT1WodGxv78MMPv/vuu7t37y4uLoJoMMgPAN7iP9G7L9ZX1iaDrQ1RARc7GvoBLQN4jXrcN2/ePHfu3NTUlFKpZDAYRCIxJSVl165d77zzTnx8PJPJPH/+PGjVl0gu+v1+5YBi2GR69bevKAYGwBwRENy+cePG5cuXr0eOubm5+fn5ubk5MIjnihzRoT8gA4BEBO7L832gnw3TwDoEzIHQTDQeDtD87xeBIQgGTt1u99LS0nfffadWqxEIxN69e19//fUtW7b8/ve/j4uLo9Pp58+fB6291gB4NlUDd3mmcjEUCpkMhksXL166eHH39h1EfG0wGFxcXLx75w54uEGbgicapmECAAAEXElEQVQ72iKRRYvDyhzYiECOAuMpOlzxLJvsOd4L6OUolNGgY/QKaLToSxD3WVpaWl4Ob069sLBw/vx5oVBYVFT09ttv/+pXv3rllVdeixxxcXFsNvvrr79+/Pjx8/IFnwWLfr//k5OfXL58eXpqanpqanV11eFwFOUXpKekPHjwwDY2dvfOnWgrg5Pn2N8b6dbgMQZ5d/fv3z99+rRAIMjLy3vzzTd/GzleffXV11577ZVXXnn99dfT09N5PN4333wTTZJ/xk3xLFj87o9/fO+dd1595RWJSBwNBA5pNK/+9pXk+ISrV64+AWJUIj7jtthgtwuFQiD7HaiU+fn5L774wmAwcLnczs7OhoYGDAYDh8NhMFhxcXFmZmZeXh6RSLTZbEAvPfvWeBYshkKhx48eLS4urq1e+GJEHfx3EDdZXNtQ//Q5YHFpaQmM8oEsp6WlpcePHz98+PD27ds//fTT+fPnv/rqq9OnTx8/fnx8fHxqaurbb78FiSP/9H3/6S8+CxafVri/SOGmjn5ac/0T16NWNXBfQAQtGvEBUQiQGxEdJIwOg/0Tt/sffmWTxf9hA67rr4OYTjQjCcwEAn/BeCAYUQR5UtFg0NqhnWdZvU0Wn2VrP+t7RXOXouFGEAYCcxjAUgLRGYngLfD3uZhJmyw+az6e5f1AcAfkgwEPxuFwXLx4Ua/TcVjsxcVF8Nad27c7KR2zMzNAff/FvLtnUOxNFp9BIz+3W0QDkNF1zG7funXu63NJcfGvb3n1wxMnQKbPua+/3rntvaS4+Hv37nk8nuciFDf+mnfPjYL1d+Oop7i6uvrRhx++vuXVVnJLNAPt7Jmz+Tk5Dx8+fF4gbrK4/pB5JiVaXFzMTE1Liot/9OgRuOGN69d53L7nCOImi8+k59flTeg9vW/+/vdnz54Fpfvk45Nff/XV8y3p87QXn2/NX/K7f/Lxyde3vCoWiVZXV91u90B/v9vtfr5tssni823/53b3e3fvHoqJQdbA/X7/Z6dOnfr00+dWlD/deJPFP7XES/a/3+9H1sCT4uKvXb0m5POfu1DctBdfMgD/vLr0nt53t75NwOOjVuOfv/+sX23KxWfd4uvnftYRyyu//g25sWmdZCJvsrh+2HjWJTk2Oxt74ODNmzef9Y2fcr9NFp/SMC/B5cnxiVGrdf1UdJPF9dMXz7Qkt27dEotE60Q7g5pvsvhMCVgnN/s/WxqSG5tu3bq1TsqzyeK66oh/e2FCoVAPjbb//T3KAUVXR+e1q9f+7bf8B2+wKRf/wQZ7YT/+fxITyY1Nr/72FTisem5ubh3WY5PFddgpL2mRNll8STt+HVZ7k8V12CkvaZE2WXxJO34dVnuTxXXYKS9pkTZZfEk7fh1We5PFddgpL2mRNll8STt+HVZ7k8V12CkvaZE2WXxJO34dVnuTxXXYKS9pkTZZfEk7fh1We5PFddgpL2mRNll8STt+HVZ7k8V12CkvaZH+f/FESmAtpGm6AAAAAElFTkSuQmCC;" vertex="1" parent="1">
          <mxGeometry x="660" y="24.39" width="80.75" height="101.22" as="geometry" />
        </mxCell>
        <mxCell id="ag9oP0E_3bfdzs0P4WXb-51" value="" style="shape=image;verticalLabelPosition=bottom;labelBackgroundColor=default;verticalAlign=top;aspect=fixed;imageAspect=0;image=data:image/png,iVBORw0KGgoAAAANSUhEUgAAARYAAACxCAIAAACOQQX6AAAgAElEQVR4Aey9ZXQbWboufH9/f+66a921vrXmnHvnzJk5g80QZnAcsx0zM8qyZTGzZJmZmWSWQZJlkJmCThyG7qTDncQoKBXq+0rV8WQa05OZ7vQZ19pLLpWqrNK791Mv7Od99/+wb2/bEtiWwBtI4H+8wbXbl25LYFsC9m0IbQ+CbQm8kQS2IfRG4tu+eFsC2xDaHgPbEngjCWxD6I3Et33xtgS2IbQ9BrYl8EYS2IbQG4lv++JtCWxDaHsMbEvgjSSwDaE3Et/2xdsS2IbQ9hjYlsAbSeBthxCKogiC2O12xLERv9Vms2EYRuxDEGSz2Yhz3kgS2xdvS+DvksBbDSEMwwiEEBAiYAPDMIIgJpPpxYsXm5ubkGNDUfTv+vnbF21L4E0l8LZDCIZhAAC2VBAIgo8fP7569erm5ubz58+fPn1qs9kgCNrWQm86ELav/3sl8FZDyG63oygKQRDs2DAMW19fX1pa4nA4LS0ti4uL9+7dM5vNIAhuQ+jvHQDb172pBN5qCGEYhiAIDMMoikAQiGGoxWK5euVaYEBIaHBETGScUqY6s3BufXUDgRE7Zv+q/XWPOPSmMtq+flsC3yOBtx1CMIrACIzZYRixYXYYQ9H1lY2kWEqQd+zOdw+7HfajJfNG+sdXn65hMIYhGALCCAxh+BvIboftdgSz45GHnxdMCII8f/78y6dPt5rZbN7qFRiGLRYLiqIwDIMguO3XbUnmF7HzdkPIbkftGGJHUDuI2gHMDtlRHBfp8fy0SInnwRivg1EndvhlRHPOTlywrFkhCwRsWjZWV6zmdRSx2u02ux3C7OgWhF6G8X7qrrl969beXbsO7Nl7aP+Bg/v2u7u4PnjwgLgJDMNAEDSZTBAEAQCwHV38qfvmjb/vFwAh+CsIWTE7iMMBtjNT5OL0ikgPlsun4f5HEnwPhXFIQl2X4f6th5Y18+bqqnlzFYFMKGq126G/UURfRcLfWGw/8h8sLizcvHGDuGhmeubqlStb/4Bw8xAEsVqtNpuN0EXbimhLPm//zlsPIRwyKGqHUPtfIZTJK8tiN5CCZe67oyPdKH6HI4594hobmFxVUH929sL6i3UUBCGbGYYtdjvoUESIQxdhGG7Q/Zzb1StXZqZnXr0DIhaCoribZ7FY7t69++LFCxiGsZfbqydv77+FEvhFQAhzQAjA7DYcTbC9PLtFQa9ixecn+vL9DsX7HAiP9EwJdI3xPBpETeQYNKMrj1dgAETwCISj4XYghNphFIMdbtHP0xGPHj3SDWq3JoWJmyCmuWyO7c6dO9nZ2XNzc1arFXVsBI5+ntvd/tbXk8AvAkJ2FLflAMwO2FHYjtjVNYO8lHx+SpEwudhzT9SJj/1iT1Hj/OluB0Kc9/qSommtdZ23rtxGABhDYAy1oZgNxQAUAxAMwN2rn2Pb2Njo7uqCYfhrX07QL6xW68bGRltb25EjRyorK589e0ZAC0XRr0Hua5dvv/3ZJfDLgpDVjkJ2xD7UPcWIy2TF5wqSi2M9GW47QyjhYlF6UeDJZOc9ge6Hg12P+Eo4iru3v8AQBENBDAUwzIJiZhSz/CwQgmG4u6trY2ODoFm8CiQEQQiFc/fuXTKZ/P777wuFws8++4yYDduG0M+OkB+8gV8ChDA7ihtwAGa32DGbHcEmdQuUSAkzLkeQXMyIUp34MCDEOVVILkkOFrofiPR1ign1SvBzCZHxMp/efwzbAAS2IrAJBNcQZMMR6f5BsfyDTzAMDS1duEBEtHu6uy8uLW19AQRBBI9pZGTkxIkTf/7znxMTE5eWlkAQJBQRoYW2ddGWxN62nbceQqgdxkMBqCOcYLJjVjuK3Lp4LyGASY3KlJArBUlFfocSvPbF0KOzuEkFwc6pJ/cEB7kmBLrFuB/xVUlybly9vrH6AgQ21tcewvDaTw+hc2fP7vz4k9/++j+I5nrCeWVlZWscEDi5e/duRETEhx9++Jvf/Gbfvn1ardZsNm8F67b4TVtXbe+8PRL4pUAIc0Bo045Z7Chsem4NcI4nh0nFqeXc+PxoN5rbjrAUf74srSz+FPvoR/5BJ5OocWIfp1Af54DEqMTpMSNis9gxAEFMPz2Evr+zMQyz2WyDg4N79uz5j//4j9///ve//e1vc3NzHz16ZLPZrFYrgTEIgr7//2x/+nNJ4JcAIdSOYq9CCMSsmNeh0NhTTH5SMTe+kBqmdN8VEXEyXUouTQ+VHPswIMApUZJRGOaR5HnEz/O4l9dJz7s3b8KQ1WpZ/Vl8oe/pXRiGV1ZWxGLx+++//+tf//pXv/rVb37zm+jo6HPnzkEQZLFYXs3s+J7/s/3RzyWBtxtCmB1F7PCrELKbcHfIhgY4xwQ4JdMis3gJReLkUr8D8T77ojlxWazYLNddYd6HYiUZJXEBtL3vHfvj/3ln/ycH/DxP3bq6bN548bZBCACA+/fvnzhxYu/evZGRkS4uLkeOHNm3b19HRwcIghaLZW1tDQCAn2t8bH/vD0rglwWhdbsDQqgFFWVkO30SGO3BYkXnS1MrI10oR971inJPE5EKIt0ozp8Ep4YIGfFKl33+f/n1x0d2Hd+/Yz8tNf3W9asOxtwPiuWnOwHDsPPnz1dXV58+ffr8+fN0Or21tbW2tlaj0dy7d89qtRIZU9uG3E/XJT/ym95qCNkxPBKHNzwoB+HzQnbAjkGQGWqv1ux/96Tv4VhKmJQdm5PgTd/zu2Meu4Pl6UWUMOGhd738jyfI6aXRp9I++q+9Hod93A977vtwT1FWgf0lQ8HxF3UoJeL1ZyMubG5ugiC4trZ25syZ5ORkrVa7ubn55MmTlZUVAABMJpPNZvuR3frf7nSic77qoq03r3bfd+7/lSH5z2Ebv90Qstsx3AvCcAjhDXM4RRgMQqPaUbfDHgc/PB7pnsyOzUwPEez/08n3/m13pFsKN1HhfzT66AcepGAGM0F08IMTB94/Guef5LzHxf2w+4vn6yarFcUwALSiGITZIRifcgVRnNyN4hQgzAGrnxBQBCMOAIBbt27R6fTJyUmCr01MCv3rEBRQvLf/uhFd/i2vGIJzjzHYjkF/bTgZkmigg16ME7tQzIZgIGxHYPwCO9G22PsOAr+Dxoy90Wz7Ww4hBMOVD4RieNICnvOAU+bsMAzOTU8Fe/sf+fSI77FgRqSYHilx+sh7138djXBL5iRIQ0/G7fvzsSjPJAFJFnA8ZM+fDiT4pwSeCN3zzv6O9l4AxqsxwBhsAjZA1GwG1iDEgsOJgJBDqj8lh4GY87HZbLdv32YwGFNTU/+aZttrQ4gY93+Loq9BCLPZ7TYEBRC7DbZDBIrwkeNoXzEm8efxf3MIYQ6SNfhNCFmtpuWl88nR8Z5HPF33eJKDOKxouee+kJM7fKM9Uxkxoljv1F2/P+R7JERAklGjmAffPRrlGRd7KvGD//w4OCB8dX0TwYctsrL+JQBvmoFVCLFgr0II/UmZdNsQIuzOvyqgl3vfVEG4VYLnhX2liV6a+VvG2ktlg2sdCIcQakXsNtSBIsTusGhevuJfQpg3b5YD8zZroe+EEABYHtz7PCOZnBCc4HngVIxHGiVE4Hc4MvB4TIxXakYEjxrJPfqh68md3unhdFlGZqRHrNser1CXyCOfHP/Tf73b1tZpsdisgNVkXodxKQMoZnNACEcWbsvhz8Ofzp3YhtB3QchhuDtA85URjx+AcLqxg4HvMN1ww8yOY+2rjiN8IlzRIChsRRAzilpQRxc7DA0Yn6Z/5V86+vuNOvuXCSGbZXNtlU2h0xKoER6x4SeTkn0ZISfiw1wSI92TUwLprDiR/7Fw5x2eEe5x/BSxJF1x4J0jzjvdonxi//K7D06e8LhwbnljfROGQQQFYWQbQj/d8+J7vuml7vmWv1uDHrFjIB5T+lsUYTgNGSVcJNxGJ8w1FIUsKLSJwZsYYrYjZgdVErTj5gaC23D/GCX0Vi/R9Z1aCIJsCGjLkihSI1OTAlMjXJKTfBkxnmnhrknhromx3mRKBCfSI9Fll0+Ya3R6OC2TkXPkA6cjHziRwtIO73T63a//nJ9V/PThlyiCms0bIGjGqahE4vi2FvqeMf5P/uhr0MHDSC/bS3QQMQQUtOMNcoQUYCLa5DjjK/DADiUFowhkQeANBMFRZEdMdsRsxwAcg47QEeFg4+rqzX7XL1ILgRCAoXB1cXmkbyQpJD3aPTU1kEMKZEW4JYe7Jka4JSX6UaK9kt32nIr2Skj0JwlTpe57vY995JwcnOrnEvz7X7/r6xp47eJ166b1xZdfgjarQ6aO2gvbEHqz8fQmV38rhLaib7j6wBsK22HEDhENzwHDK2o4jr16GHd/EAi2QogZRkw4scuhiOyoFZ+ad/i9WzEq5M08318khCDYhiHwYLcmyjeKHJYR55We4E0lBTIDj8eEOMeFOMcFn4iJ9yX7HAqK9Uly3+tNiaDH+iQeeu9YmFvE4U+c9n14xOOwT1VhzeqTVeuGGQFBO4o7qC/1+1eG9ZuMhh917dvjCyEIAgCA1bEBAGCxWIjqYl8b3MQN/6jf+MMnYxgCIyiCoI7kD7xyE4one0F2DEARMwyaEciKIgAK2WAz7NAtCGJCEROGWnCfB7SiIAADVhgAYCtgh2AEgtcsZhME2BAbiAAgZIYhE4ZsQQhBccMDj/H+K0IIQSAMgS4unosJiEkOSiMHskOdkmI8yX5HIkOc4+J80vyPhoecjA52jkoNyQh0CvU/FkwOzTj2kbP/8aAjH544/KHz4Q+OB7mFfHb5MxRAQDOA4hkHOIQclHA8TvOvGU5AEMRmswEAsLm5CQDA7Ozso0ePvokf4sgPo+JHneHw/zEERSC8jJHFYlnHb8JigmxmFDIh8AYKrcG2FWDTZFuF4TUU2YDhdQhaR3A9YwVAM2CzmCwmAIJMAAAiyOdPni4/+HLm6m39zIJuYvLu44cAaMFQG27IOWxAFEO/gtDL2fYfdb9bJ/8itRAOIRh8cvdBXFBcrG8SM0oSfDwh8FiMz8GwcNdEaiQ/zDXeY59/yMno9HB6ejjNfa9X0Ikw74N+/keDkvzTkgMy3v/3Tw59cFTT2Gt6YQI3rSgIEYrIESTFA6ZvaB9vyfd1dt4eLUTUvkQQBATBubm50tLSy5cvv1rI4VU4vc5P+3HnOBx8FEYITtOm1bIJApuwzeSICWzY4XUUWoOsFtiMYFYYtQCQyQxumkCTGbFtIOBTs+nCnTujZ893jBj7pmapqnxSVnmUIDeAzA4l00YXz6xbzHhptJcQwjDc9sC10L8mhFDIBqyZyFHkKK94brwixj2dmBcKd01ix0uTAjK8DwX7HQ1L9E+lRjEj3GMOv3/cc/8p74O+RYLKptwOz92+zjtcEoOTLp9etm1YMQjHDq6FcDrRvzSEiNyky5cvs9nsxsbGBw8e/EQQwjAMRhCHAYZn8mJ4mQubIz/MjCHrGLSKgisIuALZVgHLGmB5btl8tL568/Gj6eVLjXq9vK4hq7U9I784hCv2ZwvDxJn/e8/xXdH0EHFZOC/XLYZcp9Hff/YcRgh/Co9E/BVC/4K+EC5pG4BaQX46P8orjh0rTw/mee4NPvSua4hzHCdBSovmh7nGeR8MjPVJZsZxo73i9/7poMsuD++DvnWZrZ1F/ZKUTP8jgUc/PlqRXfb80TNHWt82hHCCDQzDV69e5XA4Uql0eXkZBMFXNc+r+z9Ow/zg2S8hBIN4/WcEDxFgGzbrBmQzY8imHX2GAF+YV2+vPpu7eq1FN5xT3yyrrBNV1KYocw9GJf6/B5wOJ9O8BSofWUFEcb27rPB/HvcPyGnLM15XaWaDmEppRdON+48gnOsDE4YcEdf+7x2RwwsNYETxnb8l+CAI6NDntkJ5UYxPYkaYgB0jD3FO2P/nE14HQmhRAnaCJCmA4rnfP+BYaHIAOdg5IuBYSIJvSnIAWZAgrxQ3Vkkakv1SPfZ7hHkEG7Wj5jWzHZ9W/VfXQlar9ezZs0VFRTwe79y5cyaTiWDrvYqcrf0fBMXXTthiEHzrcVztwAgIwVbAtrax8ejLL2/c/Xxu6fzEuTMjpxcGpqc6x0dbR/WNw0PKhja/dN4HHiF7ghN92cogaeFhiug3/gk+2TVcwxn+xKUMw5nd4pJ3KKqY5hnZ6G1Bz1yYuCRGkH3hzj0Q93hhPKqH4pVxUfQf4Pf+aF+IEMR30mJfYT5vnfOSdPEVzw+fS8ZVJ1HVzTExvCXdv93B8CcGDNohAI+5QFbc60dgfNoZgm02yGzTtA7E+ZMS/WlCUjY5jO30qbfrbj9yKJMRK4g7RXLZ6XX4vRPuO71JARQVNb9UWFPCr07xptJCeFWiBlVGbqhL+Mk9LkwSc3Fq0bKJl+RFHPVNbCgEocgbTVl/bZh879uf1xciij/a7XYAAObm5oqLi5uamu7evWuxWAif5LsMOQRB8XVqHMvS4FwZPJTm4AkgEIrbSwgC2TAEwiAExZcNQGG7HUAQKwTbQAiywRiEoiACgvDKpum5xXLliwfjS5f7pxdbdWMlzZ0lLZ28vOK8pg5ReR0tr8SHygzgiaKychMKy+Lya7x4+S6c/MSaQfnYVcXUrZimkY9pWc45Dazx5fSRJffqgf8VzfFpGY8bvMIe/5yjWyLXDjgls4eXrpoQvB4NruEcEMJ335iJ8loQ2hrYKEGmwF/xSS6iORy0r0izW0w+YoegzuKMv79tuIBxrwN/6jueat+GPPxjzARDmyi4gQJrkHkD3jQjZgtoBkArDMIohJ2evpgQmhEXkMEnq2hxwiCXWI+DAaFuMVGeCV77/Vw+9fDY6X3yA09WmLBe2q7O6m/PGlSRik++651HLasUN6SFMrwO+fm7BMu4mVeXb9ggGLajZti6ZtsAYNt/ewihKErkI21ubsIw/PDhQ5FIND4+bjabIQgi6grhQ+7bopMoigE2yGwBABuODwSBQJsVhmx2DAbN6zbzGoZYQdMKarNgJtC2bt0wWUww/MJme2EF1jet5nWr5YX14e1HZ88tdxrGKge0STmFXvzMvfG046m8HcEpnhnSAxEUZde4rHtCoZ33z6lLaBtijp7jTlyKax5yVdYH1wxRDNepE/do0/ejuhd3C8t28fIYhtPJmskPOPm/y1BRF74IHFxKX7hHGblE1Ux+HJ3Wc+biKj5qcLTbERiv7kSQ7d6sp38chLb0yRZ4CPyAxJTvK5TyLWI5MVMMOuaLt14dEEIQfI7MkQ2Ew+hvUeS4HkbQFcCyhtisdhiwg1bMsmlbW918vra+at0EwE1kYXwpOZyeFEInh7PTIzjx/unOOz0Pv+/ke8g/zjuBEcFM9iJ5fewbf4JURK1plHT35o4U02pJHjRaIK+YU1Uurfc5HBjgGhYZENfXrVtZXYcxdM26sWJdA3Eq1puJ9ns1z6sf/ixaCMMwAACePXsGQZDJZHry5Elvb29eXt6jR4+I6sREdS7HshrfEp50eC6oDYQBG4gv8QTaYAhEcOUDm9dfmNeewzaTzbSKAIDdDIMm8MnztWcW62MAuPPs+eUbtxdmzxv6xktyqtIyBFE07senAv/T3ddTWuQlKRb2TXHaR8OU1cGySmn/QtHMzUzjVd/iDu+y7tjeOe7cnbDGoZM5LTHdi7SZB/TTz6nzT6P6zh9S1n7CzGQMzceo9b+KZXrX6xPGrgaPXE6a/4xsvMQaPr0zmdkys/jMBtrsGIKiDvy8hNC3/L5X++cH9v9OCG1poa2MDUdKBj4YXm0v83z+yrhF8JkszEE+hxwsdNhRdd6hTrcsu5dwQvFy9KgNRUEMsWE2GLWhCN7w0A2AmJ6ap7ULySHUKK+UlEA6LYKbEpDhucc35HhYDj23q7izJatFECUURYnJ7hk0H06DoLNTqa3mtjTJOsOPxGdRiqqVTax4QdSp+BDvyDxV4Y2bdwAINMNWM2KF8Gjnf2cIIQhisVhgGF5dXb13797g4GBISMjFixeJ4lvEpCoR3f7WtZuIdZ/woBaCx6BhGB+WG5ubKIrYbIDVatnc3Hz2/Pn6ytrKk7VHD58t3/7izK3PdWcvFLdrkhliF4/QQwc99+31CI1j8EoaQgXKIykMcd+UUr8o7pumNmk/iqLSWgy8vrmSc/cUk1eDK3qPK+pi1BOciWt+FRrvck366HXW4lP2+dWM+cex2gtuJe0f0OWRzf0Btd3/kSpKm7weYbgYMXUrevomeXxZNLN8lC0rNxgfbJoAPBiH2+wYiuAvjoTOH0DJ9378uhD6iv/6iiG3xbwgwIPPpWAvs0wRwkYj0k1fEtIJfeNg9yF2CLKDkB18FUVfDVmCKO3AGQyiVjMAWG0QBKMQhAAAaDaDm+YvP3948+y1ed2spqqPFsaMOplA8qakncrgRQl5kQJOOKdGVNVT0JlLzhKG8VrEzWqpmnwyg+LKbBX1DBSOtGf15VBKKIGsSml9paKenyqJ9k8IPhWu6Rl89nzFAgAAjK+b971y+0d++LNoIaIopNlsXl5eLiwszMzMPHfuHFEziDDkXmIDr+79zV+LIgiIF+iDYBhfqROEIBDBVjZMFhBZNVmfrm4u37o3e+7y2PTpyupOobKckVkWy1dFCbNSVWWcggamoioiWZRIzy5oGy3Szkm6Rg+TeLSavubz9znto5/Es1zERdyhRYZuXjx1WWC8FNOoP8gtimswhJZrTmY1xvbM0Wbups8+SJt/nDT5edLI5VD18Ics5V5xrlN+rWfDQOrMrZjJG3Fn74dPXiNNXRbNXw4srFH1DNx4/sJsx2wYCmE4DwKvEI3+8+eFCEdoy4Qj2BBb/L+vdhzscUeCKYIzZr/WEMT+asNnYUD4q4aTnRxMp5fRRZxciuspvAipFQXXbMgGiG1AthXL6qOVp58/fnjrfi5bHuEU6PLB8WSPeHYIs5xVbqweHyzUanI0VayqNHeSKIzToWwqo+bLI4RqYdNgdn8ttSZ+f0JJSvlggaEnf7Atszvdj55Fza+Q1pbJqnlkUahPZFxk0uT4tNUCmM1W8CcsOvWzQIiIX///0z5cLtdgMMAw/PjxY8KEI+4HcGzfqoIcycQIBAIW86YNwMt/wyhqtkFP1iyPV9duP3zcMzIblc477h/zqZPfn3a573aL5pV2lmgXKkYvVI4uSZoMQfRczyQpr7y/dOhi8fhVsWY+Jq+FlNNSqDu/I4b1XgyDPjDLNJ6Tnr/DmLzEn7lK6ZvdmSo5yS7YkSB0VTWkj10lT95JnrqbMHkvZvQGefJaonZ2ryT/HSp/l6wwcWwpceZ25Mzt+ItPw2dvJk9fzhhdTO/W8dWdS48eE7UIQTviaDjv+w3rrP+wFnoVQltxha3I5lc7BBkd10MwkWf614xcnBn4tw13M0AEj1bj1eLx8x0s6a9CdI4VhOwghhfBNiG2FcDy1LRy49F097CczA0/7nvinb3+u91OvnPY7Z1jqgRJi7heLWnqz+5rl3S0i9U9svaCRBXbO10UyBAFMYuTs4fztWpesy5roCy5lOPJbeC3TjUvFFLL86jFYU7ROazCSkVtDq8gITh51/u7BUzh7eufmTZwN/mbj95/0pGfBUIQBD169Gh2dlYikTx58uTp06coihLsnq1EdBDE/ZxvQxFuwUE2q8VsQmAIQdGnL9Zmzy1PnrlCEWbvcvbb5RZMUZTntQ5Jq3rD6Lm7fVNjJFVF+vPVM7cyNQt+3NJdYawgfqW8c6Fi5vPCqTtS3UVO67hHioxbN/SnABJLM0PXn2bNXREt36NOX2JNX+aOXPggmvXnU6TDJHlc4zB57Er82HXywsOU+Ydx4zfJk1dJhgXPssZfRSbvlBUmTlxMPf1FyMT12ItPIhfuJE9fiekd4Y/OslvU5+7fJ2oR2hwQsuGc058EQlsq6JsQ+quXg4fW8JJVEJ4hCOHVCHD1gjd8aa2tNHecnoQ3DEcJiKE48/xlfA6HEgqisAUG123W5+bHNx5oKtoq+fmMEFLwfs/YE0GCcGpBurwoPTP+SKjPey6Z0cIuWVO/qrNX1tkt7uqXa4ay+stT8qN3BAa950FzSapJLxrJ6x/JG5gsHmmg1lJPUpuFrW2KrlZFR6O81W9fUKp/RomwMj2cdvjDYzv+smvHu7uKc0rXvlxDIISwX4jxTbz+ciFEPOm27h/DsBcvXjQ2NoaHh994ufCRyWTCMGxjYwMAAKJGMYqixFu7Q+9sXe54i8IwCIF4FHNlbb17wBCbxvr0qMde95BUcUFl/2yJZpZZ3OEcz0/NVR+KETqTlOL2mfLJW4KOWTdWia+4Tj54STa4nDV2m9qxIBm6Kuic907N9GcXuXOLUttGkronyJNLtDM3SZMXyWPnRBOX3g+n/uqAf5isRjR2OWl4OWb0Gm3pecb5LxOnbqVOLKeNLMR2DPw/zl77VGXJ01dTzjwIMF6LXnocfeZu0vTlEPWgbPoss6n19L0vNhzlPK12BMAbvk4B9M9mJzgMKxypIIogW/RLAkw4XxzFcLzAKO6wQCbIumozmWHbi81VAMErPwCIDULwWA2K4tkEeNyNSANBIdvGBrC2jlhBDMbATSvwwrT5ePX2+evDHYMqtizY2W/v7z459vtdMUcCxJH0DkWtobRHn9/Zo2jMi5OqIgTVGQXhn/iw3FPaeTU6Ze9Itn4s1zAo79GI2+ozSmJ2BPj+0VkjaR7O1vRJ27VKzWjeEM+HlxWfo1Z21woamhVqeYrq5Afue397wG2XJzOOFesX9+f/886ud3ar69Sbqyar2UoQLrcWcvwnVdL5CbSQxWIxm81EDAAEwZWVFZ1OFxYWplariSUrieD1tz4pYBi22Wwmk4mAlmMKCF9D2mw2r6ysaPq1LIFkx8ETO4570RQliuru9qmrbTM3y3QXfDJy90Wwxe3Tsdlq14x8Uml/tm7ZhV70cZQwtcFI71rkDV6ST3zG7LugMC7ewuIAACAASURBVN7mtc8djeD81ikipbJPMrYsXrhDnlpOm7tGmbsa0z9FG5w9QBL9/mR4Qk6TdOIaefxGnPEGaeEB+fSjeOO1RMNZxsTZ6IbO/7nv+Kmm3rjxy2lLX/qMXHYfXY5YvBNrvECfOi80zieXVc599tmmI2PPjEJmxAagCL4Q4k8AIbMNMIGADYGJ4Q/BMGgDEQh2JGs4HBncu8Fp6qCDeg4gyIbVakNgBMPMjpK2OHAgFNi0gCYrZLaZHj2/f+nGtfkLAw2dlfL8ckleAUcpTmaywsnMkNRkj6joY4FFVFWjoDQrhuv/zomSZPmAsrVf3tYvU2skrVJ/TiOtrF/aWhAtEXil16bl62TdI5l6g0I7KOnRyjqrUvJT9kdSjsVWkrK7hI398vaRvIEecXs1pSJqf3ROSn6ror1WUM8J54ccDnf/1JMbyy8RluXzC2O8Y133uHFSuRcWlixmy8bGBlFSFIIgYvLk1SfxP2r/nw2hrdrcZrN5Y2Pj0aNHHR0dPB5vcnLy4cOHKIqCjo2IYn/zR4EgCAAAHjMgCNTr6y9evLiwdFGqzPYNieTKVBx5bhJLFpzKl1V1VQ4uas7ez+s9HcyvPJ6spNeOyAfPKwYvHCNn+/Gqkov6guXNSdUG4fAV4fhN6cxdwdhNStcZ1cTngq7F43GCUEmlqG9RPLosnL1Nm72RMnGFdfqz9OHzcY3anfHMvRHpiXmNbN05yuTt1Om7afMPyXP3SZM308YuhDb2/JFE+78xKacae5JnrkdM3wmdvRe6eC9i7las8QJ5aJYzNOUnlIxevrKB4ZoHQCErAtpQ5CfyhWAMs2GIFYHw5CY8aonz4REIwT0aK2i3gI4yKY5wNWqHYdRmhSArnjKI2lDTs027FbUDduhL89LYYn1OOS08JeywV5yTP+1UHMUzJuF4IMUjuihV2pNZ35fZ1MotkwTQYnf5t3Eqx/J6BuRNRbHi8Pfch5SdrfTqkeyBHn6b0JPVzW825g1o5eryRFVuuKCb02RUDQ/L9XpZn0bYlhUspB1PzIsSK0M4/Qp1u7C+V66eqR7XKLurGFVOvztRRC3NSyvw3elfQC3MJGcHHwrjRPEKOUWlgtK0QLLHHo9Mnurz258TsyJWq3VtbY2IAn9zhL35kX82hPCQGQTZbDaLBQ83Tk5OKpXKhw8fEgvsgSBIpDZ8F4SIOVZiHSTCg+rV9MelpH20/9huJ08yT1nY2BtA4lb0Txd2T3ad/iKvZ55WoT2ekiXuPJ2pXZYPLWUPL0epmk+mqtzScuPyu3l9Z9hDFzjjV0Rzd4STtzKn7xbM3CeVD757KsmLUyDRnePqztOHLnHn7rDm7lDGLnMmrjpLSkg1nQcTqL7CXPrAIm36Lv30k/S5hymTn1Ombyf2T+9iy/8zOtlJme9Z2Z4yfTPQcDXm9OPE5ReRM7cidYsZw/MhJfUH4pIHTp9ZQxwTwBgCIfj8MVF64Vtijq/dr68VTiA4s5sgAMIQwSZAEQQPB0KOGkNWyG6yYetW8IXZ8qUJWgPhDQhcsX1x8bPzhvn2okZxIivVOzrJJfTUJ04JTkHJTsGx+3wKE4Tt/DJtZlMdJUfgSSqMFhqUbXNF2qncvur4LN7xFJ2wxajqHhQ3DinaQv7g2pxeruG16aV9g6IexSlhO71+LKtPr+joFTYoApl1pLIx5bBRNTKs0LbSavnuVJ4HpT6jSBHCbmCWdogb2wQNE5WjgzmagbyBNPf0+GMJjAAWN5RXxavuKegtYZZyIriZaarmrNYiTnG8Z3ykd2RHawcRlQIAwGw2WyyWb7VzXlvU33niPxtCGIatrq6+ePHCZrONjY0xGIyxsbGNjQ08rQ2GrVbcXiVCCMTrN28UBEGiQP7q6mp1dbXPKd+oJHJAfEYSO3Onk+9//nk3Pbe+a/52y+T13J65hunPTjGK+C3TOdorOYarypFLmUMXROrJg5Hcw5F8cmk/q3uWPrjIHr/Enbkumr5ZcvYJv+esO7t4dyzrvTCKfHhJMnqNpl0STH0uXXyU1LPAH7viLCrKaO47QeU5M0VJ7WOMmbvss8/SZx+kGG9Rxq+H1Pe/n8p0Veb7FlW7FDUmT1wPG7kZu/AkYelZ9MytkN4p2vDifppwT2Ts4MLiis1qwwsnoHhSH+pYyvpNAGR/jdoJmCNkYcHgDcACIjiE7JgdBmyQyYJawa+CagBi37BZvli5u3hjpHFQlMBJ802MdQomucVEHvSN2e/H9kqqSVdVkZQNlBz2yVixd6pO2jgoqtdLmhpTcpmHYiQu5I70Mj23WZ1czD+UzNwdO8JvP5M/NMBr0EvacoOEcm+OUaXvYqpHlfrsAHlzerVe1jUgaR3N7coO4xZGqPr5mnHV2LBSVxafT3NKyQ4TdQrq8mIlggBai6i2iV/bLm3RFvQ3CZt7czSJx5OiD8dUcauruNWDpdreQo0gWljOr6iT19fJ6mUkeYhbaFpKmlarXV9fJ1a0JwbcN4fXmx/5Z0PIbrebzeanT58ajUYKhSKTyZ4/f04sGLFV7fF7foXZbF5dXbVYLPfv31er1RQKJTg0zD88Ll2cX6w2pIqLfr/HLZSRld89XT9xo3LkanbvGde07Ky+pULDzeKJ24qRC1nD5xRdM7v80g+HsVm1Q8KBBf7YBf7cVe7sVd74smx4OVDeuC9RFJHf+GufOIVxOWvmc57hqmjiLm/sFlN3ybeg3UNeRlP3+8mzD2ZwQmr66NP3OGeeU6bvk0ZvkPQXPQqa9jHEGV3akLKG49nVKcabsRP3Yucex55+FDN9K7R7MqHD8GF8xvGEVP3C6RdmE4Rz+XAMoXhSxZZ//z0y+L6PXksL2TDEjIBWR5QKBKGVL58vLZzpa26vyyspEmdmMgRyCjuTws0hC3PiBbIgGtM1oTRBVpGk6OZWNqblyD3JWd6UQXaFnl0zwq9n7wsvDxEMcevHxW3Tsq4hVmNlsEzulFYTppwQdnYmlUgOppZ6i2aFmqXcEaO4w6js7mHVc46n68WaYaVuSDYo9xG1Mxu10s5hVY9B2V6bmiP34ZbHlg7JdHr5oNxfyDiZqubW9ina6pllNI8UfiCjhlXeoWjtz9e0K9p7c3q5QVy/j32zk7Na5a0dWZ2titZiRgk7lK1MyWyUN5fxyslh5FMep5KSkrs6ux4/fmK1WAnaMh6M+tv2fdJ9vc/+2RBCEOTWrVuNjY1KpbK7u/uLL77YeigQECKUDJHX8Dc/Dg9KYoSn9OWzZy1t6tDwSG9f/9gkEl2cJa1oj2CqQhmZ1Pwmf5pK0mgoH7qY03v6JCkzvbhP0j5fYLhePHErc/Qcu1UfxC9yief7pas4tbqc8UuSyYvCuSuCuSs03UJIftvueGGArCpDPfRv3nGk5hGedkk2dktm/JyrvRJTO/x+kiistJU/OBpZUrGHwjxV1k6f/Jy98CRj8l7qyPWYrhkXVWV0dYtoaDy+oeOIojxt6rOEyfsJC19GzdyNnbgWp13Yy88+wpYGC6RDi2e+XF+DYAgnAuAcOZSgPL9eR337Wa8FISsE4+FnDAVBGLHCpocvOvKquySlOllVK0XFPxnFdo5oSM9spxZ2pBSqY3MLPRjDzJoZUes4t36MU9uXWkh6x7sntVBDKR/hNad/GNgcrRimVc7y2qY4HRPsLm1Gc7GftDBQ3Mepq4pRiJ1SdRkN04zu04LB00q9jt0yLtcUhMroTqTR3MEGWqXUn6cRtQ3JOoclHcNC9RC3ReXDV/iJa8kVjRnVyhAxz5vexKruz+zU5/fVsipSnZNYfvRmUWN/vqY/T9PAr4s/HssKoMceicwl53bmdHbmdHTmdsiT5InuSfwYYaW4SpIuCfEODj4VzKAwh3XDNqvtxfMVBzsejyfaEHDDsmkCzDbcnH0zO+BlvPgfWM306dOnVqt1ZWWFoPAsLy83Nzer1eoLFy4QTh2xtN6WXUr4OXhcAee5ORxsnAYM2REItQEIYEVAaGjYGJmYttvJ0zkoVlzSkN82mCQpjJUWqrqGFV3DyQWNO0PSyHlt+0MZSapWRdtsxfhnlbP3c0evKAanDifRXdNFrKqeWGUtqaRLpjsjH1vKPX1bOrUcV9/3YTzDlZ8rHJzhD83/NpjsLi6vPH2f2z2nMl7N6Jr4cwLruLworVcvHJ6gdvbuTKW5qCophouc2c9Zs3dSDRfCmrUnFAWsfr14aIyh0e/gZqVN3SbNP007v0pe/CJm7Py+/Kp32cKIxqaIglxVa+ONh/chvCgDjEIgipMrcHrFt4Pj9Y6+LoSIeRzIhmAWdPPOl238wgFm0RlJ8xSjosw9Lcc5qT+jeIxdP0lvHEmprHHnzNLrL4g6pxm1M+yGcWYt/eOg4lOsPkqFlt2Y8WloZ3z2OKP6NL9jltk1zeo1cnobYotzg4VV5OysMBbnePwIq3mW3r3A7D+vGDEw28bE3Y2k4tidQfX00sKkTGWEYEDWZpB2DAvbxwWdU4Ke5qQy5om0zBBRTXqpIkSYG6NsFzZ1SVr1+f2dcnVuUlaKc5IoTDCQr+nKVDcKakP3BuWkZJLdk+n+1DJWaWdOe0duR62klhnGinNPUKQpy2UV1ARqoLt/dGBUaV4pCqEgAGIoBgAgjKEWGFi3bm5CVis+/fV2Qcjk2CAIAgDgwYMHz549Gx8fr6mpmZ+fX19fJ2Z4vsvnwTkviO2reTwIwLNMLCYMADZW1+WKnHd3Hd3rGR7Ny83tHCvqHQ9mSLi17cWjs9LeYWH38O5o6sEI2k6/NFXLVIHmQsnYrdLpu/nj16g17SfT2aTiemWPMVJVk1jSqRw6L9WdzTReko2cDy1qOsKSJdS2S0YX2fr5w8zsHQnc0snrWfqzyuEzXlllfyHRIprbGcNjIuMUS6M9QOW5ZZZR9Ivsqauc2evJujmP0ka3nGK+3iAeHqX36T7hKNOnbpPmnlCXVslzt2OG539FYewvKIgf7AmrKKCW51/4/DYeW0YhFAbxBEMHQ+n1wPLtZ70WhAAYweeFMAy2IZgZfbx0p41boEnPPcNvWGTVdodJKr1pHfGqMWbdPLt1JLmixo09S61bEnQscppP81qn2Q0l3izGjpCu1JJeahXnQEx3cs4Mt/6CpHeB3TvN0kzxBzS05rwwsSKEKfRNZTnF6Wn1C0zNIqPvrNRg5Hbp2C297Pq0IzE8H4rAP6MoSaFVqIfE6lFh+7S4d1rQq+O2SX1YXI8MZagwJ0rWxqvvlbd3SVr7Mru6le09mR2cAGbCsdhmUUO7vLkgNTv6UFgls6QgLYdyKo0ZRG+Q1reqWtuy1fmMgnR/CiuSU62sbiisz4inOO8/ERsS063uRiBkfW3DYgFABLbANitiAzAYwMlKbxeEiBi0zWbb3Nx8+vTpwsJCU1PT0NDQ48ePify578pfcNioGAjhtZHtdggyb6CA2W4Dnt6/39zQ7OLuu+OIRxw3K6d9WNlmiJeVJMryVV264rHZLP2ktH/scAr33/d5e5AUtforpYOXVP0Xckeu5o1fCVMUJhdU5uomcrTT0Tm1sUVtCt1ZqfaMWHua1zfroyyPrWrla8fFowv0gamQopbf+yXJemdLJpZFfZN/jktzzS1mjI6zjRPi8Sl2n95VrPLOraTq51kTy/SJi6Ht+v2y/KDKev6QQTpmTO/W7OJnpU/dTJz6gnrhRdLklUDN8P8mpXm2NpPHh6IaypILVIu3rltgPGMJz2XC3SG8YtC3g+P1jr4WhECcK43X3oIBHEJL+tlGqqo/Lecsv+Ess85IKmwO5DWFiWf4LWcEHbqE4mo31iyt/hxPfY7ffl7UOcNuGiSX8fdF53kxmhJzpSdSulNyZnj158Q9C+zeSXrPBFczJuqtTMhiuMbTTkYr/ahDrIYZRtcZzsBpsXaM0zHEbdUKW7NCeZQTscEfuleQs3RK9aCwZUTcPiPvmxL29DMbO1i12WHi1MOxmaHCfnn7oKpbo2jXKDs0qs5uZXuToF4YypNGipqEtXGHI3hBjFZpQ1dWWyEll+qXLooWVPDK1Tnqtpy2PFo+I4zJT+LL6bL4wLiT+51dDp0M9ArQ9ekefvEIhvAnGIDAAAqCGAK+fYYcMXuzubl5584dnU5XU1Oj1Wrv37+PpyQ4QttELPvbaDt2BEWsgBlBQXzmYnMNNG/ev3OnrqLK71TAux/uOhVJym8ZyOsYjpeWBtKkqpa+auNCrm5cOWhMLm/yoMs/9Us6GS+o1l4s7j9fOXVb2neaVN0XJMnjNXXlaseLRxbodZoAaRm5tj97dEmiXYwt7/SSl1A7dMKhKfnEWZZuJq6q6w/+SYL2sWz9YkKF+mMyM7l7kD89xxqb4I9OCPSjocVV3jnlaX0T3KnlmO6x/Zlle2V5yd39fMOwfGIiua3jgCSPNLocN3qLeu4paerKnoLKvUWlAb2djIWp5M7GUBnfeOnCms1isZpx4jJOB3gjK87++hE5ANd8eBkvzIL1l7dVJYuHMgqX+E3nGLULGZXdoZL6AO6soPm0UN0bnV3twVpgNZ3mtCwJOy8IO2ZZjVOcprbYLMbOsDxfZo4PtZecP8mtm+eqT3P7phm9o/TOCbGmg15BPxmdfMC3MlE6LmqboLad5Q2elmhH2eppWa+W39TJqRT4pDn9286ieMmgvGVA2GgQtU3JeydE3Tpeq07WUU8ppRxN4Hlm9MnUuqyePnl7v7KjW9Y2mNOrzdNU0ku5AUxuAC36QEgFvbAzs0VfommTNZQxCnmhTEWitC2rpaugo0ZSLYwThJ8Mi/QMz4hJpydQ44Pj9n+0N8g7qCS/9PGDJwBgQzDMBoMADL2FEIJh+MWLF/fu3SsuLi4rKyMKWdlsNsJigXAOOr6BIPjNhyyCISAMAqAVwpMagQd3Py/IyvFy8zx86PjOfcdCkmjK6o4UWbF/hphb1lKlnawanVX1Gaj1am+eglqpTs9v2utP4hR3l2vPt198nFrdd5AsiswqlXdrC/STRYY5UceQFyfHX1oq6Z9Jqelx4efGVLbx9ZMCwxRvaJo3NMPrm/g4OiM+v0k1OOvKy4qtb2eNTFKHx+gjRvbIuGhkgtTc4Z1dEtfaTxteOFlQ/xe61LOymTEyzh8dlU9PJrWpj2cWRvfOJAxfy1i4T5pY+j1XEqbTxY0Pp04Mpw90eHKo3TOTjzfXTVYLHtEHfyoIIXY7ngSM4Lk7dqu9RlJYFssboRZf4DQsMevP0WoGI5U13gxtatEsv6ktTFrrzT7Da5tnNV3gdZxht80xm6ZZjVP8FsnRBNaBiPJwvp5VPiVomGa3XBDpz/D1o7T2MX6nVtDIcYsN/8ipJlk6LW+fZLTOsbrPSAenRD2ziv5BbsN4TqfUL8P3j8eUIYw+ScOAqFEnbBmTdBnFXRNKTQ+vsYFSwvOgsF3JHby6Pllbn6xtILOjR942UW7QZHY082tVMVLf91wyPJJaRNWdysbBgs4OZWNffnsZI18YxSllFdTLqpuV9SqyIuRYYJCTv5DMr86qyOIqI0+F7X5vV+ipkI7mjruf3cMD/QgCQCD8j8gP/8dG5PAKbOvrAwMDRUVF8/Pzm5ubjnwemJg5JYwWgqb9TQjhFVjsmNVmBUEbBILagcEA34BT3gEuLj67Djif8IsMSGFFshT8irb64fka3WRme7+4XROWme8rVGVpxnK7jW4JXJ8UcYXubJ520UdYdChNmFbVnDUwWj6xmDM4Lu7Q+wvznKnSyNxaV26WmyCX1TuimDwjNS7Q+kZ4+un8mYtHKcJDyVx288AJlkw4OsMcmUjVDdGN44KJGd6QkdGr888rC6tsiWzS7BJk75IWxPQOMYyTPOOYdHoitbPzZHZxQMMgafQqZfp2YOfQO2J59OhI2uJMwqiWous5QSNX6wc/f/HcbLMhMF5uC894+AkMOdRuN9tAEEEwG2a32gsZ8vIY7kh6wRla1VVO8zKjfiQup9KVUhfAneDUNoYIan3Z50Ud84zGc5z2eVrTIrNlil4/zW9uipbHv+PamCQflzTMSlpnOK3XMo1XlBPjjM5Rjtogbua5x536/Z7CcMaUvHWW126kNJ+Ra89lD02Iu/T8prlCDdM5jnIsUuhD7hXUDIobtYKmIWHbqLhzQtXXw2uoJuVJTtGpTglFcYo+aUufrFWf0z1c0Gco0AxkdQzmdBWTspx/s5/kFNUmru5UNHRlNmoLu3pyWprEVeJoDjec3iir7shtkSeJqMFp6SGpqUHJKoaiVF6sYEmD3AJcD52MDY2ZHJskKj8QiWbfHIg/9sg/HELXrl3LycmZnp42mUxmsxmnkjjytwl626tY+tqtAiAIYxjOaIThx0+eCgXi4KBwBlPg7Or7yd7jB9wCnEMSGTmV1drJppGFGt2kUt0Xpcw7RqZn1LSWjSzkdA6zi1s/dY8s6JkMFOTvS+IklrdK+wzZ2rHC4SlV/4iidzgis3RfPG1XbMZ+Eie+ok00NKOYPCubOM0bmuLrJ7LGFv1lBb/zCPNgKQJVJWy9kT4yljFmZE/PyBfP0vr1PN1oeEl1YFHVSVXxRyypX0NXimEifXSMMz4mnh6naHrccoq9ytQU41XKxNXdWcX7i0uiRg1JM+OUhXGKXnM4PaWwp+vGk6dmEIRwFQSiCITAb2TLvZYvBCMoAMEwihdmRddAVQq3PJozkVF8nlp1jdl4hV4/RyqpccvIPBzTS8pWx0rrA7kLnKYzrJZzrLZzLPVZtnqSVjfDb9LRy1I/9mqnZI9LG6fFLXOCzmX56AWRwUhtH2W3GURNYu9E3z/slnjF69jlU9yW4fT6M4rBeUXfhLhjWNg8ldOZtMtPFUznuSeqGSVD8uZBYWM/t3FU2jUi7+oXNVcmZSkCWGzXFI57ak1afq+kSatqHynoG8zqHCseMBRo8hPkYZ96BX/sXsMo6FI2NArKRyv6e7Kb22Q1+WmKZNeYYnpOKTufG07Pp2dXiErYMYy0oJQ8bnapvIhH5gS6+e//eF9+Zv7TR1/aUbvZbEVg3BzYGqDE6NwKFn9tgH7X2zeBEOHS2BwbXoIIQW7fvp2Xl1daWnrt2jWzYyOIBcS3E/FrgrhNTAoR/B3iHiwAgHu8dvuTZy8qqmsDAsMEQjmTLdm174Sbb4RfLNk/kaaoVlf0Dlf3j5X2DPGqW06kUn35EmXfUN30+ZwOfZV29p1jfpS8un1R6T6CbEGvIWd4Mls3JuvWyrp1qv7RlKLaHREpfzwV6S3MFvQZRUMzEuOCbOos1zAlMkxkjc7FFlX/p2vgO/5RaQ2dHIMxQz+cPjLKmpoWzy7QBob4+tGI4gpngXwnQ3BQnpcwaIzXjpJHRjmTRvbYEE3b71NUfkRZxpy8mjA4928pFI/W5ohRXfz0CO3cDHVM68SiCWprLn3xhRXBszQQCK9d/1NAyAbCoKNcELhhM33xXBZDLY9kT9PKLtJqLmfULlNqlig1XQFCyZ6QXM/k+ihea6RoIqPyPFd9nqm+Juw7x1TPMRtPi9UGZjn/aFh5JEvHq5wUN09z1Kd5A7P0XmNG2wS3fZBdnRmQSj7kJfaMLg9ljTBqxuiNi7I+I69tStY1ImzSCWtjP3CviBfnhjFzQphdnIpBcdOAsHlE0a2XtetlrcVRYoUfvTReLjlFFXinV5NzeyQNWpV6pKBXn9upUbQowjiSYBrnFIkfkF7PKarjFg3kt+lLuvrz1c2SSm5oRpp3QtyJMHZoRr20Up3XXCur5MexhUnccllxgTAvm5/pf9I37FRIS23LjcvXnz58arPaIBBy8GnxYUmw0Yih+V2A+ebxvxtCW8kIFovFZDJtbGycPXu2tLRUpVLNzc2trKwQvCQ8DReGv/a9BN6IaVOCh4q7BjBsstkuXrteVd905IRrZExyQUltRAz5uGuAUFVKEWW7hMbTlIVVPUOV3UP84rogpjBEJBd39ir79FXG+SLNSGnvmHcC83hUmh9HzlP3SQdHMvXGLL1RrhmS9+iUvfrkgsqPQ+I+CI5NKmtUDs8K9FPCsXn53BK1f1hsMOaMzsQXVv7fox4fBEYL+wzy6QWK3kAaGqKOT9BHxtgGI1c3EpxTsDM5bTedF1yvJhkmYwYMaUYja2qMahigajVBFdXvpfE4E8tHsqv+T0pamE4TMtSbODdKmhujjOk85eKk7JzFmzdBO55jgFeAxuuQfF04X5PV9799LS0E4ukKOJ0I3LDdO3tdEUOrjuJOpRVdyqi+kVF/hVx9Ka16PCG/2DU5/VM3zqEADSlnmlF7nqteYnZc5vScpjRfFHYuCluGmeWCY6Fpu72akhUzCvUItX6R03eWo13gaOYEXT3phbnB5ILo9MpEtsI9vo9cMMFunBZ2LCg0E2L1ML++LTU35VOv1vTsXl4Z0yla4ZfRxa0aUrYbVN2GzE6dtFnhS5WfyugT1rUxS+X+NL5Xagevcji3U5fV1iOt71M0C/wojewifZ6a70cWBVHapVXdmfX64s6+3JbOzLo6fnHEQV+3d49wQigNkor2nGZ1dlOloIQfx+YnsEvFRXU51VnczHDv0FCfEDFTNNQ3tLmyiVeBwYvC4FUEtmykH6WI/m4IQRC0tra2ublpMplevHjR2dmZl5dXW1t79erVlZUVIvK2ubn5Xey+rRy7rTi4GQBGpqdJVPruQ8d8giLySutIVKFXYJxIVd42MEEWZL5/6OSJoChpSW1OnTqeJ0+QZUtaO3O0QzmDQ2WGifLBsazm7jhu5h6/CHplg7xPlzVsVOrHcken8ken84fGBS2doaLMfVFJe2NTYgsq5PoJkWFaNLEonVtiaMdEQyOU+hZXOvcPJ08djE8T9emlk7PMMSNzepoxNU0dGWWPTAgN44GZWftT0/zyi0l9+hTDRIpxijRhzJgwMCf0ZE1HaFX1b8ITE9WGf48kORUXJRi1IYaeuFlDTm2bRAAAIABJREFU4uxIgl7jrcqMkCknLl+xoHY8jwAvqu1IqX6DiYkfhpAdd53xhCAUtUMbtvl+Y2YMvTlePJdeco1W9zm9+Tq5+hKp8gylsiWUE/fOoZh3Do1yyhe4jec4befp6iVa+1lKy1VJ7wyrbohWrHCPSfrkhMw9fkRQZ2Q1L3L6zvP0S2L9grBbnZSVG5zamCE0KMuqYthVIRwju36c23IhTzcubDFwa4oDGezDoQO8UmNWc1mcMP1QaHGcpJNfrVd1jGZ3dbMrWMdjFKcoE7ldY9kd1SmZPI+UanKWsbCnV1I3WtA9oGxiuMVrs5vHy3r6lHVU1+gaRs5gbnNfTmOzsFST05hPloTt9052CReEZxRSlN15bZ15rZ15rfn0bJJvUkZompwiKZOViCiCk/udnfc5xQRFX1+6jpdEw8kieIyLmPX//ofWNz/9+yBEKD2iBMKXX35pNBrj4uIGBwcJRK2vrxMcWbPZ/K3BNyKi8CqKbDbblRvXw+IS/uOPf9l12KmsTl1co3byikihy7qG5uu6DP5xlA8Ouex28faOSiQLlemynPLB4cJBg6p/sMAwUqwbrtAZBeW1B/wi3BLI1IpqlVYn6NXIdMNFU4sq3WiufjSloDRCmhkpy3JOo4UqcyQDw5KRGfHUGfHMEntogj+odWGyPwqJDBVn7oqI43X38Q2jrDEjb2GBMT1DG5vgT8yKRiY8+YKj6Wmkllbm6Dh5bCptdj7BOEwy6hiTenJfe3xT429CYvcyZH9IyIgf6E2e1IaM9MTMGRLnR+L0msDiIl+ucPDs+XUIs+FLVONIchSB/ma3vO6R14IQgtpBCK8YBG3Y+mvas2IZ3WTVGVrFTXrDfVbb7fS65ZSKc5TK3nhp+i6XqL/sH+OVL/Kbz7Jazma0nE9vvcjoWBZ0TWRUDqbnFgSkyL1jqAf8W5KzpvG5V1wLXRTr53mdLbHy/GBSO1s2V9zYTpEXeKeNcxvG2I0X8/XjwmYdq1J8PCbLh2QQVxlVjcOqJkUglXYippykGsxsG8pU16Wo6IfCc4OYY1ntY9nt/eK6olhRTgR3vKjHkKM25KjbOKU875ROUcVcdf9sVV9RsojsHNbEK+hR1nQpqvvzmrhBpHTPqGpObj5ZIoygVXNLWhX1alVjS2Z9JlkW5x4V4xFZJCookhb4OPns+NPHx/YczZPnPnv6jAjpEPU6/o7wzptACAAAEARNJhOfz+/t7V1bWwMAYG1tjUhIIbwgQjd+bUQQECKKJRAfPXr0KK+wcMeBQ+/s2CXOLuzWjacyZUc9wxVFTQMTS1nlbSFJtJAkahJT6Beb7BYSIyiszGvX5PVpCw2jBUPDuZp+VVvXDg/f0AzOKTJN2NKapdfyu7syh40K/Zhi0CDu7A2VyJNy8lk19V5MzimBhN+jFY9MiybPCKbOsYbG01paPggLD1OoEnOLPwoKZ7Z30/u1VIOBPTvLmJ5hTs7wJubofdojaWmHScnklhbmiJE2PU89fSZhYjTFqKUYBzL0PaR29R8i4n/lHe5bXJ0+oosf04QbNbHzhoT5kaRRXWRtrQuN3Tm7+BxALQCMQY5CbDhn62vi+RFvXwtCuAkHwjiraN1Wm1mSFcsYpBacoVZep9Q+YLTeozVdI9ecT6/UpmRyj/tHvntAk5Y1z2k4TW86m968lKG+wu5Z4rRN0ar6ydlFQaltFCn/RESmO3mE2TTP6j3N6jvH75/jqFtipSXh6VpZ/lxJQzc9s9AnrYeUP8ppOJfTPy5s1tLLyB97NMQLjbLa8cyG2eKuDk4J+XCoLJjeLqzViOsLwrjcE7FVcdIRZetYNo6idlZJZjBDzSkdyeto55Xnxwiyozh9itqBzLorHZPd0krKyQi6R0wdK1eX39L9//H2nsFtGGia5s+r+3d7dbUzu3s3WzuzvTPt7mlnW7KsnChRzJkEM0DknHPOOecMECSRA5EDcxCpnGVJtuV2u922ZVuJVL6BuOO6O/feuGaqFz9YKBTIYhX54Uvv97wSB60XLgSSU9pAQGCmDWDo/XgzSROSeGZUQSfPwgbTUT0w4giWBCKA+yYOf3DgyK5DR/ccmU3O3v387o5w839EXfv//4P860JoJ//cvXv3iy++KBaLcrn8u+++e/DgwU4U/bQF2t7e3hEl/Px3eC2Ke/ro9ePLL/8Qjca6+vr+5u9/jWNwgvGswTXVB8K3AJBad8ITq1HFZgCMhGVLnOGU1OLqAiImqFx5MKJL5/T5kjyZEk5OdWIIJ0YmxA7fEIWB0usF8Yi8mFPWFhiRFCscm9Do+tkcksXGDYR6mZxGIoUyFeMU5ti1dXp1DZcqdMtlrQwGMxgiO31/39KB94cIqTS+UCAvLhLmF6jzS/hcacBkPYRENGBREKeDWChi5hYQS4ugagExl0WX4sRCAhb0/Zfewf+zfZCQzOOK6fFieGJ5FrRWHF/Kw6p58GTwEBLrK89/9aBuC/HiyU4V92/inf2iEKrXDNtPnz2pIw1kRJ54jJQhG1bR5osw8+c435ekyVt47zm8bRYl4TUNAN/Zb+nDLpDsp4nedbT3AnHmIjW6SQuu0DwJhFTTAa4ITAEYF/t+p39UvEgJnWZEV2jTy4zJ0ITINkoqiAzzSntFaLEDSMIjoBhKuyaPFdmeGF438g+HskxTTeSZl3hX1NNVacA8waM1QoxwcYCs53egJF3YGbK+IgvNqyN5USDD85ghQuLxcSNEMMU0ExqBVow4r/RnJO6qbjouckxxjOR2MLUTooKzNWgeaxBjJssSWn9c43MwdAwAAd8BlyMFIbk3KPME5G4ejHnsrYPNHzeyMUyXyqFkK9qONA/3DvI5vGI+/9WXX25vbdUvqV5TF+oN0utn9a71tQ/Hjo/4DiRv51NvR1hSZ7e8erW1vf3JrVskEmlufv7PCh93BgA/fd3hHCwsLEgkEg6H8+mnn37//fc7dNKdC9OdddDOsG5nZvjT8LAu8X/16vnzFw8fP77/8GGlWpMpVIPDo4dPNDa0dtr801S+EkURjCEZPI1P40qimRqy2AwicJEMcXp+I5Aqg4nsljEETCDnuYOS6SjT42vDEjoxeIl/0pbJ4bW6/eOj9KBXVcori2V2JNEvkhzDYCfUKmksrkgkR0WSIwgM2uHl5qqcygq5MD8RnD5GI1FDAUEiLogm9kIQ40Y7NVukVWuU+Tny3ByxXOx12PeQCK1M8ikKrkslx+bzoEJprFyBztew8yV8OUVIh/v1qn/X0LAHTyWls5hCClSOI87UxtZKA3NpUGUWEZnZD0WY47Nf3Hv44OH28yd1wvRrKPDPP2F+6Su/JIRevKpvhLYfP3j48N4jMoREH8AmieazeM9tjP9LbPBzlOca0naWZEmiBIJ2AONkp6p5/CzHe4ERmIeYTuP9G7SpM7zpEsHs6ae4ezDLbOMK3yo6NqRrRSyy3JvimXXh9ALH5xnl2oeosxRdhW05Lfel8XJ5Exi/u2vTnI7QjW6MBLyrdU4WWJQGFziua7rkOfnMHNfjAQtUALIFwSecGOJ2wVN8x4I6sqyO5Xm+PM+XZDll/STwx91aGHfsQIeXpQ4zDRmefVEfTomdGZU/LHbQAaju3Y3AE/0yNGdG7clYZxKG4LTC5RVYxDAWrHlUhuL6pXaP2ArrGMf2w+DdIGD7iJopd8lteoEG2Dv8zq9/e2DXHrvB9NXvv3x92lv/B33y7NnW0ydPX9bVQPefbD189mQHAbtDsdwxcH/2+lblWR3b8mrryfYnd24TKeTa3NzPu5cXL148elTnG+6coO+oeFZWVoaGhsxm8/b29sOHD3eC6ufDt/oOsc5LfHLv3r3vv/++fsr+eOtp3ddq+8atTzfOXhgYBXX0Apo7ejsHxilsOZWrOtk5YvElmBKr3DINI0mhJKnCFqXLnBLzTKx6jiy2dIzjcALNB43dTSAk2+weonGGmRxDelY6HRbPTHOC/t90NuNcZlEyos/nhkXCj8GgEZWMFZ2R57P6UhlvcR6HYfvYYkVhTlJdxEWTDTxun5IPseqNq0v4yVATR9CrtpATJUZhnpjJceeqkEn3G5DBY2wcYdJ6lI79iEUF5XKDpWp/oYZcWkfnCoxCHjvpbaDjfzXY+Q4KTMgmscUsbK44tlIGrJX6l3Nj5RQhFTuFw/OMtjtf/OHp9tOndZrx0+d/6YlcHRjy4tmT+z8829q+c/0zcC9YDGGnyfYNrPs2xv97TKAeQijrGZIpDGWwm7oErX2G9omLPN8azrIAN22SA6eZU0ssf5Vis7Rh/L34DY5lhW2MITiWblSOrF0TB6osZ4XlDIJF7hFWlWlb5LvOyANFqtoCwJL29zrggpzMa0UJSCdH8wJXTehZ5nouy8LrLPciy5Uh6TUDRPkwntIyKh3GJfjWvNC7oAgvKaMxii3DcYfpZnYnsvvto4A9jRm9b04zWRZ7a8rJtMiVVQeyhpCNoSIPIIePdmupUo/EElK5UpbpqMaXtYbjugAPRKYPYwJSGwdCad/TaOZo3FLLsbcPjDUBghq3R2UH9Qz3NLYe2b33+L6D8dDMj9/dq49KX758+uzZ/a1HP2492nrx/HF9o/b0J3vdn3Dkr9lFr56+DqFHT7Zv3rlNoJCrfy6EHjx48M033/xk5Li9vX316lWlUqnX6+/evfvPbNE/X9G/tn58uDMy3Nra+vHH+/fu/fDlH75+sPXksy9+jyXRQAjc373x1jgMA0ZTeVJL9yDS7kt5p4skjnZggjKG5KjsMYN3VqCfcoTnRMbwAJwrsc6wtc7OCdzRPuCpUWgHEs+yu5WRmCIas1fLoujMUTQU7zJTvQ62xznIY3fzmDC7iR6bFmXT2nKZ6vadQOD66AJdaUFZW+pV6/cR8XCnnhBy6dcWSNMzfUp9s0jNyOxof8qccuGUhLWbMNGjZuFD5qNswods6vBsZrA811+cRy1uYLMl+myGFpk6QoLvJUJ/DQYgUlOofAZcLY6sVAfWSv0r+fFampJN9TCYDKXuyvXbL+qXHFvbT7b+TWXcL9HI7YTQo3vfPn/ydK222n2kQ40QZin202jnJ2jfXZTvM5T7Gsq2STQGxoi0Yy26IYitG15FqtbrIWQ8Rw9usKeqFOcCw6U4Oj45QDrLs62wjWdlblsvOomRL3BdRbq1ynFPQsTeMc4S37Mi8m5K/fNsYxQtFJ4Cofd05iRuPYSlGCalWOYix7HK923y/DWicYHlXBT5jaM07LF+ejvQhuEn+dY0x14U+JdU0STdnuP7qqoZK0r08b9/o/2tg0XL1Lo1XhC4cgJXVubNKH0543TKMKnC8YeOdLFAxLDW5xWZ/WJL0jAZ1fhiWr+VqaIPYzBdE8PHe2hjOI/UGjOHXGIzrAvY9nGjU2Jyq80WhQYMGDn28f6hnr5KvvD44aPtOoN167WP7qsndXzmy+36/c1/B/n/K0Joh5jzk9Ttq6++unTpEh6P//TTT3dMGXYY2Ts15M9KkJcP7v/4p6//uIP5rfdGT599d++H25//XqE1/PrNd3/zzi4shbV4+nx7/1hz9xhfbpstb0azy3CCoLF7gi4yp6rnzYGs3BrV+3JjWBGELI+UzigcM1pvzDyd6YbgDnQP6sIJfTJtL5Qd1YohlzmOhB6EjIuiU1iDpp/LxHps5HCQlpjhZBLiTJo3Fe6lc1pwFHW+woqn35qAHmVQmfEgPxtVLlRo0RjCGzxM5zFma8LqMitXxMXCH5EQJ8UUsE9DnLae5FM+YFH6o9GR0txwaQGzuE4olAiJGH7Ke4iE6NUK/gbQBgp74dkkqJwfXq5nIcBKAVTLUHPJPg4LymLPr21sbT15cP/+g4f3/+eE0NNnD358vrVdShSadjfwh4hpgmkdbb+GdN9BeW6j3VcwttN4gwuAJh1u9CFIvgGc6QjoDMmxjLaeofg22VN5nGmR6eZ+1DszRLskdG3yrWelLlsPagrMyVF0yyLfimTSC+S5R1lLAveywLUqdCxxzWWm3jZKA751wgxhSwF4D16WYJhyTOu60L/CcJYJhgW2a0U66UOLB986im/on6QpM0J7XujO8zwlgb8imcoLfSm+w0dW9r59pPPNAz62ak4zGWeaEixzSR2MiR1hqSOlC6gwvPHjvfheqIWpimi8cV0govb4hGY7S+MXWcQwxpFff9S7t9nAUHgklpg5FDYEvAr7ePMgtHvcq7M5NcaYbxINhHzw2zdlfOFnt24/3a4fF72WnL3aeva0noueP/t/Rs5Pz5+/+kVZqL73fPJkh7bz8OHDjY2Nzs7OlZWVesX4pF6hPX/+/Ntvv/15Ffc6nF6+xlzXK70dCP3DR48uXbnG4PDffn/3G2++2zcykSnNuycjJ9v6RyBEz9Ts3No1vW2mawiFZyjjhY3a6VtaZ5wpd0EpCiBe4k0sBdJLUnPAn6ymFs5heYp3jzVjJEpntjg5v0wyGBSxMNFi+IdTDXizfojPGpIKWPFpVibKyMSYqRhtOiRJJuFq/ZEJODM40yOW/21f/7jNyM/NSMppfj7FSMRYmexePI2WKMqX1pm5IsCkO8ImDtkV+KiDEnO0ylgfMkgdAf9YaW68tIiZXyEVS6hwqEvJbxVSIB79v+9qGA7aYbMJYCk3slQcXC0ML+fAc2l0LHQcg2oCjqfK1UdbT7YeP97efvz6UPdnHzu/+IVf0Au9fFn3+Hnx7MkPDyL24OjRTsjezkmQaB1ru4i0XUXar2Mcl3G2VZze1Y+iHDjhg+ByGIH0g65wF/Uqe7oKM5zmhHIEc55oIL/dnAAyr4hdZ3jmOYpyZoIpPjYcALLPaaOLIp91kOoYplWYlhrLMs8yLnNNy3xrnmHUDRJhu1uIDUNJgTUvsBfYljWhb5lhX+O6l3iuEseW5JiQhzp6frNHMYRJ8cw1RXDdkFhQzhSEvrzYF2EaDRAm5lgfF4DgAmBZkT0vduZEjpImEJPYgnxDTO1Wodm8CSKmcxzTMaYnCmZktrjak7NMZYzBablNhmT072siA+DjJ3r1VMmkyjFj8HrlFqfYwIQREQPjWr7Ea7BIGdy2Yyff/offHD94WK1QXr546f6DB3XDgxfPt+u+Ok92+p9/5ujt0PTqfX3d8eZ1L3Trzm3S/7gX2tEQ3LlzR6vVIpHIhYWFx48f7wh8dmbTOyqEnyei58+e1ZmJdfB13UDuyy+/DAQn4Qj04CjwZHPbKBgeSRcmo2kkgQYYR2RKK7nKejK/RKBLeoYROtt0bf16YfkyX+PpGsOPYbjuaG3pwhfeaEVpmpyMV0kc9QSO6YrmPjzRtutUO5TFVwVD+mjMnE41w6B7AX0tRAzGY6HGg7TZGXYpyZqNceJhQSwCksmPQuCddOauiQmw3UpLzdCTfl4+TAr7mcmopFLeiyOTIynmbE5QqTQImD1GCTHto2b9tJS7Xy/+gIo/YTBAijVYZRFZqiJT8QGr7k0YAOY3QHzG/9R7qtumheYyoEpxbL44spgbns+AStF2nfjtoe53W0/5Uskft7bqIrntx1uPH/3iePkzb/wFIVT/rhfPth6/fPxUhKKKRnH4gz32HtIiSreJNJ1Dmi5hbRfw9iWszt4FYx44GcfSVpjaUAdO+Gb7Gt62gLWusYM1ujMMFZLebpyFcq6LnRsM3RpTt0jXyY+PyhqBSYIqQVRZhsheIKtIM8yzTKsc8xm+dYVjqnIsWY6Z0zQO+7i1rPRWZZ4C27zMd23w3OdloSWBq8C1ztDVgp4JzMEW0vFuE4g8yzMvqCZXdZGiyFOQeNJ8K6sdhD3ek5ZbZaMo1SBmVmCtqHwFlTen9U+JTAGBHts+qkKz/EKDDsdFNw+yB5FhmS2l88bVrmmpRQgmwZoBLp7GwVNThuD0cUx1Mj2lc+V9sSm9S4xnHP/g47/73//6yPsfYcfBfDJ9rA/wwZtvjwAGa5Xq/brZQd0W9+mL53UzqJ89dhyCX716tb29ffv2bTKZPPfneqGdN1y5csVms3k8nnv37t26dWvnh21vb3/55Zc7EoT79+///BCo3kE9flSnyD9/fu3aNZ1eLxCKlWrt/sPHOnr6C9WFZL7aBRj77bu7vaFYsbZWnt/wTCY+2NtAYkmztY3S8sXy6hWayDAAJlmCs3Nnbtc2bwXiNRxVSqDLRyZIqcJKJLvQOjih9YQ6xqD7Wju5BpNpJtwCBP0f//jbXhaZl5qmp0LkdIhRiLDzUUEmKghP4UyGdiJxHwg0qJBKyzlmeoqW9vHyM+SIn59LiQvZo1QqaXqGmoiNO8wnhPSJoIlaDNGKQeqsZ8Su+pCEPSyRYotVXHUBlpntc5v3cfCHOGhszAkPWX4N6muQ81CVInS+CloojM3NjpRjY+nAhxRYAw11BDKsDrq+/P7bur3Q07q33l98L/Tq1Yv79757sfUc3tJnRbFFzSBrO7oKU6yj9Bsowzm87RzRsYjVmVtAvIOnlvnKVbo6M8zkvtEc6WadYwbX2IFFjjcwxiK/cyoP410XOjYZuvM8ywbPEhyl0j7qMPZiQwihdZgyCeOX6IYlrnVT6Lgoca6wjEWariJw+FFCyK6mOW2wKvPkWaZFrv2syHdeNrkocFXFLg9OyOsct0wQ2I197EZAlKqMUjVFsWvdEsuJXdMMNaGhTzwAqxm9ZgRl/J2jfpy4JHcX1N6KeSrA02kxHPDxbg2WE1O7QiKTHEJh9cE8DGXOGJyWWhwMOX8cpycKknpfzj6twLLHGrosHGXcEgxpnV65ySXVQrsBu371m0Nvf8jFkg0iuU4sx0EQLScaKQTSmY3Nrcf17edPKND/TxD9whB68uTJDz/8sLa2JhKJPvvss62trUePHu3QVV++fLmzldoBR/48C9URIttb9+59t7GxwefzUSiUWqNt7+w+fqpFqTWEIgkshfXO7v3/+N5HoWg6nilmi4sYIutwQ5vTH109d3Nu/fLCxjUCW0HkqhLljerpG+c++ZN7KkdlqjgCI09kylU28rWN420D8xuXCytnW4eAh9u7e8Cw3+zZ98HJRoJZJ8nHeYU4JRUiZ6Y4+QgzGpAmwpp0vJdG3j8xyo2FMH6boBjlFKYE5RgzNSkupvnZ5Ak6BRfwiorZj/Gok0IaIR0gZP2UQoCe94+7NbuI6MN8PjFfoVTm4clYk17yO9wYwC1DRszYmOstxOgBHh0zV4UvzUMWisBqarQwM5Jw/yN6aNws6WHjuU7Dza++2Nra2n70uA61/vODmD+Tc37+0i/KQs9ePK/DTL9/QOocCuAFEbTQ3YVJDrFWsbozZNsZkv0M2VGCyvQNw5qm7jmacJWiXMdrvQ1w2fv9NYxxge5al0yqmyCMD1vm8dKLLMMduXeDrlmmqQsEhfTkmLwFrB/AaXoxEay0xrFU6dp1jmmDZbgods1xzXm2MUHX9P7DnjhHV5O58yzDqtB1WuBa5FgrXEtJbPfgBZpRdJwutoxhOI0DXhQnJ7DOqQKrpnBO4vDgBfD9zR4CNyFUJwVqcQ+k42/fXzKGZuX2iNgYEuopPSB0C8DP1+RMgaTKEZWY1RCKEkyKSM1xpT3A1wpBOAdLFtM4o1qXk6sUIyk9B07KCaycJzytc3Cg2L4jjUwI2siTEMYgFqnKptLpxHIaltByorG3q9tiNN28cfPZ07rLyM7Gc+e/fGdO/ZMG9MmTJ7du3SIQCNVq9dtvv713794OhveflAcvXrz44Ycf8vk8l8utVqs7dIQdbc7OX/Tp06c7QoSdn7zDMd7e3t4RvG5vb339x68i4ZnBwUEwGKzRaseBoH0HDk3AkMHpiECmaukGtPUO9QwBc5XFmViaQud9tO9oV/+obyoxt35x/eInieISjiHWOaZOX7lbXLk0t3FjJjXf1Q/rHUBkcmsXrvw+nKy29IyVl89uXv10FIlvHxp/79DRbiD4YGcXRqtgh33iUoKeCbHzYX4hwor4RNFJpsvaioG3kdCS2Qhp2snMBOlZv3guISxF6fGApJRuZJKxPkczl74LPQGwSBExOyJpR6XsuJQTEjDuIWP202nkTJZeLPc6TL/GjJ7UMlBpG37WiU+6j3IIb2Jgo6nERK0CWygS1qrA3HSDkd+sYaGChgYiiGCUnP/8k62nT1/UBQp/4RB6+erVoyd1qe/WV98yOoZCSFaZonC1QrIgziJOU0OrzrBcF7j+5ChXdajX3jG4yhBdYOnOkfSZAZbk3R5bI3qJ5ZljO0THhjUnRueworMU5SdC+yWOcZ2hXWIapqEcUeMYfk+7tA2SpqhrbFOVotrgGM8w9ef51nmWocgy+JEc6O5G/JHuDFu3KHcv8W0rXNsS3zYvclRkTj2EbIWTyiLtktLigZL1w6gYQzkrNFdUnhhHqx7DoA42RVjSksI4r7cHCDzdGAF7pGuarZ4R6X1sBbKxVwjERuWWrN6TVjmyKscUSykeRrH6IVYS30YVcoYRYbk5qrJlTN6M2ecVa/kwAri5lz6OUJM54JYeGY7mk+mcYrWczMIOgzAjIDGVpZco2GQaeGRsYmSMw2BVS+WtR493pJ91cvKTJ/VF52u0cl3T8Pz540ePPrl5k0QkVSuVb7/9dielPHv27P79+9evX5+cnBSLxdFo9Ouvv37+vA6U3RFZ7yhcdyJzJ1PtXAftcK0ePHjw+eefF4tFAh7X0twEh8NJJBIMDofC4M0t7VKlxmx3oQkUpkB2+GSr3uZJzBbxRBoYhtp/+DhXKM2V54vza5PRDI7GgxOYvsjs/MaVuY0ri2dvGpwzPQMIly+1cf6z85e/mAwXhkCY8vJZPEPIkWhiucogBNE+MPK7PfuGyARO0CXJzIjzUV52mp+ZEsaDFId+gI47CgT0sfCidFBUmCZEbYxCkJkLsrKT/Nw0f3ZmRCP6CDbyPnjwJBuHnrFRyyFCKYAteLFZNzJsa+BS9xPxmECINZtwyBllAAAgAElEQVTt0Enfp4P7/BJsyYEvuNAxx0kh9VcTIxPF3Hi5iFoowYtxbDV+REHtsfHxcfMpDhxhEKzcurRVN1F47Yj9F81CL1+9+r5+T//iu08+57cPT4Mpp5m6YAc03I8roEQFrHyVbT8rCEz10yQftU0NgDcZ4its3SZOdRqjczUgeO92l8mWNEFN2dUaGCKsUhSbROkFquo633KObVjnmRd5FkM/eujv99KPDORZ+hrLUKOqznJNF1iGDbp2kamvsA0GAFrYBRp757BuEJOhqxZ5lhWedU3sXJQ6a0q3fBRlRxAXZfoVhTFJF6oBEFnfRJgpL6tdMa6a1znCaO5N8eU1tbGmMuQlxrzUKh1ECgGwhMyiQ9FQp3rdbFla48hpnEWtO69yFpSOWblNA6eAj7ZhWweUCPKM1JAxuDNGT0LryJi9M2prUKbnQXH9B08q8YxpjTUoN/ilupjFY2CLxAQ6YmAEOQzUCCQKnhA6PN58/MRgb59cIi0XS/e+++7li5d1HcOz569evnr04OHrBezLZ0+e3rl9h0wk1arVH3/88adTnzNnzkgkEo1Gc/ny5a+//vr777+vC3+fPfvhhx9+AonsFIdbW1t/+MMfdtRxz549+/zzz91uNw6Hw2DQAEB/S0vzyMgIAoEQCkUsNmd4dJzG4vYNjpjsHqZANjAGSRVqTJ6QwxXo9KbW9i6H21eZX07ny1S2sLlrAE/npUuLG1duL529liqvCJVWLFl06cbX6+c+nV+94g1lmHx1MJLtGgQHwunF0xfQZKZArhWodIMoFFYhZrgtglhAmJqUZULsgLWDAD0JGRxh40Aymqoyg53UklJ2RimIi9upKTc3G+SlAxCL9P9q2neMCkX4NPi4nZj3YYtefCWAK/mIGV+Pgr8PjUTanax4vFFIazWxwGk9ds6JK7vhYXObjPWf+rsgleJYqYCo5MGpEDThOSLFj/illLyzX08f0zJyF1YeP3v6avvlq+2/sEbuxatX97YeP3v58u65K7Ku8egE5QLXmBohGI72R4DUKk1bpRmWmQ5/D1n4fnMGiN2kCs5T5GsI8XWmMzvKV+wfngELoygp7I1DMSjrEt98jiTdxIqusQ0X2MY1tnFVZJ/BCIG/O4z5qGWWrq2x9PM09Tm28QrbuEFVrXHMZZZe1QWxgEiKfjj1SLe2D7HAMa3ybWsSV01sqyhdinGMC0lekurKXFmeI3NCieTjHZpxTIynCdHF5BOd8kFwVqxa0JprSn1OrK9pPCmRkdwMiAh1hJYBNgCSVNlmta6Czj1nChSVjqLcXtF6knILBwDpeOtjEQgTU1qyRk/W5K25Z2Jae8LoytoDdo60f3/D+Il2DZGVMLoiWtuMzp60+yd1ViNfSoYggb2AnlOtJ/YfHu8fREFgfV3dMDBEIZUVsrl733z7dGv7uz998+zJ0xdPn716+Wrr4aMbV6/hMZhSofjD9z88rs9bt+/cuWM2m8Vi8cbGxg62d0cMvlO57ZRqO93UjkF3vbh/jRnZ3NwUi8V4PJ7L5eLx+OamU60tzXg83mAw+AMBIpE0OgYaHAUyuYJoKgeEY/E0TrayiMQSpqdn5EolCo2dDM1U5hZZPGHf0Hh7L4Alkufmls/f/Gz94g17IEpiSWU679krXy5uflJbuWR2h/kyI4LAJLOlq+eurp67MgbDhFP5M5dv0oWSzglgHx5NtmjEEZ9w2gUUUk/BBid4RJScCZJRGBETblpLnXXQin5s3Eqf9VAjNmE2MCij/edTe3qlZFbajYtaUEkrKufC14L4so9eDA1qJfvhEITBRAsGGli48ZASXbah52zYqhM6YwAYxH/V1To8mx4vF8GzCXgy1KzlNshwkLCKWnaNe4W9MvzUcv7R09ch9OQvXMg9f/Xqhyfbz16+vL6wph+ApSH0a3zTIoon/qjJ2QuvMrUFqrZKNXs6iaIPWqoI6iaZfwYvWoWLbnI8y1jdZB/V1ImdhPKB//XjLFZ8TWy7TFOcxYmvMrQXWPplhmaRZ8wztYS97YgPGyN4cY2lX6SrzzB1VziGDapqg28t0jTSljE/mluSWBnH+8j72/Nk5SrfdlrmLvCMeZlNDcYHCcxFiWZJol6U6RMMkaBjGHe0zQQjuwlswrFWJ4pckKprSl1Zqp4VanMy65IlpBjDcvrBQx8d0yAoGY0jo3aU9d5F82RZ6ciKzGmRKSE1qWCk3vcPUnvGZqSGsMxYsAZK9smE1h6S6YvuKY9Qhe4cxHQMAvafoAJAU0pTzOCMWzwRk2va5NCwBYMtHbt/987ed94H9g+pRFKFWMKmM1AwOHgcKBEIL5w5+/jho/rl1+t0tP3o8a3rN8h4QrVcefzo0U4lVi6X7Xb7xsbGvXv3Hjx4sGPEvbMg2qnxdhZBO23Vjkj87t27kUgEhULhcDi9Xm+1WnE4HADQz2TQXS7X9PS0x+MFTYAHAMMkGjOdK/lCkbbeIZnWjCTQpAp1IplkcdhUOm0mHI3Gk2g8CYElDI2DRUrtbGVxcfPi0plLAqVxBIp3T2Wrq1fXL36+dPamWGNHkbinuoaSxcWvfni4ev5q19B4aWHt2u27GoMFSaH2oxBAFoXpNMBk7AZQ3xAVIfbqqSbRAAeJdArxM1rh4jS14COmHay8jzRt4qVcLXTo37Z83C3EMuJ2QsKGmXXgKj7CfAhb9jFKU+MmxUEYZEQgQhr0zTwCImnAVG3QsgFTc8DCRrBb/1ddrS2hIKhaASUiE9Oe94kTLWoyIqkjlmyQKVkjF2LNzzzY2nq19fLVk3/TZuhfHic8f/XqwYu6iuhctuIax5WQnJt881mqXH2oU9s8nMKLykzDHMPqaMPJ93Su4DnnqIILJOlZrOIqw76KN1QwGslxoHucAf/toQW65gJHf42luUZT32AbzjG1izTlIt+YoShZxwawe1o8YPocW7/EUG/Q1VfZhrM09WmeOUuUcY71RsiSFb3fAaaQ9raEJuhLPPMZtS/H0aaFejUYN0VmL4hUmyrThtZakehcKCrheLugD2hGkAhHW2JsUUmmKYoVRaE8LzHEuOrTrsgkUzqy+2jXW3vUcFJUYkgrLSWda07vraqcBYk5yddNsmS8QcjYvhPcIYhwDBESqUMiTUiizVm9QbF6fjKmwtOZYzCvQClHksePtgAb2kx0QUhtSdi8YbNTzeRP9A4CewFsAgUNgsBGgTwGSyWTm3R6lUxOIRAJGCyNTMmlM5fOX9h6+Oj59pO7dz4l4wnlYumbP33z4MGDS5cueTyefwJh//jjjzs44h1p3M4g7sWLFzumqA8ePNgZPMzNzel0OggE0t3djUajvV7v1NQUj8cDgYBsFnNmZjqbzabTaa1W298/wGLzoslMLDWrMdp6hoBYCutUR18oHJ0Jz3C4HDKFEksk9CazSqc3WB0TcJRCZyrOr+RqyzOpPBBF6BiciBdXa6evX7z9p6XznxDYss4hCFuiXbtw8/Yfvlm7cO1kR2+qWFvZPG8yO6KpWa5K3YeGQwWMLhykGTpI1QoMUY8ooO9hQqB2LiIoVWwkqKUANe+hz7rZaRfepz5JGv9t75FGGggTVFNnneSKn7I4hasF0UUPNR+EO/RHELDDoIl+FmNIw8VkTMiKaTSnRNds8JgJH3b/h962AxbTRK0KTkbb9bLfwvp7zCxkSofO6qER+X4yQB5x/vjoUd125N9mMPQvh9CLVy8fv6ybcy3PJGaQ9AWc4BOO/gpdFelDqI/2uvrRVYZhkWW3tKDUB/s2yKJLNMl1uuoKRXuBrF/GqpdpJtHRYfGpMdaBrjWueZUov8Ey3uFYbnMt5xm6OapiWWT2Qamshl7m8R7LILpMVy2xtKsMzTmeeZ2lW+Ibolge9sPjeZZyTmxckJj1vWBdF6jI0a7r/VmBMcxSKcaxUwT2okC1JtGuK8zzMlOGp7IjyKJ+ILtziNzYWVGZ59TmvEhZU+grMkuCq140+pISPfjgyZ73Pqb3jdjIrKhUM6syFzX2BYO3qnamJQYbkU3tGRGMw510Pm8YIgYiVQiCjyudNbsialPMYIO2dcvxlLTZFdWYtQQmqX+MDUKoySynSOkQKfgYIhOBsUiVk2a7hi8kwpEEBJJOJHLpDBGbg5gANx1vOHbgAIfGsJvNUwF/bHrG63SOAAb9Hu/5c+eys1mdVjsVCt2+dfvB/Qdbj7fqbgDPnj24/+DBj/e/+eabzz/97PLly4sLC4lE3OfzWq1WMpl0oqFh165dQ0ODPB5XqVQIBPyhoSEQCGg0GlKp1Gw2Z3c4YHAEGAKdicYXVtZmYgkmT3jkZAuKSNVbnPlyLTU7C4UjBULxVDgilitc/qDOYkMTyRa3b359M5zK0vnixs7eYRi6tHr+9NVPr33xbWH5LJjAAIAx1dMXNq9/dv7W3XhpHkKgZRdW9Q6fwx08fe6SxuHsRUI6MeB+GhKj4UinrdqklxfQD/BQfWIMPWoUVqcYxWlmMUhN2rkZZzsX1sNDHkL1H8YNwZwyWs5LKHnJS1PIigeRdRDTXsKk4yQB9avGYw1YCDqoxeTMEznNSFaFqtpRSSsp4fnVWN8+pQxayI2GvB9Q4HsY4JGAGJHTQWdVsIRiD6mXG9B/d//Hehb6t5mt/ssh9PLVi+3ndZJp2ePLELmrROFNhvoGWbGO5LtOjqgP9WcQwnmG2dSK1B8f2SRLL1Fl12mq61TNBbJqjaBcpmrM3bCJN/Yqm8fXuLZVouYq1XSHabvNsl1kGatU+bxIbxyCMBvaNX3jxl7QNJiywNHVmNoVsX1eZC0L9X4EFfqPexZ56mWe6pzCmiZyxG2AGYZ4Vm7Oq10mJEs+gouTRCs87SpfuyYxLknNVakxK9KYIDjMkWZh/3hZbS0pLBWlpSQ1rur9Wb6hKLMkBOqJA8cIHd2c0XFST5+VyojK1LNq87zZN2fwRkU6AQiB7wZ4+dKU1hLgSOQglGQcQe0a9AtkSaNdQ2GONDZbBOK8yx/VmpIGe9xgs7IEYhSeCYSiegbwQ2MmvihstU8azCGzxa3V6cRig0wqpNPH+/p6W1pajx9vP9Ew0tvLIBI0cqnDYmLRKKcajgNHhzFI5NAAoLWpmUoi+9yeqeBkPBJNRGOpeCI6E3ZYrEqZjEIkDQIGhgYBSAQcg0EJ+Dw8HtvSfKqjo21keIhExAv4XB6XMzoyTCDgQ9NTDreHzmIjMVjA8IhAIi1UqsVqLV+uIjC4wdHx4EykUJkrzS3YPYGewVGF1sQVy+Q6QzST40rkWAo9GImnSmW+QoEkkoBIJBiLXzhz/tzN21c++31mbmkcQ9C6/Zc//+PGjU/P3rprm07I7T57JIXjiKPZ8sbVGyy1snEccAo5AtWyuBGzJOOWznpofvWgEHccDRDHXaLMFDsXE5Qj9Li9S4g4RuiDm1mdbPhuSC/cpaHmgshZJ34xiKg4ERkbJe0lTtkO4YB/c2pvIwuBT1mRRetQSgUqmlEVFzpjx0Qsu3Cgj+hkTDJ2REB9nwzssLHHEwpYRQcpqeGzqkPsYZZP++V337x6Uucf/6X3Qi+ePt96+eJJ1mrLUwTrRNENqvIGXnaNqJwdwMt3twV6cWWi1tyOsrWAN8myi2TZVYryGlV9iaLcpKiXKIo4kt31129ITw6tcKybdMsFouE62XSH5bzINtcYyipfreoZ4ZxsC8Bx5t5xdRMgT5aUWdoFmaumcOaFWhsIi3x77xpfc0aoPSPSznFkumGwchw+xVemlHY+AKkaIWRpyjW+/rTQsC42rUgtczJTSWoIENnE4+30lr4wS5qXmUpKa0FsPGsNl0SWotg0RReN7T1kIpD8AgFzeEgIBvt5orhcVzN7FywBF1WA6xqgDY1NyzWzBlvZ4o6L1QGmkNoFoPYOB+VqdE8/vLcvZDTNT0dmLc64wZJ3etNWp4MnIg2OtO7a03v4qJRAChmMUyZzyGiatlj9JmPY5bKpVYC2VjISzsBhyEjEWF8PZHSYgkPz2XQIcOTg3t3vvfW7d3/3u+YTJztbWgZ7exFgyCgA0HzixJH9B04cOdpy8uTRAwdOHW84fujQ++++Mwjo53HZBr3W43YCx0cPHdzf2dGGRMBEQr7f5zEZ9VgMSiDg2ZwOIpU6CgKB4XAQFOoPhTL5fDqXiyaTg6OjNpdraW0tHI9XF5fRJBoACCExeQgC2Rmcqq6sMwQiPJ0ZTs+qLRYgEiHTafkKOQyPXzl/4ez1m5vXrseL5TEUdunilc0bn5659dm5O18aghGVOwRj8Dka88K5y2vXb0wwKLu6TrWTwCSfkpe2CXNOYc5FCqiGJcRDE92CkF2aCnNmE+JyDOmW/33XRwMSGD0oH5IS3x5pQ3r0lNlJdM6DnfchKg7MrIOe9oGt0jdHWv6+9+ignoVNW+BF22BKA606kRU3OmtHhPVHOJh/GB/CRkL/dayrUUUdi6iBs0pwRQ2f0yEL2lMyKMuv/fSrL+uN0P+kEHq+ndQbC1ThaaLoJlV5kyC7TlItwXn6Q32mk+MxCM/SiXZ3ITco/68QOkNRrVCVZZqi5z/+lrqnuUpVn2VZL5AMl/C6z3meCyzTIkdT4iqk7f3C5q40hRMAovkHmt2DqCpbNy911BSODE+lGQBT9p5Y5WvOifUbQs0CTx4iMHANrQ4yJ8BWMDqBunFygan5KYSW/zmEpmkCRlMP6MNDqhF4UWHOSQ3zaueyxluV2moKW4DCxZ5qDQmEJYd9RiHjjI4a8aSEXFfSO0papxZBRLd1a4nUpN6cUBtrdm9eZ62YXUGuGNnUIYAhm9/7kIdExxyOoi+QsTjCGn3caIkbLWGtgQOGgZpaQa3tsK5uBhRqEggCOt2U2ezT62wKOYeAG2xvtaoU027njMclZNAoGCRkbKino7nh6IEP33vzjf/2d4c+3jPY0wMaHgb+k59wb2/DoUMfvPXWvl27Th07NtzXBxoehoNAowMDwNFhh90ai4anQkEqhXT40IHOjjYKmWgxG6enJiPhaTaLAYdBOBw2lUHHkYhSpYJMp0GRiEw+lysV3X4fk8vpGegvVivluVo6l60tLY+AYV2DI/1jQKnWkClXqytrZDaXI5FNJVJULo/C5QSiEaZIyJKIT1++cvb6jdr6aaPHC8Tgrv/+jwvnLl+6+9XFz79SOPxUmbYPhvUmcufv3F28fLkHBXuv/cSwkMiOmrlpm7DgEuQceJ8cqKIdAHczPHphfJKTjTESvhM04O8ABxA2Oj+mB+tY/zjQBHdpiSk/sTKJqriQJTsh5yLMWDv4+F91Hn5rrAVoF6FTZnjBNjxrgNaciIoTnbMjo8ZTMupfd54ac1n+y0jbiF8BTuqBWfVYQY6YN6BK+k49nh3QXf/09qutF/VE9BfdC9UFci+2X24/CsuURYpgnSC8SVHcISuv4KXrGFG4H6M5CjC0gC1dSH8/ZoMiu0CRXaMor1PUl8nKs2TlCkWRJ4iA/20X7p2jk6PEDbrhCsN6iaD/TOA9yzKs8HUZqkDY1KXqAlQ4kgKJqznZKz3SmcTy5sSWmsIeZ0r5zf2S5v4VvvqC1LjGUy4JlAWBnN0JYHQPWXEs3Ik+I4hS4ehX+YZ1oXFNYl6SWWqvs1CIwhP2jIj7xuhN3S4MLS/VzavtBaFhXulc0Dg9eAZvYGhGLK447SWHzYDHC8dBFjw1LFCkpAYZCIXv7JuUKAtWV1JtLJldKaWhbHZlNGY1mjB85HjrB7uFaKxLKp/R6uN6U9JkTVnscaPFL1WQh0Y5ELiFL2DB4Mj+AS4arWYy1UymhsvhEwnj3Z1sPHbSZokHfBGfx281OwxavVI63Ne9+/23P971XnvTCRRkgorDUnFYNBTS3dLceqIBDhwXMBlGldJrs/kddjaFPNDViYRMqBUymUSkVSsG+3sngKN6rSoenYnMTKUSMYfNDOjvGejrxuOwbA7b5nQ4PW48mUSm02LJhMfvo7OYYBgUBAEvr60uriyvnl7PlcqdA4ATre0kJiucylSWVmaSaTSJorXaHP4gXyafTiYnozEMhWL1ejavXF45d246nYETiBg649Knd1cvX73+5dcXP/s9XaYZQhFocu38hWtXvvwqt7HeDgcdAfZhrRJu0spKmwVFJ2fWigsoYGbeEUQ/VM3lRX30RKhDQvkA0jogR5ICfFHKgHVIfgdoGjdK8TE3rTaNLDjQRRtx1j5m5B4nju+a6NgD7+1VUzFpCzRvGy9YIDUXtOJAFezIhLnfKvyrzhPHeJRDXAw0YgAndBN57XBOBp3TI0r6YTebFdCduXrpxeOnr7brC7p/9eNf7oVevXpR9xZ6eD/AFpTIgtM4wSdkxV2a+hJGuI4WrBCkthYge0+rrhU0PUpcp8jPU+TXKKobr0PoHFmxSpbGoDT8e4fFx3tkR3uqWNEVtvUy1fQJ13WGaVjh66cQZGFjh21oYpEnX+Mpk2Ci9mSvsWMsz1YtqB3TFAFu30nHKGqFp7qssKywpGti9Zxc4yMzKS3dnJ5R2P5Tdihtjm9c4RvXhKZViWXxv4eQPkhia8ZhFbVJD0Iwm7uMQHhOqCqIDSsmf0Vp1QIRehgiIhYXzKai1RyWSo04ArNvSDg84SJzZCAkdxgUVWiyRlveaC9bXHG5Nqu3FIx2L1fY8cFuHgROGweyIBCnQDQpU+ZdnpzTnbE5FXgioqNLQSTFrLa4zebXaFQMOgsBZ8BhmNERUHdn57EjfCJew+MErWabRhnze4IOK5dOOrZ/z+53fwceG3QYtZGgNzE1OeVxKgRcMhoh53MiQV9iejLs99h0ajGbOdDR2nTsMItKkgg4eBRcp5TBQGMOi2E66EtGp9Ox8FTAg0cjmk8cg4PHlTKJz+eJJ+ISmQQGh+kMOp1BRyQTRWIRX8BjMBmr66unN9Zrc7VQePrDjz9CEwiZQqFYm6stL0tVKiQOp7dadWaLw+NfOX3GEwihieTJaGTt3JlYNiPSqEagYJ5SsXHt2tlPbt7+5tvzdz4F4kkQCi2/unH1q6+vfPVVoJDtQIFG+SRu2MKMm1izFl7BQU3oSWEtzidvIgObSBPssAts17wz0d4jRdKjMm5czk+qKQHV+8D2TjEFO2OjV0KYvANftCGmFa08WDsbOqwgH8UPHaUBsRkbJGuDVF0Tc25w2Y4sORAZMzRs+Ovu42/CByEhHTJhmohrwEXdcF4xVlLDS3pYREELaObPrD57/KTud/qXDqFXz5++/PEHD4VVIQs3cIJbZPkXNPVVvHgTKzjLUIVHcew9p6QN/Uk4c40qP0dR7ITQVbLyAkm+RpIkoTTyh0eTWBbro8bUBG2TornCMF9hWDeZhmWu1j2GlJzq9IOQi2zJJk95lqdOQUny453TaMaS1hkkcCDvH5hB01d46msq2xJDvCFV16SqrFTpozCH3t0D+vBgAMOaFxqXBcYVUb0Reh1CxpJMN0lma8agFZU+L1GaJ+Ajb74bZ/BrKutp+9SsSCvsG/ZR6RmFsmQ21ezWuEJetlidFAbieDPqRJtoDOaksmNydUKhqdpcNbs7rTFkdMa4UuvlCQD7DsT0Bq9EQhkZYQNBIhgiaTLHjaao3kAEDFJGRnxyecJuy/q8GY/bp1EFdGqfVg0H9DXt2wPq7hjvbBtqOUWGTpBgYD6FIOMymo7u3/XWG5DRAZdZG5/ypSPBcMDtd5gYRDSXSvTZTTa9Ui8Xc2l4DBR48vC+4wc+Qk2MeWzGbDIan5nMxMPg0aHpgCc2HUzHZmLTQa1C0tRwpLejxWHWl/OZfC7j83mwWDQKhXA67RQKSa1Wzs6m5XKpQiErl4sLC3PJZJwr4BxuOJLIJJfXV5fWVpbWVjEEPIFCIVJpEoUylc2vnD5jc3lQOEI0lZxfXdRZjSAkTK7XqK2ma3c/W7988auHDy599mk3EOSJx6/94Y83v/7Tta+/1k0HO9AgokUqSjjoMb2g7GLnrYSIkpEyUaY03VzEh6MtjClrEwfXxIXyMiZ6VMyKSXhJJX1avQ/V30CDYUJmWs5HyjvJRduwjd7MBsItHGpQdZI8tg8LwCSt4FkbfME/MecBle3IshOZteCzzv+t+eO3kQPQaS2x4ICktOCCdrSkBsxKoUUdZtZA8inza3NPtrdf1TX0/+ok9Au8VutZ6NnTl/cf2HG0Ip67jubcIsnuUlU3iNIzWP4GVVpAs8VHOkXHuosk8RpdcZYiv0JW3qJpr5GU5wnSDbIsDaNTdx9bleilxzqnhpAreMllpvk8zXyaoV/m6awDIHlzdxRFXOFINjnySyLdCl1s7xmzj8CXdU4PhgF5/2CKLFxkK6+rbRt81WmJusiXLJmsGYkCuGvv8O8+dIGJNZ5uSWBcEhqWJeYFmako1hQlmhCFpRoGFWXqvEhWUaipx0/awIiq2rpiDZTVVl43ICWRlXS6ok5XMZuKJkNOr08o1FokHnzoBK0LEJOqZjWGjFpfttjLFvus3pTQ6JJag5FERjS3pIymuNHoE0vgLa3QU00mOsMtFPkkEkxvrwABj5pNSYct7XYmXY6QUR+xmV1K2UR3x3BLo9+gMYn5dAQEPtg33NY02N7UeHDv3vfebD56AAMZE3OoEi5NzKZIeXQZj44EDcLGAUTUxGhfe3/7qYGOxrH+jsN73iOhJhLT/nDANRPwlLPJbCKChoIik774TNDvspo0CiR4vP1UA59FzcRmirlUJh1XKKRjY8M4HJrNZrDZjFQ6EY9HsFiUx+NKpxPr6yvpdKKl9RSOhKkulBfXFpfWlhaWF5EYNAqL7R0A8EXijbMXNs5eUKj1aByxVKtmSzkqm4Yh44LhkMntuP3VF+uXLnz+3Z8u3vmkb2Ji8cKF63/46sYf/3jz229ETssJ0ADOIBTErPSYTlhxsfNmUkzNnrUwIvphOeHNvqN4t/IQcQwfUoiLFnpMRJhk8GhPaz8AACAASURBVNIKckh+lDRyAD+K9GnZxQCz5CFnTV1qVKcITJ2UM6bUTXTgfvwgKm6emLUhFoMTc97xghVdn9qZUAnj/3LgjYNM8JhXTK24oWkNKK8ZKWkGZmWgvBadNWI9stRy6Un9Fu4v7C9UN3atL3GfGKC4NIy6AKZ+gpd8QVFcx4tWEYwNmvg0R2loG5Y09MyzVBtszQZZeoEg/ZxtukZSnsEKz9EU08NI6cnOdZkuDCOamwcW8cILTNM5unmFplvhG9RtA+q2vipDcEGi3WSK16mC8wJ1CkHSdQ3NK80mMBaz72SFp6nRpZflphta+2mxqiqU5iWyglzJau2Efbhf3j6cJgqXReY5nm5BZKhJDSmOZFYgD1GYJjB82WCuqTQremOMRuc0tSS4sjmTe8M7TW/rKml1Vb0hI5ct2MxVi6lg0Gc0uohMxRsBkTt6XWR6UqooGcwZtbZgslTsjrhakzYY+CAgHwQq2O0VtztjNvmEAgkCRujrJQ8COBMg9gTIzGam7NaYzRSzmzM+V8ik9WsVGhZttKVRx2Gkfc6I0zJtNcxO+VxamZLHaPj4g5HuFvTE8FBX82hvK6Dj1EhPc9epw0f2vNt4aPdwdzN0uIeGhVg1Eq9FJeWQAR2NXou6OhuLT3nT4WAtn/LaDEQUxG5QOU0aLo0w3NsOHOwhICZcZu1iaXaulE0mwiQy7uixg6NjgyQyzu935fJpf8Dd09MejU5Va8VweJLHZ7V3NtFZ5JX1+ZW1haWVuXwxOwYcbTzViMKgZ8KRs+cu1mqLAoGUxeGvb244fQ4oChKbjalNan8kdPb6xRu//3Tp/GainEPRyGtXL139/d2bf/rj9a+/wkv47zQdHmSjOdN6RkzHmjWxcyZqUsNMGjgxI8LMeW/wRCsDcpI5QY0oWWk5Jy2mRlmshBjnF3SL0e9NdI6ZhbKFiKAWAPsFjcLRESOWOiMnBiRtXMgebD88agSlrcjFyYmqZyRjQJedsIS2WYX7X3f/5y4NETYlx+ctoIRiPK8GFFQjFd1YTgNP66A2fnQ+V8cj1gFK//rHL+iFXr569Xj76Tf3zFBcDk5fhdA/wQo/xYmu4/hncOxNumidK3cNggXH2sJQ8hpTfYamvECQ3abprhLk53GiizSFrwcYHEPUOOIlvtzQ3JuHU88yjZd4zjW2qUyVyU526dsH5mi8M1zpZa7smkB5gSefo3JM/SNmIFw9AiMfbc+zFOsC3SZPtcaWXFDqF6TyNJeTEQhYTS2yrn5V5+AUnLokNi+KTfMS45LaWpHrw3SuHgT14ghrJnNRLF5Uq2pSiXFkhHKqLSPTRXgS4cDQJJ2RVyoKKnlJqypoVFmtJqlWZ/QGLYZAauuWDo/rIHAngZyQyasOR9lhL9isCZ2GPgiYlIjjGnXFbs+ZjEmDLqHX+iUi5f/N23sGt3KeiZr/98fW/pn1ztx7x9d22dKMbdmSlc6RTubhOYc55wCCAEgi5ww0gEYDjUbOiQBJgAEECJIgQJDIDGDOmSdbkiU53LEsjyWdrK0jzmq9szNTqju129XV9RUajV946v36/d7vfZi0zqIbhOoKI489YtAGrYagzTjhscf8vaMOE8QgA8SuUbsp4nUGHaao3+NE5CZIjKmvqCu61mtCxnyuMZ8rNOAcdBt7TUotyOtB1fCp2BGveWrUGw16x4dcdp1MxiWBfMqI1zwx5E5MBmYng0Gfm0/DEztbxWwqj0ZQSfk+l1nKpTsMqpnxwGJqOh2POO0mNLq1trYCAPj9fa5kIhaNjhuNmubmung8YrMaAIDPYlGZLGJwzDc9G17bXNw72AiNDTc21VFplJmZ+Nb2zs7OwXg4yuOJTSZbfDZutGgCY/7pVIQrZk3OTBzdPzn59e3s6iKa1M2DJDt3Tw5+fe/k4w8OPnjQI2D98uaFRk43MKQHxo3KpFsWtxH7JPygVhIydek4N0kNPyh+q8PM44VVwkkInFUCMalgEhRP6ohe8GetNzutoHDSTR81XBe33wSb6WNScUzHHIGrIPx5WiN6UIeL9lIWR/Hzfsy0jRiz4sc0vySVvYK+XoYQ8aMq8pShe0qHSZqaE/r2jLlj1tQTM2Gd0tG52OOX6rln//MAfaf2I99sSv7d3pGzm5EmAVsE4B5Zfp8su8sED3nyDYE8L5IPdHRz3yvQljRkWYpNgW6Xpb7N0p4y1YcM5QEPcZc1ZfhgHlRtaUyDbVh3RUuOpjyQ92/IXBMksfx6hbu+Y5Ev2wGUd0DNiQzZEUMbcrgf00W7eE1U1qCsRScl+nWFZUuqXeDJdtWGZbV6WiYd4/M4BdeHSPTBLoqtARukiDOgaVHjXDZ5cjqbh8yQ1dSFReJliymDKJcN2jWTPsLnyZta29+9YKcwdFhcBIJyJn1SiyQ0cFKvmTUZJnWaaYvFyRMYiZQRgVjdipLWNfTz+RM6zZhOnfS4RtUqblND2uOOmYxTOl3SbgtpkGmnLdHnDlv0nLamrvLipqsXmgouSUldHkTuMyAxvztg14M0/IhFN2RST/Ras2NDEx67kIBBV5fU37xCbK8f97tGPJaJod5vTlew3wKLaBRso0HBnwn3J8Z944OO0T6Tx6RQAYyJIWdowBrwmhKTw/HwsFLMee+NnzaU33Sb1Kmp0FJ6OhIYAPmMPpt+atSXiYWD/l50e2NhwSVAxJ2KjCVno8nZ6PxcClbKerrRgZGBkuLrQgH79GSfySL0DVjmFqaXV9P7h2tGE8JkUcfGRldXV7deMnTg9wX4PGBgYDgyFdEaFIenm/HkOKandW45feeD23unu4hFU1BWqDRp1o53Dj+4c+eTDw4e3OnmUN8tvdrIwgF+HRy1w7MOYELPGYFV0w7FhKVLzXyt/L33UEXcgJo/ruSOA4o0rMgoeONi2YyR4JGcw9d0WqSsIeM1Zsub+KImB1Gc1QIpPXMMbjLQr/DRbf1qfHyAkgvQl4I9cUdXSHMNQL1JKq03027K0YQg3DOOEKYN2JS5KaFvzZhQCXN3zNzhAHyZib88//I/WZ7w3aLQV4+P0/MuHH2OIt0jg3dJ4AMqeJ8DHfHl61xJjgN4WjsZ71yUXC6a6GavctT7bO1tpuYOS3PMVO2xYeut6rwU3tGa8qBylslVXLwZamOsixzrMtcIli2/Vj7Y3r0slO9LVHekyA4H2ORLtuRwiEwlnrvY/e41QzshB1mWpPo9yLguRdbkqmW1OqNS+Chk1uUrYQY3JVboK9t0VZ1hBjinsi8aXLOw3oLFC8sqIjLZnE6zZNStWwzLeiSrlA9weG3vvk8vKjP3EKZV8JzZmDFosgZNzmLIWM0RnTakRkwMpoPOyhnMMblSh8FA7W0hBI7bLRGLoRcQiDta43ZLttcVVMizTkfEbIjazVMOc0CP2MW8iMsScVmAns724gIutm3Urs+GhzwauRDfGXIYp7z2ISMyatNbQWHx+Tfonc3EtloTJMxGAuF+ezTgjY72TQU8Qa+R0dXIJbaNuLWZiD8XHUpP+hbigVGPHmBgMxF/ZMg+6FT3muCWqpL//r3/reC9N90mdaDPkY6OTY8NBfociJQ/1GtNR8dG+51iNqWytLAL0zoy6EnEJ5Izk7n0dHRyVCxgigVMQMhiUHvWlnMzsbBQSPMP2dc3s0sridX1HJtDUSil2WxqeXlpe3tndXXTaLCJRXLfwIjDaXN5jPvHq+MRPwpTv76bP/31UWYp2dbV1kFAmzyW+c38nY/v//oPv9m7fYSjES+UFVT2NDHMYmjMIAlpBQEYCKllIT3TAdzsqfrBpZ9ewZSJw3r+uII7LlRkFMosxB0XMkakrBHkErmxwyBq1XJ/1nytUNBEGBPxcwgvqWZMwGi3qAgitg6oKckhQtLPXhrrmbK3eyXfrzvXoCNTRxXXJC2EkBI/gRBnjNiUpXHW0Jw2o5LWrpilzSrqnR397Mmfn3/97D+zMPQdEXqyFJxwYWmLdPkhTXGHIP2AJr/PgQ64slWOOMsW9LZ0CC8XggVlnjrMAh064OjusHX3OfoTpmqHIbcUVKxDyI7OlAMkK6ACvnzLUYxKUZBlwOZDUZWFleEe2rpEeSCFb0tUWyzRBle8IZHP8gX8G8W1P3ld29ydgyyLgHZXbjhUW5Yk8iWVKqeGTe0tosLCKa5gQ2NxNXeDN+rtraSoEMlpbFFQpUdh+SWl0wp5RgOvWg1rFt2iBlrUwGMyuZcvvPWjH+s6O0dF/Jxes2jW5y2GBZtxzmGJGXQekUBFIPjFknmzLa5QjQiEYEuLnkyccVrDBg1M7FaReiYM2vk+TxhWzjkdy8P+TL9nwmrQMMislnqXTBSy6KMee58G6ii7ceOtn5NaauQMAsQkjjmMAYt2wm0JWHVMdDO1vd6NyGoKL+hlvPEBx5BDP9prDvXbwj6bUwtgGookTGyozxgZskdHnOEBc3jA7DGCAAM7OWjTShldzWW3Lr1F7UKRsW2IlD/itY8PeWOhwYXE1Ji/VyFij3jtU6M+LqUb01qHRTUCQlZqNrK8mF7IzebS06PDffguFCBkkfDo5cX04lwiFglKANbCUmx5NbmQj49P+ttRdSoETKVnDg/37ty5MzeXF4tADltkt/Xy+dypWGB1M+sbdmC6m3YOVw5ubzv6rc2dDWIY6B3x5tYXHvzug4/+6eP8xgqqq/NqxY1iVBVJzdbFnOppGxw1IzGLwK/AwuSLrTfK8HVv1FzkBVT8CTlvQgilQSgNcicEWBcdTvZeINU1wsxLxIZ3caUYG5seBRkpOWNGSY+o8ENQpY7Z7FUxMqM9MwP0XAAT0pcoCT+qPc8eVfGi2iviekIIIkd15IQJmzI3zOhfIpSyYmOWZrPAHhv8H1/+8f8nhOLufjeWvkSHThjwbbzkI6byHhvcYYrWuMA8H/Chcea6ZmttO1JQmyRKDvmG+zzjr/mmExaySZWarpVuKjULUigvh9YUyv4mlPpyTRDFnxcYPS1E5FZtnMbfAdU7AtkdCXwKQJtc8bJQMg9CxnZ00X/9iaiscVasXQENayLVqd6xIoOWYGUKksrKS7R1dUlAuqU1x1hSQw0GvNXY38NJq0xRUKVt6+QXlyZUypxWlTdo8jp4WQ/ntaqU2ZJze0pf+QdOaamPRZ83ahdMunmjNmvU5uyWGbPRQCXLMJgRKbjqcC8aLRGZvJ/HZVVXsutrhlUQva7KymON6zWzVnPaZs057HGbJaRXh4waDYMMEbvCVv3i2PCsr3ei1zLpsfVpIWJz1ZVfvtpWct0gZPFx7S4FYJHwOitujXus/XrlrffesMHAiNMQ9FiCHsuEzxnymjiEFlxTkRFixQKOmZA7OmIf9Wh7DRIZG1dR8Gbh+X8svfI6yOlKTQ7q5ILC93/Vb9NuzM/OxcMb87Nhv0vEwCtFTETC4ZAwZEyzWQ0qZQIZwM0ko5trC8uL6XRiyuMyF9+8wudQlXLRSj6bTkylZiMSgLG9nVlYnIrGhgCA0dhY7rAbFxeyt0+Pjo+O53N5QAiiWrEigVQqBTa25pdWEk63Fk/u2D5Y3txfIbHwCh0ohsXDkyNrB+v3f/vrX//+w/zachepp6Kp6mZzCVrco5mwqqNWxbhOFTEzHKIWEaZD1C2yg2/VXqT2iQXjMv64CExKpbNi7qSANiSCZpzFQkwxD/tOZ3kjRGIHYEpEQk5IqHGQFoXJIaTKwK62S5nZYM/MQFe0t8krf4NYUQXixBN6XgS5JKwmhEBGwkhOmDBJU8OMrillQaVs2Jil0cQzRQZ++5c/PPv/PAo9//rxnx75QONoj2iRLD1kKg7Ikl8zlA8p0AFRssOSL/PlQRxhDIePEKiKguK+esw2W/uQ7/idtO+Yrlkjy/TXi5eU8oSIvalRbMgkS2yxuxxluNk2SZEaalBIWX2MLtiSa3cA5W2Z+tdKw65QviIE5kHQhcM1/ePP6VcLh8nsBQCZY8s2ZbpdxLIEa2ZlIP3iBUdHe04uX4PV6wrNNJ2vLq3V1LeEpXK/QCyoqpXVNSZgdQ5GVrXaDb12XY8sINCc05Fxu3uuXqJdv6RrrY1J+TmdMq1TJQzaXK8zbjMD7c3i1vq4TrXqsM7pNCmtakYLDwjYBmIX/ubVxnNvuUW8oBoOa9WL/oFZuzXusI4bNUGdUoJutnPIMbMq6dRlvaaUxzBhgcdtiAcWs9GNLHSThIihNFfVXjlXdv6X2Kpb7M5mdGVh8fnXtQKanNGtB5gOWNhvULg1ElxTMb69AuT1yDjdVFwdsaOKQ2xFN9ysuP62CqAMudTRgHNyyDYd7OOQsJ2NFYMuY3pqNBMLzs2MjQ3aUY3FRGw9m9qhVrBDw9bhAbOQS9KogFwqMhMdnYmFZuPjEoD99ps/7+xsTiandnZWs7nZ8YmAEhalc5OJ1BiT083hEqj0rsmp4M7u+sbmytraSiaTFYulBddukoiU2eTM0Z3d5Y05OQJwAebS5rzSIKcLKdmVFI6GmUiEb390cv/Tu6cfnoTi4U5qV0V7zfnSi2+Xni/pqqik1hf3VBR1l19suXah8QpeTsJJ8Bcbr3YhZNEQKAhIoRgCzaiFIRCJWVi9MpoVON9+q4LbIRzWApNG2iREn4HpMYQSRkij6gYTr9rAF6SGqFPuziFNMUK+zG/mR0yscTV9XPUupxI/pqBMG0gpCzZtaZjVt2Zs6Iyja9pap2VBA6b7Hz948rKK+vnTp0/PdiuebQE+SzB8K8X4D/rFfqeJ3Gcf/RnCCaJ4+QpFtkWTHvPhB0zVR0TkXo/qgKZeYMlHO7piaOwSl+tsblIWlCwSZCc0y2+lQ0d00wZDqS8qzkDcnJKzqZHsSsV7AlmSxFddr+5Dk3mXi5DKxoQAXJPrtqWaE5nuHqQ/AJRrYlmSz9c21NKuXBxm0WnvvjdN52/K9Hmhahux51XGWVBJu3DBie6Yk8s2EfgAQdYkknlAPEAk9HFYA2Ixs7Law+TNay2LkGbPYD0wmVdVygwky9htLg679JX/Pi3nQWVXpcWX/LSenEWfsJqnzMZxg4bfXC1rq0wZZMt2zaIZSanlOZM6bVRPQACnsqjyZ690Xr0067TFrGa7gJvz9S+O+OMui4VJJhZf7eUSszbloku14tXNu5EZh3LKqkSoWHpL1YhZbRIzu6pvstH1NhnHiwAOOe/cj/+Oj2tWc4hsdD2trZrWWtVTV1x24fUrb7/aXHmVS0HpIHafTTk95gkPWuk9TaTOmskRRzTozk4Pjw/Z/E594fu/Gu41r2anY6GBiRH3XCKokJBvXPkFrrN8eEg3Pe2ZijhdTpnZIBkL9M5ERxLxYDY9aTWrrl4919PTMeBzLS6l5xfTyUxcrgIRvXxxZbYL3yyWMeLJMZVGGgj58iu53YPN7d2N+Ow0Ct1xq7goNB5e3VrfPd2bXUh00bpNbtNkcqKb3pXIxw8e7NaiqqLZya3T1ZMPD44+2FV7tFyNSOlWY7jd7Uy02CqBBxCRDUALMKW48mpidXlP+a9K3/jh+R/+7S//y6s3Xvv7az95u/1aMbu+AyYK3DLIp2LpeaX4qm4dTTCCsAIwPaziz1iEs3bOpJER1KEsgnoVQ5HwK1J+rFt6jl7d2S+mT6gVS/3yBU+BDMWImQhTOnLSgp41NM3om2YMrTFDT8xaKiPgQdbK9srnf/7jl1/+5VurzYsXL872O3788ccfffTRixcvHj169Nlnnz179m8n7r4TQr+9/3tKRec4VrzDVq1TRXckmocczUdkzQOS9oChydAkg22dUXTntkQcJhGQwtJZNHePqL/PdZ6wzLtc7UuEQM6CirelAfakoj2BdIWvcNVh7E04ytuX9fXtS0r9mly3KlAcS7V35boDCbwmBuMcjqqmQlZVmtMi0sKb/vauvECxKTeuQS93p04KAOaVK31duHkI3FQpT3XadalkS60KMGkwqhXs6CAVFQ/yxPMa0yKk3tYadw3GNQSeR5QxnVrc3Nh5/q1FkyLCJ+kbS0RFVweYlLjJOGEy+CEpv7kK6WrMmOVLNmTRjGS0ipxJnTGpQ1KBqK5c0lKnJXajrlw0s+lxl23CbEh6XWEDwm+p4TaUT6iBRa9+zo0serQZpyrhUo9qJczmCnJDmRsGuqqLMBXXvQiwMO4PO3V9aqDm8ltxn33Ka54esJ2dk71GmEPQgayQzzzmt4z2G0f7jYNujRHm0bobxSxcbMwzO9GfmvKH/dYhp6Gi4L3k5Eh6KhAf8w15jDolp7jwV/VVl/Qa7nTMk0gM5HLDDrtEo+ImpoezqbHEdCCdCBN6WouKLlms6sWlVDobn1tMzSSnmlrrevssgJSBxtQFgr3z+bhWD4bHh5ZW5o6Odw8Ot/v6emtqqmg0yu7e9vb+9tbxTjA21oRpGYkEnH6nwaU/fLh38uHhzepr8fnIwlbm3qfH9393ypDTWSou0qft5OE6BTjEr9EMa1H8jmutBW18lNQrVY+qIb8cJWzvlnaT9cxbtKrrtOo3Oi7/uOKXP7j26lvV7/7vb/wfP7ryyg1KRbUMXaPCdXo49DGYOYZQBiFin6xNxyrhdRJdcuVsX7cLuCFuowYVLTYaK6IhBxVv08uxPglmWIaPqNFRdUfC0BLVoCJawqSxHOjG8knL6/lvws/LDfNfffXVS7H9s2dffPHFWQfzp0+ffvrpp2c7Gj/++OP/ty7g6++U1H7+9W9Of9NyoWyojbHLR1apwkMh/ICn+Ziuf0jT7zM1cSLX29waxWD2ZJIMj9tb2xKuIx4xzPsUwxHbvC/U6YuK0xLWslqwhbxEaJcv2ZSoI2S+obKFee5qL7p7TW1aAdVLPPBQqr4NavYl8KpYFqHTldXlVkx7RqWYZLL0RRWLfGhZrNpQmvIq/SCFzrt+fYRCzivkW7Dy6GUUAtJ83giNIm2oRV14j1JUHJZBGaV2Qa5aR7RbOt2GXrNq0o0pQFZNhRLVMAPx9l2aaSENKL7KK7kRkEkSToeNx2DWFpkoqKwFWrSo5k2qnEGVM6lTRsTHY4gbKodlwmE5APfgiKVFUDcmqENmex0hHcKoq9BSuuNWddalzbrUGZc64URm3Vq3jE1tquB0NokJnfi6Yr2AOubQxn32YZMSW1koIXXMhQciHtOM3zHjd2RGvXGfHaTjHFpgZrxvfMgWHrQmI76Z8T4jzCN21mhA5vSYJxMbSkZ8Yb/VpBQKyNjD1Vx8zDc+6NRB7Ipb59755d+LudjIuHMm5o1Pe5aWxuxWwKQVJuMjifhIJjnW59bX196qrCgIBDybmwvJdDSVnc4tJCqqi/p89ptF75utyvhsMDcf0xuh+Gx4Yyu/vbO2vrEsA8UNjbVOl23vYPvgZH/9YGNwfLgB3RjNxBQGKJaLHDzY2TpdvVZ2Mb0ys7w3/+mfP7jz6RGK1kaUkvh6AVbU1cFH860CqVfWKmiroFQyLGxlEFGGEHlAUc9tqKZVy0cR7qAMilt4Y0qKV4hW4ctoVT+4+uMfXP/JP9T+6u8rf/53lT/7UetbP8NcfLPnxgVKRbGgrVqKa1KQ1TP9utRAm5Z6U9jCnVDjfULHfog1iRQCzdRRBTuqF825eUte5mofdbGXlnOjhxQ3mK3V3Y3hydGnT7968eKldvqsZfmZfubRo0dnDfr+6Z/+6fnz519++bL70lmPsX+1iPQdotDzr+9sn9S/e91R2bnKlG6wgCUq/5St+g3LeI9h2GIiISzFWd8wS+jekwhXAGGSwhwobj/hWrfJmiOeeZOHGIuK0kL6lhbYhsV7EvE2D1gXKVdBnba0TlpYMkykLciRZRmyJlIcAKoTKbIvhVfEslECASi6PsIkrZk0WYnIWVU32NyZFypWIO2CSmduRwElxREeZ0kJbSqgAxjelsvnAfGsTGIn9aDfP4e/djUkkcwh2jWtYVWlXlGpltVwTq2YRJQt595y0QlzOumaUTYPC6ISlhHTpu3CjqoUKgKWXVfi5ROyFkXOBOdMqgWrNmtCZvWwhYTjVRXH9Mpps3YIknjFPAOdIO5odoq4Zg6D1VTjFLEnTKqYFcl4TXMD1qTXNGlDIEpnZ0Uho6OB34MaMilm/LawSzvZqx/QSequvTVsghJDjmmfZdKjn/TosyHvpMcgZ2D9NmVi3BsNOKZG7DNjveEBo4zTRe+q77dCM6HeuemhxLg3MmSTMHBDDs2wSyem40Q0jNMgkQuJqIZCu0Gcivvm0sOphC+XGbZbAacVTM8MD/bpxTw8h4GRiCgtTaXxeGB1Lb20kpqKjU7FRitrbvEEFK0BiESH5hen47NBs1U5PRPa2lnc3VuZiATQnS3ozpap6NjR8c7h6d7SZr5vpA9D7BweH4QN8tW9xe2TtXR+ur6jcv1gcf/u+u2P9gKxgVpsBUtFV/tUQgu/S4ZrFbSUkEorWdVUK43bzwfHFZIJiNbH4vTzarh10jEVLwgKohrOpJIVklM8/Mv4wkJScQG5uM3Q0+Git3sYbS5qnR5XDXeUS9tKBM3XqNVvdRSWcNtea77045q33sYX3pQ0nGcU1egwFSr0r7qv1mhwuD4+fQJhJS3YKaRnxkCI6a9IO66Qa+uJLb0+x1+++NOjR1+dmc8fP378+eeff5N+nPvkk0/Ououd+Qv/8pf/e7L31xR9B4RefL2WmcMWlCBXK+aJnB0hmKfz9hjy+wztKUO3ylD42rtsdbXzTPKJXLwJCFb5or7i5hSKv8813QZd81TAXFSU5lKOdLI9hXgf+AYhoXwdVNvrW4WXC3xd+AVQuQLCG4ByT6w8kqj2ZPAKAPpwGEHBxRTI2zLCG7AsQaUy/+G1WRo3I5DMwQhYUaGoqUyBkmUltAHJdyHFrhLe1ekW1LAJh8JeeBf3/rtQfW0SBLdNpjWNZkkFL2uQGYXETCG0v/f2jBZaNIB5jWDDDC0ZobhSasB3yTs7KOVFCkzTpFqQpWBxAAAAIABJREFUMcszRmXWqFp2GTNm9YxeqepsohZdDcNAzmOJGOD5fkfEjAyrpLTaisZL53ElhRABM6wGYw59zKVP9luTPrsbEmArb1RfeYeDa7UrhBMe/bTPnBi2T/ssEL1T0N0Y7TemAs758b7YgGl2yDY7ZHcqOAoWNtirmQm6MpN9qQnvdMBhR3gUdKVaTJoJuRLh3tRLfizjA8bu5hJ8a1ln7U2HWhgdtod9Jja5hYStDg0aF9KjiZh3MReYTw8b1CyPHex3KUldtWqIMTpkRpQcmYS2uBBdW08tryQy2UlIKbh4+U0Wuyebm9jczi7kYz6/xWyBUunxre35jY2c06krLy+g0nArK9njk+3j2zvzyxmNCcbgUQqtbDDo3T1ePbq37Rm0dlPajx9sHd5bn04HWRJCQ0+lwMAyBbWyXnEDu/a9lnPlzHKKg8rx80RjEkkMAuIK3gRA9FCLGKXABKzMmAQzGlFKSw4Ir3PKr9FvdWi7SoU1aBeZOimjTIHMGMSMyLmRl4wR+gVNGvxlalWJsO2V+nfLpG09/TxULxXlodRbu24pW15FvfOTtnde7Tj/g9a3/mvDL14hX38HbHobaPg+6sJlWk2HqMsxaPvDn373+MmjZ89eBqIzZ+7p6SkKhWpqatJqtYeHh5999tmZjvp/Ogq9yE5OMsqrwfMFOTxtH5Cv84FtuvSEAh/TNcsMubcZba2rWebRH8LSPTF/jc31l7f2FrYcSez31X0JPNdaVJRjk27r5Ady4AAAtrjiTZF8USDxdWDIr7/pbG1fVqpX5ap1sWJPpDyUwHugakkC9nWi+VffX9PJNtSSFVCwBojUV64pLhXMAdI5RCUouqGqr84p5cswtAGBa2JgW67YUKkW1LChs5VRfM3Y1SEsvTVKp65q1Ksa9Zpeu+2w5oxqGNuBvnw+bYSXTGAGpK/pJYtaaVwJDIl4jMqyurde05M6UjYoaZSlDIq0EV7uNact6rhOIW+rJd+6HNGAWbcx4zbmfc60xzRpVIJdqOpzv2q59n7LtfchImZEB4UsqkmnbrrfCjPxxed+UXPtnEZAiw06EiOOVMAZ8epHLJCa02OR0sfdmqk+Q3LEERswzYW9sQGThodHeD1BNzI+YJgJOuOjjqkhi1pMwjXe9BolS7MjqXHPdMAe9GiGnXD51Te6mm559EB6wjs1bMlM9ZPQFSopeWaidzk3loh64xH38IBaISWIOGgOtQXgYiMhRyLajyiYapi7tDC1vpZIp8Nb23M9+JbXfvlDRCNaXp09PFpKpcdGAg67A56ZDWxt58bCfRIpHY2uUSGind3Fo+P1/cO13GKSB7Ba0PU0DjE5F90/XT95sC2GWFhiy50Pdo/urQ8EbD2Mtg56A1dPlbr4yKC8iVt3DXeJYifLIxBrkE0fYgGzkGgWooW4+D5KMacMmFBo8nZ2TCHO6PBDnFdbXkcZcEwfr0Ja32ztZsQgTgphziooESkzqmBPwfQxOc7DLZa0l8vRr2GvYL1c+oS8K8DjpzWYEU7HIPs62HgNqC9RtN2QN1+RNvyCW/YK7dbftL3zv5T94w/r3/1p6VtF7WV6pzEaj+7u7v7+978/m6198sknNBrtp98cGAwmlUo9evTot7/97ZMnT/46/pyNv0sUejbh7WVXVJhvliWxPXkqY1Mo2eco7jDUx0ztlkBjrWmCiwpX+bT7oPBYzN8XiiOteMlrV6Od3D3QMoEmeyurtiTcTRHzUCY+BIA9oWxDKMsLAR8KDVy9Jr9xc4JCW4dUW1LlgVR1B9bvQ+o0V+DpRKurSpaU/DUFd0PO34UkMXy39sZNdUlJSiEnvveuowudgaRZQLQFQdsycE+p2oBVOQWobasXVN6aUoid3R3WtsYVNbykhpf1msMBT1wNCRqqebWlEYVwzapYgDkrGvGiVpK3aGYNGnlHa9O7r1OKLw3wexIGIGVULrqMi25TyqyeUsvoJVe1XS0puyZl1+R99pRTFzUp4laVjU/tKikAe1AqCk6AbqQ3VYIkTB8i7VNLyS0VDYXvaQSUqX7LpNcY91vmxz0Rr3aqT8fF1vRpBNM+Y9CuSAUcsQFj3G+a6tOz0JVaISE6aJoesc5N9eWn/SGPmt1dh2+5Fe7TLM0MhjxqjYjAxdfjW27hGq5Pj1gifkN+ZigRdk34Dej6AhPCmplwrc6Fl7Kh2YjXbZEwiPU96GI1SJ4IWNLxgfGAWQXRXXZoZSm6vBSby41n0uHWtrKy8stTU/7FhejB/sLmRtpiAV1OeC43nstNCPh4FqtTKCRYrfKjw8Wjo6WNzVwkNlpdX1JUdk2llR2ebmzt5+8+3CXS0EIp7d4HO9sHc3QuxuSWc1QktpYkcXIFdmYxobCaWwGMAtJJkD8m4oSFgmkZNwbQw1yin17KKwcmFYwxgD+rYkyBFerWCnkje1gom1DUK1s7XCTimIgclZFiUvwkwJyBuQktOQw226jvMsrfoZXW6HsIo9LuoJgwKebmtJgxfvektNLSc03aSAsr6OPKroC02S+8hHR+v+faG5zqChX+HdSNS003uUoRIJOw2WwWiyUWizUajcfjkclkFy5c+N73vvfDH/6wpKSkt7d3d3f3rFnf06cvezt/y9J3QOj5U58eEVSVDtc3Bavrst2EDZ74gKe8z9afsHQ7Ip2holZ+/fIan3pHxDrhs0/FQBJHg96+aStu3ZAahltwg3X1R6BohUk+logOxZJ9sXxTJNsEFb42lL2xESktcTQ0ZPnCLalyF1CcKLQ7MjjOYPd2oi0tNXk5a0PO2oV4+wogz2P1NdYLLrwXEfF6zr/lxmNSciADCNakwLYMPFCpt1TqDCjRtNRIaoqSWjDIpegbKmeEnCW1cl6t3PI4IrCUVFSAYFunlMI1i3xNJ1zRCJd0kiWLOmvRq7vQ6EvvoN7/BdRaHNeKFpz6Gb1yzmFIWTRDAIty66KD3pV16ZI2ZGXQPmtTRQySpFNtZndTa24NKAQxp84t4wLd7Yy2WlJjBbbqZmvxJTamPmhH4oO2YbM85FCmRx3Rfv3skIXdWTXuRhYmvGNOOBWwx/2mM5zIzUVGgBwbNEUHjbOjttykZ9gu5/bUgcyOZMgx5kFE5GZcfQGh5Ra6+jLMwxzkx6f8+qUZ30Ksv98iQddfG3RBiUn3QnIkOzOYig2M9Gsp3bVkXEXIr1lfGFvOBaZCVj3Cmgw5Nlen8wsT2UzQ69G88pP/ZrNBiwtTm+up5fz05kZSo+Y7HYq5XHigX08kNIIyihrheHrhw4O509Olk9O10Ljv8rV3axtKQhO+uw/39o6W7zzYweGbzHbF/Q93hkN2ChMVSfqEerrUyZO6eS3c2vda3mmRNQFBgDci4IWEvAkxLwpwY2LOlIg6yCxmlwDjEDMopocl7Bh0nlGIsRJ5I2LllLoF6cC4KeQxMW0aoiUUpLicGlfSYnBPUFpnJf+CePM1/A2MT0gMQ90hgDqj4C0auqMyTBgoM3W/x63mTulEcRMjou0Ylr0Htv0jvazMTKWGtKV8dC0LHUxFVjfWZ2ZmhoaGHA6HRqMRCoWNjY2vvfba3/zN33z/+9//0Y9+VFhYyOPx0un0p59++q/yCv8RQv+yxvTsiYFHUzRUprt7XJcuTzQ0LjE4h1zlQ47hhKVbY8P60iqk6Nomj3SPR7nDod0WCOZITF8DTnmlfIYmdlY2BptbTyTCbRbtVCw8Fkv3xOAOIDtQwr7W1nEKabinS11c1N/SssARbAnBHUCxDsjjTI4b3eHqaNyAuXsK1gHEOYAEGxLeJAFnqa+yolt63n/TQ8LOqcBlGNyQSbal4CGi3VIhSYlQ31YDN5dldNIZObcP12ZtrArS8AkISOmUk2qw+d03etnknFm5pBfvmIA1rXBZJ1k0Kme1SlFDFa+21EhoM/bUOShtozJOTCtPWzVJM+JmEeglVwbF9JQdSViVyz5TygknbPKkQylsLmbV3RjXy+b99qhDO6SV6fgUTGVhxYXXW4suMFCVMBNjFOItAMlvEE161dEBXdABiQmN0z59KmCN+w3xQWMyYM2GnFaQyu+q6UU4UwO6qF8f9iCjTkjO7GgtPU9FlRgAokbYoxX1WEBqr5rL7Kzo1bDXkgNzEdfStHdxuk8vI1GxFRN+/Vx8IBsfGB829TkgFrmZgCm36zlzM56tfGhjMRgLW/Uq+nx6eGM5sro0OdCnxmEqf/7T/xad6tvaTO1uZfLzkeX8FIfVabeCA/1aJUQ36Ph9HthuBaIR19Fhen8vdefu2uCwq6DwvFzJ39nPn97duvdwd+9wqR1dGRrv3TuaZ/Gw3gHt6l6Sr6ORlLgOUXMFufgm/nq7vJXv5wtHRcIxsXBCIoxIeFNi7oSI7mPVcGuEw1IkaWKOSlus+GucMrKLJRwCdFOGDgTbosWSR0TsaRU7qWbMIpSogjQuJ48pmm2MN0kl14QttDEVK6KhTEC0aSU3q++JgN1hsNpMusKtZ42ohGE9L2yoNzJfp1ZeAjowfgVrzFQhwLWLKYuHm4+ePTlTcX7yySe3b98OBAIFBQWvvPLK9773vR/96Edvv/12RUVFd3e3zWbb2dn54ov/h4/o30XorN/5y/WmJ18B6EZLe+0OizFadNP4zttpHP6Io/iAY7rNMswTxbqbpebym7s84gc88idC9j0+d4XFm6Hx9WUNysIKxZXCWCfmVMg75XLuCIUnItmeCNwFZJuAaKC5PsakpIRcW1216nrBeCduV6LYk6m25cgsT+jsQA0R0HsI90TFPFIw90HOvkK0CHAiLLKo5Brh4psTEvaKQbWGQDsKcF+uPFLrtmAkLuCYULUWTN2cXrqgBZIAawDXApUU2LAts1q5T8JtePu1cSWw3muYV3H3LbJNvWhNL0mrxDGVTFhfYaZgs3bVlIptJTRBbTW6btSgmDWllUGoWqCpLG4EExZl0qZY7NNmXfCCVx03AZhLP7PQ2rK9SMIJzzjV/Uq+ANdIbSmntZQLcHUIs9PIx3khqomPobbc5GArQVorsamwp77Ao+bYIdqoHfRquAGbbMQqJbfc5OKqNHycnNHO76klt96itBX1NBTQO0ptEM2hZDhhZqRfMzNsivp0zM7yyX54PmLfTPvzMff8lItPrAU5qHGfNjXhigWtkKBbxOyoK3ufS23ORF1Lqf6FhCef6h8f1iAgfm0xtDw3upAd4bFRXdjyqor3FufD2xuz68vThzu5hUwYgyrTqtgKGdlplcxnR4IjOq9buroUunua2dmKLi1N6gyy1vbKRCp878He8en6gw928yvxmvqCzFx4YsoLKmk7B5nD+0tksOta2+UyYglRjcfBmDZZC81BFY+IRaNiUQgQhkTcIJ89wmW4Ge2CFoaVrY2bO3TEcz0FGAMJHFFqQhr7tJ2oJVULG7scTNqIhBqUkgMAcVBMGwIZg1AjTHi781alGMP0Keh+OWVISh6RMCeVhBEA2yeqhLou4EqaRd3tAKEVIFzEVf1D3ZU3sRXFgq4qIb6M0sEzwhu3D754/OjMI/jll18+fPjQ7Xaj0WgSiSSVSh0ORzAYjEajsVhsY2Pjo48++vLLL7/TRO4MoZd2w8dfsGuLPOi6Yy5jGY2CXvlJpKF5jyb5kG26xzIm0SzNtVu9NaUHPMInfMpnUsEDHmeTL0xxgaEuCu7VXzBffzODJ5zwOA+FwnsC4alItisCdwDJIpve11g9Tu7KSfiTVKL21s2+mvodADqF9UcaU0oI2FHtk2zivop1G6adQPR9KeNQKdqAgTlIIK0spBacm0Uky3rloly8IQMOIfhEY9iCkSiHYUXXeclti0bpilG2jIjTUratrZZ746KL2m1jEckl16Z10LpLm1Oy9y3SbYN4wyBNQPxJuUjWUutiEeZc6qxVGpJRNbhmZvkNOaqul0tilF/V4VviJnnSAqXtijm3KutULA9ox1XMrss/nVQxFryqhB2MWkFZT2NnyUU5GaVhd1lExLhHleiD425wWMNSsdpBWitAaqy6/LOWonc42MruuquCnlryN2hhqy+9+5O/bbr5NqX1Fh1Vwu2qFhLqxaRGAb7OLCPnxl25cdfUgDYbdiZHrQE72Fl1IepTzU1YttK+5Wl3OmwmtRUa5cTwAJKedFkRloDaqhD24DvKdXLqamZwJTMwN+Oan3WPD6oMMHk9H0zHvV6HhENv4XFQLEbr+mp0ZXFya2Xm9sFiNNxL6q7lszp0KkY26T/Ynh7sh3xe2dba2L3T5O2TZHzay+b0cHjEo5O149P149O1O/c3ZlOj5VWXFpen9GbRbHrok9/vbxykGilVV9uvkDUk0C+nmqit0laCHi/yC8XDImlQIh2TSsckkiAg7uPjhB0UhCL1Q281Xyjl1AkHZLI+SDOEGAN6upbeIGgh2ticYZA/qmD6JAQbl2ThdWsYRYTa1ysvFvXUo6TEOj66gttSQKu8waq6TCm70FP+TuuNtyoulaNrWoioTkZPG7OnQ0TDQjy2TS1y6LU+d2pt+ZN/+sPjp0/O5lyPHz/+6KOPIpFILBbb3Nz89NNP//KXv3zxxRffaJ4/P7NpfNd3obMs3ktN9Vf/TCu72oequc2hHZLwznPvDBWVrmCYHzKN95nGeDMFuVw40FBxxCV8yiF9LuE/5LI2+YKMSBbliMmvv4P5wY8XqdQTDus3AHCPLzgVSXdFsh0AWOIw+hqqJshdC6AwLwcGO9rdFdVzVPaxUnusM8/yRZa21qSEvS2nnirIpxBtT0zdg3gbsHgBFunba6jXz/lZhDQkXJCLVsXCA7nyVGvcgpEIk+robBhkYpZM0g2LfBkRpaXsvAaUVt7AXzkPd7frSZiYRjZnBOdhzo5JtGMUbxqkS0YoIGTKmmt62YSsXZk2i2Nq3rhK7GARhY3l4qZyWukVF7t7Qi1K2RQZhyLjgDJ2+YpPMwT0SOovTaloM0beghf2ySjMpiI5qW3YINVzu21iwkbEvRVxpLzy2V5ZYlAbdIAOBQ1XcwlitJkkBDm9VcFsl5AbQVpL081fFZ/7GRtTqRN2eTWcoFM+M2QYtgBqPtYFMzJj9nzUOzNkyIUd6ZDNjbCai96M9CsWp6wrcffqTG98WNvdeNmJMCJDeq9JKGG22zW8XiMgpKPcesFaxr+1MLSWG8gnPRPDiEPPSsfdfU4JjVDda5dwmC0mPWcuG1jJTx7t5LbXZv0eNY3YSOquCQ7p97fjW2sTAx7p6BC8uRo82o8+vJebGLdhcfUgxLn3YOf0zsbRycrtuxsTEW9t/fX8yhQE049vL378273EQrAcV4SRYbVhPeiHiFpys6gFryXIA3JFCFKNw8gkrJqEVeNKyCfFsNpQ7HYc2P137/+QbGbTTVy8nMjTc5gKaiuj5Up7QRG5qorfUi9qbxSgqulNNbTmBnp7Gba2oLGkCtuI4RNQvC68koZX0xhWHt0mELpUMpdG6zIMjPRFpsYT6dm5taWVo72N+6cnv/vk5NOPH/z2t59/+dXTb6y4Z4HlrJznjJyzSoWvvvrqrPHyt/x8Wwr0H2XkXsqkvql0ePLo8eM//oF8/by/vfo2l3ZMxaeb6zxXriQaMA9Y2jsc/VgNTnPperC1/oiD/4jV8z8EjIcc+haXuyJTJgQSpKSi5W//S5ZM3GXSPlHIT/n8U7FsRwRuApINmbivsSpO71lXCPc08hyX0V9bM9aO3pLBu4hhisk1N7csQOJNKfVYTj2V03cB2hbIXlUK5pR8Y0eNuPq6tObGML1rARavQZI9pepQY9yAkTCd7MDUB7ldS0bxlkW2qQOWYMG6ERpm4nkVN4hFV8cUopgKyOqkcyrupgnYMknXTfJ1u2aASdR0No9KWXmnatEmSxsEC044aYHM5HZGxRXs1Tc9PFIQ4qWsqpwDydgUaZt8dVDn4qCM+KppDSsEkUfkZDW+XkVqDZlk016tgYuzCLDLIeNu1J4fUmb65RG3fNDA1wuxxMYrES+0OGGfG7PM+LWJQUN8QMvpLIWZrdM+JBM0poPGmA+JD2qcMEXN6xhzgwtTrsWoOztuT4Usk/0qObON1lGUHTcvRCwLU9a1hCfUK0XXnIMFaK+RD/E67Rr25LBJJ6cJaO3DLsVKyr81P7KbH52bdg+6JDoFwYhQxdw2hQSXnHbTSFVuuyib9m+uxfY3M5vLsV6brKH6IofRnE36jvaSO5uxwQFVOGjc2Ypsb02srY5aLfyurhqdTnTv3sZvfrN/envl9p1Vn9/YiamKJwY1et7dB6u//mhzOGyvwpYT5CSBVcw28Lpl+GpybTuvnW1kc8wcnoXLs3K4FjbHxOJoGAQ2toXQ3EpvL2wvETtAtpbPQ3hqJyzRitgQq5OLxYjxPQoqSUHn6wSAUQpZldZBhzc44B0dGAj6J5JTsfn4+p2t49+dfvTo40+f/+Gzr7/884uvvnzyxZOvvnj+6NHTr14u/nzx+PEXz559+fzFnx8/+eLRk6dPnr949uL58xdnYJwVyH3++ednPrWXcvQnT84s0d/WLnybi/uPEHr+9KUx6uWTX371+9unlPffjHS1ngjpJyzCIb3Hf/3yRHX9Llu2xVW4i2qNBbeSeOw+G/+A3f0Jn/yQQ9nncPakijmOsL+pFfP9vx9pq18T0O+pwW0e+1Si2BFBy4BsQw33tVQlKKhDiHFHzd+XMcc7Gvrr6xMswYpSN8USWBtbV0DptoR9JGMdgZxdOWcD4uYVvKyCq2ku7qN3KhqLlA1FQS4+pxJvaNVbasOSEhmhEuy4+kmAsKTnbRmF+0bRvh6YB1lLOnBMxGx7+7V+Zve8AcyoRRm1KG8EV21I3gzPG2EPBeehYFJq8apduWaVbdjFm07hko0XUZIgVEnD268iuFYnnRgGJVmTNmtVz1qg/JABJtV4BNiwkmkmt0jbS4001KhWOOVQjltlFgHWwm9P9IpWg/CiX5Lrl+aG9BN2mZbVwmi5nByUzwfV2RHNbL8qM2ie7lUTqi6aBZ25gDo7isyNGxIB9eyIyqUiWeQ9MwFtdsKaiziWZ/sSY5Y+k7CrqcAAkvJx92wAyYwbNzL9RrCr9ubPZOxmA0QI+1TpKVc61ssiNwgYbdFRy0pyZHd+fGc+HO7TKPhYAa1JzG41a+jzqYHktLO9+eKIXzGfG9jbnFnKTm6uxJQyQlHhT10O/vrK2N7OzP5eemjQFA67Do8y+ZVgvx9kcxpkEtzggOrkKP3Jx9v376+cnuY1Wj6D1QHBjKGA+e7D1Q8/3jY75GQOHtSCSiOsc+jVVo1ELYVNsNlrtvZbHT67e9jtCfR6R3oHAn2hicBgcDAwMRrLxpP5dCqfWVxb3Dnc2t7fPLpzePuDOw9/98Fv/vjpp3/67R+/+OOfvvzTZ1/86YsnXz5+9ujx00dPnz999uLZkxdPnrx4+tWzLx+9+Oqrl+fjx8+fvFTdvrz5zfX5y5rRJ0+fPnn2/MlLQ9qzZ0++6Z7w4l8Q+vrrl0LcZ8+effybj3PZ3Jlr8PHjxwvzC2clp/+Kn3+nRu7F18+ePP3Ln//56xdfP/nyq9v5RfJbv1gXMk6lzENW9xGre6a+fKy6ao7CzNJ5mis3nCXlaxzGLgt/l9v9oYD0gEs55rIPhdIllqCvpp7+01f1xZf3NKIVgL7Eph1LoB0hNA+AS4iyr7VypqfuREZ4AFOPpcQMpaO3vsbZ1JaVwSkx5GhoXRKJ96TCIxn/UC7YUwrXYf6ikptTsJH66xEZbVJGk9VcA2sLQgLSil69pjHOK1Q+crcL35yAGStG3qaBu6Nmb0CMFQVn06hIKcXUgvfEpZcmBaQwj5jTSVNq6YrbmDWqUnqFi4j2M3BzOsmaFdowS7ZMvB0rY9POTGqINlojveKypqvVRMCCdbURmXRGq5jUSLI+vbCr3CXoVqKreLWFRgoqYgKnnaqoSzlqEBi5KIcIlfQI14KKpSFgbkCSGdCETWJR5y1p983ssHQxpEz55KkBJDNgDOmlxIoLXjlhbkQ5F1QuRvSpIDIzonTAPTYlPhHUp8Km7KRtYdoz4dcaICq26XrAA2cj9ogPnPIrZgJqYtsVUsf1Ua9sOmRYmPXk077JUQO5qxyRE9Mx70pydHcuspEKefUApv46G1832gdvLY+tLQRCw6q25vdnp235+f7ttan1xenJoKOu8l0Svmgu69nfje5sz+zv5nw+y+SU7/TuUjhiBeSdIqCt1ylIz7qP9qfv35u/d3fx4cM1FqeDRGlqRRXlVyL3P1h/+JstuYo9Murb39+/e/fugwcPHj58+NFHH/3xj3/81oP07P86zt7m/3qOdPZy8p+5ntXs/PX13/u1vwbj6dOnH374oQZR/+zVf1icX/j6668/++Mfq8rKGTTaX3/t2/G/nZF7/vTZF//8lzOENqZjhDd+fkcjvQuyt8moIwZ2tQcVrCiLY3uSJKbqYoG7tGJbwNljE25zzhCiHnPY+3xgiclzlpYL3nwdKTy/rxFlGLhFFmVPJNkFlAsSeRaU9LVVzRLqT2T4+0rKsYy4KiD0NdWCBTfGaZykCHQ1ti2JRPsS4bGUfwz+C0J5BWdOwVLVXJuFmNNyeoCL4916x4apzauV2wbLIoz4SF1ecvucnr9q4q9pWJsqxhpIWwKZazowp5ECVbdMHdVdb/ywj9CSVouyejBv185Z1GmDwkFoD3AJc1pg2SjdsEiXNaxFhLhsokehbiezxSPojpvAgJTNLS7Qo5qG+PRJNRB3KHmdZczaAtLNd+HO2imDLNWrS3h0s16NT8XUs9r6wO6UV7w8Is/7gfkBWbpfE9QLSNXnzPzmuQC4FFbNeCW5IW2qX+8CqPT6ayEjJzMEzQWVC+P6xIgqOap2qUgOJTEZMmYnbUtx70LMO+7TKAXd9K7qaMA8HdBO+eVOhMDC3Wgu/cXUEJKcMGem7NmYM5+L3MpoAAAgAElEQVQa8Lml1J5ym4GTTw3n40MLU/69halQr7r25ttKQVc+6b93lMpnfH6vpAtTsL4yvJL3r8yHPnmwwyQ1vfbq/zrsA3c2Q0cH8f3dxNHhwsiwYyzs2dyaNVg4DG5dr1fY1yveWAk+uJt9+GDh+DjzySfbPYTaqwWv8cVdJ3fzv/7N1t5xTgCQ5uaTf/7z52ezoLMKmm/fOp4/f7lL5/Hjx4++Oc7unvlhz7JZ/94//jt+/tfwnI3/vQe/5eHbweeff15TWSURi88+efDgAQKrvr3714N/G6EXz55/9Y0J+emXXyUG+qhv/fKuWnpHytihtB/SMEcs4mh56URrR4bK0V696Sgq2eAxD7jEO9zuDwTkhzzaMYe9yxUuMTjG64Xwlfes5dfilPYlAWmVT9/ii44hbV4mn+ZzBtqqk8TGExn+noJ8LCPuSGnhbrTixi17U1sAT+lrQ63LJAcS4ek3CO0rhBtK/rKCMw+x9HU3cjB3WkJdMUmtqHKk5vqsiLtrsq5odX5Kdx8VtWAU5HXsvJK6o2ZvKphLclZeJc5ppIqm8qiURnr3FUXVlUkJdUYlSGgkm/2WnFlp62kZE5HndOK8QbxhlW2YRFsW4a5bGv0/yXvP4LaubFHz50zV/Jmpmnffne7bwd3ubrctS7IkK1KURIkiRYo5RxA555xzzgDBBEYwgjlnEgCRicQAZorKwW27bbdtBStwSvatrq777Dc1r9/UvH596hRqnb03zjk/9oe19sJae0nRZlzBgJbqaJSPalgui4KfnawGFPZKmFYuHpB6Fpj0Ea/kRhsHN2YUTderF9tM083aWi5KQyrvUhEWWoTudvFSG99lk8w2KzuUVHDa8S4dztkj9vQrp5r5Sz3G6SaNAlvOBWVONYkXO6VOu8LZr5vuUs32aK1KXL0SP9dncgzVOobrF4fr54cahFQQovxGf5umu55nEoMJwCQc4BIRnDzdqwsstPrn2+ZHa9yzrWY1kYLNszWKg85ez1SHd6IzONtjEOErchJ6WxShpZ7N2PjCVIOtiU8hZsdXh5f9XcuegcmhluLchLMn//PsZE0sZN9YH9/cmF+JznV1Wrq6LT29JhqrXKXDjI6bGuvZ2/GpJw8DDx8GNjZm790LVgBS3v39/z421XL7fvjxp3FfaJxIA7u9i9988/UPaueHzx9Q+SGb7W+B+aGw3197fyiD+VOT/r9v+98i8VdZr9XmZmZ9+eWXh4eH8fX1YDD4166/FX4Coddvnj99dvjq9cunzzo0Kn7SxRiHvMMlbJIhGwTwHoMwXJDbU1g6iyVX38isS78ZoOLjLOweE3WHhTtgETfotAiV6SHTlBfO12Wl9sOKjGlnAnx8RPDW372nMnnFsj4C1gbIX8SVbosQe2LUthC1JiI5mMTmygrZjXR1ZnYnBLIil8S/R2hLxI5LOWEZyy+luyXU6pIbDgklZBQEddxZPs5UlNqDBPuVqoBO20VCteABTj3ToSS6JNg1PWtVzQrI6Q4pfUHFlZXenFfSPHoWL/1MI7q0h4kakzNXO2vn9CILonSQT3AZ+F4jP1wjDpkEYbMoWi8bFKG1qMyJGsZSm2RMR14082ZULFZmEjXrmghcXHTxhAiU3y0mj2r5g2rufJPO0WaeqFepCQAltmTIyFxsETtahM4W/pJNOl4nruMh4RknJ5o4zh6ho1u80CF1240TDUpa2Q0NsdzRqXbZFU670tGnX+jRT9qUdVJsk5o831+90F8z12dxDFuHbFompkRIqeqskwhIRSTQFaMIONun4mAzg7NN/rmmZYdtYax2abpRygGxySUDnWr/QmdgrtMx3KjjowtTT1CROYGF9nhoKOztmRuvbapj8Tlla7HBWLhvab4DVHoDB8tGgJP7uiSr0d711ZHtzQXHgt1ar2xqVImlWBqzdGa+bn6+vr6Gsbc1++Cu58ED3+bmTCw2npJ2LDv3XGxt5t6j6ONP1/3hSRS+YjnkffnqbfjmX2n5ocrlDzj9e9nm7825/0DFX8f/h/b/Ly7/Fom/ysFg8MLZs6srq4eHh9NTU1999dVfu/5W+EmEvnv+4s13L188faahkGpL8pxo4D6XsEOBbpHAm2SkA1xlTU1vzMo3paZ3FBeFmKQ1FnqbiTpgEQ5Y1A06PUSieQgk3vEjvYBCnwArvfheR2lqkEuMcrkbcp1bJGmFVLUD8pyEsh0hfFcI2xYi4hJiUMSYopM0WRnUMx/3IqFRCf8tQgL2toi9IeVEpayghOYTUywFyR4JZc0kiKjZXglpAFVWW5hpRyEWpcJOIqwZX+HUM10qypIUv6plbur5UQ1nQUxZULGkJSnhetFKrcClpmhKkptxFaMSylKNfEBIMiOKBwT4JZPQXyNerhUHjCK/Vuw1SvqFGC06c7Ke4mrnLlrp82ayq5o9r+PXk+AFJ9/POnHEgAW2sdHDKvZivWq+Xj3ToJlt0kvgxTJE4UyDxNkina/nOhp5Hpu8X8eUYwvZwGRHj3ShkzfeRFseNTq7tCM1YsiN0y1S/FKPJjCsdfUqnX0G71BdXw3PyIW26RjzvdWu4YbFwbqZXrNZgiu4fgJdcUPDR1pkSPeY0T9VM90jF5FynCNm71R9xGHzTFmdE/UMXJ6cC57sNzknrUM2hYRaDsg+A8w7rxMhQq6O9eX+oLtjYarOpMVZTIRQoGsl0mdUEfVSEotUzKUXLs5U72wMxlcGt9amB3qrDToWgw5iMCoHhnTxzeGFxYbGurdaaHtj6uCWY319rLmFf/r8z8enGrZ2F+8+DO3c8gUiU1giIBT2PX/+/OnTpz+4tv6qfP6WkB+srO++P15+f/xt738zM3870X+Qf+pW/+XIw8PDzz//PD0ldWhg8O6dO0su14+O+Ql3wuHh61evX7347tXzF8+/fcqDQvpQEBey6p6QvEUE7ZGhcRwkSsQaEy/R3/9QmXhlEoVYEzFjTOQGA7nPJt7iMOJ0xjKJ6sYRmO//bhJZuaogtxZfpr7/n+YJoCifF+KLHXxBfXlxByDXTSrfEcL2hLBdEXxbTvTyCHNMog1cQTvzkR0GCPLo63zmtpCzLeFuyLgxKWtZRPEJSbbKDDssP6KkrajoYQkpICSYM6+pb6YMUXFtOGAzvtxt5gRMHJ+SEpJTNvW8VT1vUUKaVVCU5SkzYsRmkzBiYffSANTrH5lheVNqVhsNWo0oGhDg3BbhslW2XC/2GcUupXheIegT4kzE3GkrxdPNCfcLFix4Xz27FllATLmQ8u7PeVWlzPwUSML7vMLkNg56SM32dlQPm0TkwmQ5ssjRrFxqkc/XcV2NfK9N0SEjsqpSjYwSl10618EeqsOvzdY6OtUDJm5V8vHBas6SXR2dNLn7VK5ew/J4U5uaoqFVdRnYs12GObtxqFnepKFUZJxOPv3LRi3VOVI/1a0MTlqCk28R4uMzJzqkofmmqKPNP2NdGKmmIDJMcszcSM2gTSZllJkksFYTlQxLrdcR4st9EW+H39XmnG0wqFFjw9pY2O6Yr5fwwM6JVjGrUsov9zrqw/6W7fjQ3uZ0g4XLZUEI2KK6OvbtO/PxjYHJSWOzlbu/Pbe/O3fvrssf6AKCk9IyP4itjz5/cWv/jm9t0zEx28HiYTc2V1++/O6HlLXvvvvu2bNn33777dOnT589e/ZD0dj/cmr+d1kI/W0AwV8f8f8KoZcvX6IRSDaT2WGz/ZQK+nGEXr9+/ezps8PXb149f/HNF1/i8vOGsfAwCXHAxt6mwXcJoG0CLE4jdObkwn/2C/GZcw4SPswhrrJRu1z8Hot8m8+N05lrDM40GEx991dOEnRNQfBxgKaU47bCFA+NFBZIFnk8aeq1jsqcMBO8L4LfkSJuSRCbEqyPi5umYbpgldyLH1fnpO7oZMtM8o6Ef9+g2lYJwyK6l4ufo8I6AJkeAXbbxAvwMSEBNiYhzZDhoqsXlNkp5qq8ZnxZsE7k1TO9CvKajr2mYUU17AUx3ghIq8XkzcsRIRM5UsPwm+id1ArUhd+rKtPZ2RdrMCVTaobDxAs1y2MtyphV6zeqxkSMHgHWSMobryMstJADPewlK3lAAASd+gU//zo163o9mzhbLZnUMvSIPNS1j+j5Sa0CXC0DJgLnWDmI2Qaxp00R6FD42iRLzeJ6DgSdc3asgT3RxFzqE063MWZtvKUeTauUIEHmz9tUnj5tcETjHdBMt8hcPSYzB6qmVXab2E0qopRcCsk9D8g8hQckczA5rrG6KbvWM1a9PF29utjUV0c38CumuqSuUaN3snawTdjXLGAT8jrqub65llo1Vi8CTvTILAoYBX59tFu+Ee7bXR9amm9YWmjQKmHjI7qA10YlZVl05O3IFBacYlTCQu7GvY3+zbW+eGxILcdAgWkGHTUc6t/bnwxH2ufnaxvr2Ld25h/cW7pzZ2FoWPPOb/9XEOzK3YdLe3ecjz9d2bsdaOsyKDScg9u7f1cRub9O//8/hGqT+cTRYx6357/y8B8x5F6/fv12IfQ9Ql99/mdsXu4IFh4hIQ5YmDs0+D4JvEuCb9FJ0xAw/f0P+CdPTaHhYS5phYPa4uB22JQDPjfOYK7SGVNVlez33nGRQBERIq7CDkLSeSd/4yBiV+RKB5cnS0nqAuREWOA9EeyOBH5LAt8Qofw8rJNH6scAOReO69IT50mIbaVoVy5cE7HjSn5QSHXz8HZIfmdVhk+A2TGyI0JMRIBaFROcTHQ7pISddIabdqGPjXTomE4VNWrirX6PUETNmBPhdBXJjYSCeDMnYiKs1bPdOuKoCC4vucLPTxSXXNWAMifUtDk9w1XNCTXLvNXiYI3GX6vp4qMt9KIJK3nIjFgdkk7pUaqKi5SU40MSEi71QquQMmvhx7q0sS5tvxTLLblKzbsEvnqcUnClS0pYtEpcjWJnA2+umjaqI6lxhfCMk/1m8lAd0dHDXejiuOxST6/epiDqqZVTTaIxK2ukgTxSTxtt4M20KdXkMhY4nQvPAmWcJFVerZMitZwqBaPUIAQFZhoWBnXuEUNoqjo219Agh9WIgfN2pX+qZnmmwTtZO96pMEkQ7bXsJhNNSC1qMuK8M+ZGPYqBuTHRJw86GyPeNq/DOj9pUkpBI0Pq2anqtJR3R/t0q74BFCCppZa8FrJtr3athjr8rlaNFAUH3Wis463Ghvb3J+7cnZybszQ1cO8eOG/fmltbG6yrJ5eUncSS0vbvzN155Hn4SfTgXqi+Sakzie7e2//HRaijvZ1KIv9QVv2nKPoRhN68efPdixeHbw5fv/juTw8fobMyJwnIVQL8Nh35gI64S4XeIsM3Kbh1Llt76RLx9++2FWT76ehVDmqdhdlgUvZ4vDiDFSaRBwvzlKf+6KcCVyXwqATi5wKNqSf7gKV+vmCWwZQmX7ZX5a2wwPsC0B0x+EAM2RBCg3x0UEYfwFayL3xgyU3Sp5yPCFlxhcjLIq3IuX4xNSilSq4c64FkBYSYTS19TU6ICZCrImxURpthYY0l6bybCY2Y0nk1zaNjrZgFK5q3Wiisok/zEZLcc52ssu02jl8NDZtwSzpMsIE9oyZaUDlFH/6LuORqjwA5LMctmJjuWp7LxFkyCsblVAu+uI5T4bbLnDb+hIlQg8ngZZ301wn7+ajiE78cNXFW+nSOGtqUHr9Qy1hqFg6oiZibJ8sv/o5elCisTBKWX5JVXTEgUo2YDHrpZWJxwkg9fbKF7ux9i9B8B7/PRDHSAR0q8mST0G7Ad2ihBmY+F5KCzPr45smfw7I+bpDAButYkzbRYr9qzCaoFgPsDdTIYr1/xuQZ0QTH9e4hLaXqok2Pdg/rYwuNa0ttG94OiwwmoRWLqcUcXI7NQvHPVbundEZpBYd4wztvDjrrA66G2HK7f6mRTc/VqqFYdHJLIzPi6Z4ZMEKKz04PKvbWuzdjbfFIu2fRyiQXElBZU6OWnc2x9dWerc1e52Jdi5W3vz17sD8biXYz2dkCcZFCB4rvDD/5c/DOQ9+DJysyFa2pzfTkkwf/oAi9efOmt6fn9sHtn4Lnh/YfQegtPG+zxV++/u7l3YPb8PS0WRImToTdpsAfM5GPGPC7NMQKHrbGZWovXUL/6pe6pIvTiPI1HjrOwa0zqDtcXpzB9qIx7enJ1uQzETZkW41aIGcH+ICgEFVz89oShzNJpUiuJvaDC9e40D1+1S0B4EAM2pbAI2KsR4hrBWSKrhybpFRpUk/X5aY4WaRVrSikYMe03KiGQzj680FM4bIEs64i7upoK0Lkmgi1qqQGVMwmWAHx0hFV6fVpOXlJzYga+DE1c03DCqloYywQ/fr7QxKwRwuL12CDOli0lhyopc5q8GNKrKLyGiX9hBmdO6YmzpoY82aGt47nMNIbCIWiqmudSvR0s7BDiiZknJKUXJ1XUafkhBktBXntD8MGnKuRNm/GeBpp4S7hbA25jlZIyTulw2bNN3AivaqoXb7UyBiSg5XgK6UX36m4+gd80amCxP+UdfZ/q7rxK0T2+5SyhIu/+5fMU78svfIuLPOInJDaa0J7elWtMqSGXNCtJzjtMt+I1jWomLeLBpsoSmbmSDvNPaEIzum9oyrPkGqylQ248bshKyM0XROZrY8sNM73q5WsEmjhGSmtyD1hiS21uCY0g+00Hvm6iJEe8zdEvA3RQPPmqn3QLkTDr2BQ15obaWsrvRvRwVYzHVuV6J7S76937sc79zd6h3ok5QWnZQLIanhwe304EmwJB60el7W5gbezMXWwP9tmYynVADD8bM8gb2Nv6JMv/QcPPHcfRmgsxNBo55dffvYPitDG24Lq7v86Pz++Fnob4/D6zYtnz1+/fLW3tQ1JTV6g4jdIsNtkyJ+YqD+xUffpyBUcLEDGqxIuMD58X5d0wV56M8ZGbHBwa3TKNocfZ3BccIQ16WJX5pVVLnxLifAwCkIioJcLrb55xcFkjhIJoqQLQ7CiOA+2y6va51feEgG3pfCIGD3HAFvyr6jTPl6WE9sBN2VJpzuBxetGaUDJXreI3RIS7vjPx8jlISl2VYE/MDNXhPBVEWJdTY/oefqi64SL7/OzLphBmUtqekDFjCqZaxrmspI6TK/EX/r1hBoR1MPvd7GiZuSqlbKoQQ3wq7q4lfzCc3rYTUHxJSMye0iOnTVQXRaGr4HVySnnlCXYtcRqJhCbfQF1/cS4kuE1i4a4sE5mBafw5Fg1KtzNmq9GjCoBC7W45S5BC7eUnHuskV3ibuMvNNBnqgnzFkKgjdXJL8/66F940NQuHdqmBlqlhQ3iIjO7QE3Khd48VceD9ZtpAxbSZAttpo252ClSEXNUxJwxK9Pdr/AOKXwjCt+YcqiJpOFkTfey5wd53km5b1zpsIv7LARg+u+n2vmxuQb3sH6hVzXXpyJUXTKLIfMDutl+jWe6OuS09LYQOYSrWnFB2Fvrc5i9DnPAXe9erC3IPVJXQ3As1MbXBuKRAYMYxiNmuaf0W7GW/XhHxFcvZucXZH5orabtbkzEV/rWYu37u33OhZoWK393aybo78ATU7vtnDLA0RmH/uDB5L1PHLcfenZueYlU0OzCyDfffvmPhdDc7Ozw4FAkHB4eHPpRn8R/gOrHtND3Hrmn33z76uWrzfU4MDnJSSNskOC3SeA/sVCfczEPmOh1EnIJg9AkXjRev1qTfrUp81KQBlpnY9dolC32W4QWwVBLwpnBwhvrPMSGDLwirQzwK52Mqvay7M7Kyh4YVHjl/Ai8eJOP2OUC9nnlt4TAbTEsIkRNECr0GefNuQkxLWWeAa7OTZYmX1gS0bxy5nqdbJhURT3721k2aFmOi8iwd2u43yMEj2vpy2qmPDuBn3lOWXqddeP0EAPqFBEjCsaqmhlUUAap5chzP5sz4qIW9H4LKWyER2rwLj16Ro3SQ69zck/bRfAWJoCZe5ZfdLGbB3bXMYNNrFZGHiHrw3ouiFx0lZCbVI0Hxdrr3G9D7KisjKNa2OXZBszaAHdriB/tpEe6WIFOth6Xwig+YVeC/d1CbzvX3cxwNpA8jZR2bgm54NyAme4f0sx1socb0BPNpKFa4qCFyofe7DXQXT0qR7fEaRc67fwlu0QIv64mZi10CAIjquVxVWRGtzyt6atHmUTZrhH+wiDbNy0NTWtm27k2DRyVf2yhR7y2aJ3uFI20cCXkHEj+yY5qqney1j1RE3E2rnjq7M04PuWa1QSKeGv9zmqfs3pxRu911uZlH3G7rIvzNbvbozF/t5ReYlHAPNOGrUjzRqSpt50KKP4IUPTxQKd8Nz4RX+3bivfsbttnJvXtLZLocn9LExuLS56Z1wChJzzLdU/+vLh9e+LuY+9KfA5PBi55Z549//ofCKGXL1+SCIQTR4+1Nrf81N6L/88IvTk8/O7166fPnr16+Xw16EanXXbSUXEKZJ8MecxAPWFh7tJR23TsBLBEfelsd0V+V3luXdpFB6o8zsDFqaQtBmudyR6vrFSdPj6PLFvhI7dl0Lik0kfPjwqg80SgIPGMMj+LmXplEFe1IcBs0SoOWIAHYvi2CB4QIftxxYq0U60V19eVxIgANYMHiC8eayzLcss5foOoHpjLvnJ0gQ+LKNArcuRtE3VdCl+VIKMamktOVeQkGkquTnAgNWVJhvyEXnShX0mL10n8OmYjLAt19t88ZsKaCbKmB8R0oJAJ4zbhfXUMXu4JdeXlGQ16WoMaloAaSbl62I1OPnRIS5NCbkKTjwirUoQV1/tlREeddMEsCraohqRo0Ll/7eAVuFvwK12MUAvV20BaspIXrVQxOEGBuDxTi13uZPltlGA7zddGna3FWFl5fNAlV4cwOqZxdXFn22huu8DZJRippaoIOdPNvMCw1mkXLHZzFro40y0sBuCclnrT1cfzj0gCo9LwlCowqugywQ3cHPewMDApDc8p/eMap13DQ6XLSNmz3aIFu1TPK1PQimqlcCEhb6CJH5q3+qer/bNm77yhrR4jYWd1NhEj3oaYvznsbexuZfIY2UxKRsjf4l+yxkK2sLcFUn5+oFMQcjduRDsXpw0GJQRQcoaCy5qdqNlcG9yM23d3erxuQ3cHs6NV1N+jopNz+uwih9MIhp+IbTQ9+fPUwf3RgweLC84eKh0ZCntevHj2H+bc/2SXP6KFXr85fPrqzfPXr159901oYYSTf9lJh6zTwHtU2D0a6j4NdUBFbjMxg+WZqksf9YEKFimwrqL0SUDhLpu6z6Bu02kxBsNeWiw+fSzIxoW5iF0ZbI1VuM4p3ZEgAkywMi0BkngKm5VspyI3RaRbDOgdOuixCL0jwXgkaBs6R3jj2AAqZ1uB2+BCYxxkHyBTdf3sKBPvq9YoCtI5KWcWBbAVBXJTCd/ToLcVyDU5JqikjbAx8uxLLcC0sBIzQ85vLbtoLb88zoUv10scehYv47Sp6rpXjd7UVW7ryraq4ZEawqwaPavFMm9+YCNl+8zYcC3epYfPqCE2ZrEckS9AVMEzruedeFcBuDEqRU6q0D4r39MkWGoVtYvBlRf+84AC4K5DbnZyg7XUQAPb3cidtFD5VQkm0g1nIy7cQfQ3I/2t2EAnbdSMsDBzzJS0oJ0bGRT5urmONpa3i+/vlTbyy4y0bFe3YHlUvtjNWOimL3azO3UwJuhcvTjfM8T2j3L9I/zAqMTdL+0xYOuFAFev2D8iDYyJPcO68HRnwdX3bQZSVw2BBLqg55e3m6iOAXO1CDHSKgrO1gRm9csLxoDDIueXYiGXFyb0UV9LwGnt7+DRcKmgspNGFfDO7uBGtG1zpd3rqoGCLowNq2Ph7tVIf3M9y9bMZ5ALxPyqJYd1Y713a7P74KDXsahsrMdYaygsaqG1lhYLdTkXjRDY0d0D273H9kefjt26N2228Egk5M7W5uvXP76P7v80IP0kQi8O37x88RffZLe4KMlFB6/TQPtU2D0q8h4VeYuC3GKghysyDVdPDUGLViS0CUjJcFHWDoN8h8vcZtKDFHJnUZ484VREQA6yYDsiyDq98EAKviNHh5jgLmhh3tHfQFITe2ioTTHlkYhwjwm9x0fsynFuMcoKTRekHJ0kl+7IMLt8+IYAvcxFWXKuNgCLQlYT+8YlUWaiQwhfUSI3VbAdFWJbiVpXYL0yciceKM1M6IRlbujwEQl4mpTTBk5uQeY6jdxxGZGbcboFkxvUYjc1FXv68m0LMlZLnlaih0RQVsaH/exivwm9XI0O1mB9tfhJLUZPBJQlX7r47i9BV0728GAuE8VXQ3OYSb4WwXwD18ouw918b9KAdJrhK830cAMz0iJ0N/L7NVgF8noTN3+pCRvpwPmb4e4mhL+TOmpBm+jZXfLSQBdz2c6JDIiWbCxPBy8ypJLALtdzCr29gti4YrGLPttOcvSwLdwiIepKp77KPcj8HiHB8pjc0S2q4ZabmCXuPml0ShN3GKKz9R0mftq5X9XJ4QJiaqMW6hhSzvYq/ZMNNVLUZKdsebY64jCteWvdM0YRs5CEvO6aql4Pdo3ZpQRYEouYRsclN1UjH90e2Y93rQTqFme0SPjlxbnaUKDT7WzRazCjQzoxv1IhBXmWGjbiPTvbPQcH/bOzCpMBYtQgccgbAbdta31oZkqJI5y+86D79oOOB58M7d+ZhCFzcDjY7YNbf08l4H8IzH4SoZeHb14+/cIx2KooT1mig+PfI3SfirxPQd6mILeoyP6i1JrUszOYyk0lZxFd1ZudEkSC7vBZWxyGh4hrK8jWXj0fFVH8DPAWD7jFKH6sQj5QYsNMiItHKPjgnZJzR7tI0HUR8YmMdI8LO+BCd+S4JRHKUpksSPnQwQJuS9F3ZNgdCXZTTh5ElKpzU+c1IvKV04aydKcYuaJEbqhg2yrElgq1psB6ZORGeLEs82I/tmDbRNrWY5bFoEF8jr7kygAPNaWksNJO1oBvRM2EDU35ju2WEoEAACAASURBVL5yy4KM1lKm1dhOZjk3+6MeeoFbB/cZ4cu1OH890VlLraYBs88eO//OvyJSPh5TYGMtPH8tzWkhexp5U9V0DSpDBEh0Wam+erzfQlht5a20S5esvDYhuJqWa1dWuZqw4Q5csBXpssJ9HdTxWqyRmjFdi/K2UwId9PiY3NvOcts4KyMqQs4HNmmFv4+/MiF3ddNnWrGLXUwFIV1DyRixYlx9DP8oLzAqWh5Vztr41eyyDjUmMmGITWsDY1L3kLbDxE4//wtE8Ukh6frcgHDFVb80qncMGiwS+FyvMrxQvea1rPtr54dVcm6ZnFvqnatbHDc2GDAYcEJrHV4tKrK3kXdW2zYijQGXbmZMAQVd8rhaIsvddTUkkx41Oa7hc/O1apDP27AR797b7b+1PzQ+KhVw8pSSqlozcWNl8GB3fGiALxbffPSngVv3bLcf9K5u9KaknWCzSA8f3P+HwODvecmfQuj1qzdvvvv6s+nOOl3VTTcdHKeCb1FhDyjIBxTkHTJykwyz3TjfmH7BQ4WtiyguNMCenjScnbrFIm9w6U4C2pqbbkpNjImpATp4kwPY55T/SYV6IMesMGCrah7k9JGcI79pQ1VEeZi7IsxdPmKPB9uQYp0CpKHkijj1mE8A25aiHqpJt+T4VRHGw8Orc1MakABC4ok2bJlbiv4BoS0VYlOFWlVgvXJKLShXnX9lglaxbSLtGvErKuQ8D6AvuawpT5lQEFHnf9NBLAzqMOuq8m09YKMaGa2jzmoJDbg8Qd7HXbR8nwkdrsUtKKtcRuSihcStvJ5y/B1gylluWbIGmDStAAfqqZE2nr9FMFlNZxUnmPDZnmbOchN9yYiNtwtXO2TOek49s6xZUDFmRjubcKF2fKgNs2RFeNqpozVYPfmmp53ibSP42kjbEwp/B9tjYwftAujVXwzooMEBYWxM4u6hz7Vi521UAfxaDa9krpPh7GP6hnmBUbF3UDpQTTKzykbrWYERdWhc5erjjTYxeZiszISfCQkpA03YhQGeb1Ltm9CPtQlqJVDHoCq6YNr0WVbd1SOdAiGtUCuqinraBjuFcl5xn4050S/gUq9PDfMiPtPqsmUtVDM2IKYScuYma12LVhz6WmszaXpKzqSnWMzgULBhM959a29ob3uot1uAgl2SCkqXfbat9cHb+xOd7bS6etCTz4Z2b7feuts9u2hOvPxefb3+8aMH/5yG3JtnL99mwj7785Mhq84CzfHSoZtUyAEF/pCCfEhG3iMhNwng2oQPbRkJETZqhYNZxoNGc1KaEk85ERVRHnmBjDZnXDOlXV4RU8NM2Caz4rEYcl8AOuBC4yxkREinXzmDTjxhrcr20oC7fPg+H7bJhayK0Q4uXF9wSZF2clmM3JGhHmmJt2SYMBe6LCa3wUo4NxLR54/00SEeOeYHhDbVyE0VekWJW5KRNMUp+uJrTiF804Df1KIicmhAieohFcsKLwvzEgiX/zgmgHgU8BVFxYa+ar0aFaljzBkoGnCquOj8qAgYqiVG6wleI2JOBW6l5tKLEoCpp3jgm70ylAV5rQ6e2MvMGZMBpw34MSMFlfphhxDiqGe6aykuAzbeIYq0ieYsDDOlsFMBm20kO5rwgTZcuB3va8W722l9eqSWdNPXQfW14XythI1hUbCdFWhnD2khiOu/nK7DRQZFgT62v4/htVPG67FCeHKrAuLuFy71c9wDnMCI2DsgbZFDpZjMmTahb1DpsPNs2gojt6Do2h8ooPNzvezwvMw7IXCPigJTmkYlpEEOcQ7Kw3PatSXt6pKxq4HKIeRVK5FjPVKTHFSnh/kXDQMdFDjgQ79DFfMbdtbqd1Ybulroaimyt0OulICUsvL5WfnYCJNKOdfWCltftW5vdB3sjsZX+q011MriU2Yd9GBv7O7B1M7mYGszsa+fev9x/95t2617PfVNpOupxyen+j//7MmrVy//nt/4//G/+6Na6M3z796mk3/7yYMek6wRUeSjwzYpkNsU+CMy8jEJeZ+E2MKD6i+8352dGGPCtwW4XQ52qTK36dKJ7vxrAS5ukY7Rpl40pSWuiilrXOQWveIrFXabVLRBqtjiYOexEN7l0y2I0rqi5EVC8b4MtcEDRdlVURF6kQ0z5V3S3zwTESN35cgHavSOCLotxzpo4Bkujpl8FvTRO3Yq0CNDxZSIuAq2qUZtqNExFW5eiOHeOK0rSgoosRt67LoKtiwGhnXYBTm2CVeIuPBb1Pl3JiVwvwYVVlSu60ErZmyonjVnogtLLknLEqdVyOVaYrgWt6isqoNfVlac16AyqGWXJfAbnhbOhLyil55mIyTLSz6SVVxo4wMBl347bWE6GjhLtTRPNXGtXehr5EyZKUZKYbcGNd9CX2wieFpwoQ5SqJvubme1KyBaUuZSCyFgwwdsxGgPM9jOXO7gGrDJ1Nz3nS3UlRGx00YMDbLWJgQDRqgCl9Gtx/qG5N4hgbOX+QNCJlYhE3hlooljFVfICEkC1FmrvDQn8WdN6vINjz48L4p71KFZaWhGJSWlNqlAjn5RcFoemhOH5lVNejSfXKDklnOJGQ16mHNSHvEYW+vAaPCRgEO+FtQ/OmhfWza01OFrdFQ6MU/ELZ4ak4aXjf19SArl+OAganencWez82BnLBqwa+WoyuKPx4ZFdw9GD/ZG9rYHW5pwiw7lrbtddx7Y7zwc4ItLsnLPOZzjX3/957+znvY/JEJv3hy+fPXm8OXrZ59/0iJmqPKTw1zMGhF4mwI/wIA+Y+LvEWFb2KqGC+8PFiTF6JAdPuaOgLCOr+rPTDRcPrpAAc9SEark89bc66si0q4Yv0Ov/LMUdYdRuUkG7PJIfaW5/PPH5jkYW3nKGDQtLoKsCyFRHjgmxc1QQYaMC3W5iTExak+OfKhB7YkhW2JEkI90isnirCsVH/xcnpc4xwPGDdiYDBjkV6ypUDEVfoQO5N74uA6UvqzBretQWzpEVAEJadAuDWFYiGSknwCf/L9MwKQlBSymBQflFWEDZtnKHVURiOkfmVGZrmrKch3JpQGbAWfpyb+qxaQ0scvopQlGUk6wne2vRbkNwBlZSRP2mrTsDLPwLCzlA1eLyNMq9llZwQbaSjs/2MJbaGDrSHntSrirk+fv4QQ7qOEuarCT7mhjdmpQKkKmq5kQsBFCnVRPCyFm54e7+NTc9zXIK0tt9FA/z9fDiI7w4tPidkV5DbdsuI7m6BYs9XHdA+zgqHihi60i3aRWnDcwCpjAs0L0+UZ5zmgztiTlZ1OdpBWHLDjLXnfLogtSxwBbhE9q1YJ94/LIvCo0K1qelRtEFbCic2ToVRE1a3ZQtOqtDizKG4xFZNTxZZdsLah7fMsWWJTUaqFkVBa0InG0X7Iebdxct7Q0F/G5p8ZG0btb9bubHfsbQ8tLHTxqeUXRx7Gw9f7dkZ1Ne3y1s62FEArV3r7X8+iToal5qVILLi5LCgbnX7z4+vDw9f/4GPw9b/gjWuj7HRgOD1+8fv7l59VkJO3ScS8dtkIE3qIiNmHlX3DJ90iwDWxl3bk/jBQnrzDAcSb0gIu+xYDPVd5UJ/yxB5g1hq8SXzzRDy5c5RP2xYQ9OuARB/ypCL3HgO0KKG05N6QXjjkZyDFkXnvh+UVCTlyOWJEiI1L8BKFSm3KmtfjaqgS1J4c/0mMOpJAYq3JbS3UI8OKsy/CP36Vcfn+IXLiiQQaF5ctCQEwODytxvcRSSXZCB7ZgWY1d0yJ2Teg1DTyoRi7piBMyjLgwgZr8PjP1PTshI6aHhbXgoAHrr+cMyLCQS7+3Uood1RS3CduEuMxPe9dUdX5SBW1kFtNLzrfwypZtzFgzwW8G+c0QTzWyh1+KTv1j6YVf1VCKB1Voh5k4r0N668i+Zo63XWykFdmUMI9dHO4X+dupyx1UfztjvpnZayQa6IXuNpqvjRjuZszVocI9/MV6UsWF/7NbWuntYLtstEAvOzjIjozxW6SlbXLYZBPb0c33DPKX+pnOXsZQPZoDTYBm/IEHv9ymqpjpIHiG6SNNSEDGL92jnOAMNzTPCi9ww/NC9wgPW3amVQsLTCrXXYa4Wx2YlojIN3Ov/paNTbU3kv1z2hWvYXGcpRWnCGjnYl7lZti4E7N4Z8UqfhGg4LSMVxb1Wfc223a3as3GNKXs4tQ4bjtes7fRvr1inxzQwcqTsLCkve32B/eHD/b7l/3Wlibs2lrznfu9D58M0VjX2ru5IOjNjQ3/d99988+ohQ4PD1+/fnP4/NXzT5/o0SB20qnO4pQVKmSHCttCV37CxD1iYNawFfUX/zhWdj3GBMVZ4Fs8xC0mNEIoa81JMKWd6QHlsU+9t0iCrfHwW2zkLXrVQzb4ExFmlwnf4FOs6Verk8/5aTAvDWDNPt5WciYgBITlyIAIM4ou0yefsVekrb415KD3NPA9IWBHDIkrsE4Rjp50XFFwxViR0gK57uSVRuXgTR0mqkCEVfhObKEkJ6GLUBRQodY08B0TakUFCarhbh2hnwvi5nxsBCXXw1NqKs6NUzNWqzF+I2Gphj2gIEIv/9FKLR1XIjvImbqSj1oxV506mLeeUkvKoRedtvHLAk3kWCMmaAaGaqCBOvSMHsEvv4DNOi6uSjJg01tp2Y2EGwPCshEVfLqOUc0qa1XC5m3spQ7mohXnbSWH7PzxWnItH9gkhXk6WF4bOWRnLzYSfB2cHnlV2fn/NGrC+noECza6s5Pu6qH7BthWUVGbAjbXzvMNSRbttB5zRZMiT0VJhmT+llh6rMsADk2KVxfEgXFaXy0AVfx77xh7eYYbmmPEFnnhOb5riF2V8UGXCRucUEZmlWtO5VQXiQw+jyo/091AXJpQRFy6VZ/WOcmgY4+aFWnrAc1G0Li8qFzxGBnYqwp+yYidvxayrkdr12MGjeKaTpXsdfFvbTfuxW3ehWoFv7ws9yOTpur2fvu9u7337gxFQk1mI/DOnf6tXdvUrBhNOD85a8QTS9bXvc+fffXPiNBbQ+7F67cIPX5oQoPNJenSC3/0EyrXyeAdAuiADP2ET4yiS5uvHZ0ApsZYVXEuaJ8Hu8UC7/HgC5gCU8pJS3qC9MLRIAu/wsLEadDbdNA9JvCxCL3NRkR5ZH3SOXte6ioDFhfCe6sSdWnvdsOSnAKgX4LthxQYr52ZhBeuCRE7UvCBArgrKLuvRUeFEKcQhTj162EuYlKMMhedG8GlxVSwiByyosGsGqmN0Ex5fmI/rdyvRKzpYDsmRFQJDKigDjW6mZCHu/KunVXu0GK7cDdqSk70EdMnxWBHDbeVi8Cnf1xLLK7HZWvLzw6xsn0mhK8as2QhVGMzWEVn+qQgXx0+Wo8Mm6tWrYhwA9pZg1XCrgzqscM6tI1f0kK/2YBPbmNkm/FpanQaG3Stmls20UjzdHPcbZRgJ2tlSNGtQvJg6d0GymIba6GZFLDzPJ1cb7ewhlmIzT06WkN2dgmXekUuO2+xhz3fzTCwshslALsRWS8uNLBT6iQ3asU3aMAj8JzfNCuLAmOC2KwgPEP3jGK6TEU85OnAODcyywnN0NedwvA0314NogBOjjSQV2aN/lHJVDveIs7Clh/V8fPWPNVbQcu6T7vmlS+M4NGAX7SY8g5Wata9Ju+UPDCtgZUcmRrkrodqN6N1Wyt1KwGtkJVYbypYDxvv7rbHfDX1egi07CQOeqGnHX9rv3l/r+3xo5H11TaVouSzz2YXnWoC+WJPP2PJ18TmQdbjnhcvvjo8/Of7a/X7GNOXbw25x4+tRNQYEy08/8fhipthfOU2BbJJqHoiJvqRBe0ZJ6fh6REOYJ0P2uNDb7FB+3zYCgfSX3lDdv79xsykAA29Qkdt0mG3GeDbDMADEWqTiwpyiaJzx6cBeTtM+JYAGuCXWQqPKm7+vp+Y45PiuiqyTNfOLRFB6wLEthi4L604EJc/1KFDXMAiFwo6+q9eE3e5ltOJvFGTd2wcn+bml0fVqBUjrbriuro4aYwL9isRGwb4XjUiqqwKqCBODbqZkI+6+OspBTLUwPBoYAPEm/TEn9XCUqf0dDWqgF1yjV2YSLj+XjM21WeEBy1otxE5r0ca4KnCiktTerzPgo/WICKmqo0mdLge5bKg1Igr/l6xt4MzbUG5G7ELJviIssqIS4Wn/q786u+olYlGZt6QCTlvxbtbqf5uYSO/igVMHbEKp5sZozXYhTamo4M308LhQ5M5kKsTzdz5LrF3RO3oFU11sAYbCRzkZR78Mh+RQK44JiNdmGgDe4bJNaIULuKjkUb48gQ3MsvyjqEdA6AOQ66BlRqa5EdnueEZ+oZLEpriNyuKBchLo1ZqeELn6uWZOOlM6Aku+ry9Hr4fqd0O6jf9ypiLP2SrQFf+bLIbsR+xPFjv8I4pzcIyZNmRmE8VDxs2o+YH+7YVv55NSuhuRsSXa/bXWoc7qWziFTr2opBxfdCO292p2dpqePJ4eGO9Ta0qvX9/xGCuJFIuPXgy7vQ08IWwg9uxV6++/mdF6NsXbxF6+MBKRLkVLEvWRcv1k150yRYVuo4DPBDi3bDsrtwzs6iMMBewLgDtCiC3OKAdNmiNB53HFknPvNeenxqgotbo6B0G4g4Tsk+rvCdCb/LRXg6BdeKPi9CiPQZ0iwdcU0P6cNdkGX9oqLqywIW1Faebr54NMZBxPnxLXLUvLX+gAN5RQMPcyhlGFeT4z3wmznItZ0kGV6b8xpjx3iKryCsG+ZU4TeElXXnytBgRUCG2TMh9CyqmAgbUkCUdppNWSk55f8lMWTLi/UZUxIxVZB+VF561scDM4mu4jHOo60dlFZfGxJV+MzJUg/GZMTMamBZ6XQ1JddezA7XEqAUeMVVtNmGCNfA5A0SNuByf0i338e2KksU6WKyD4WumTpmxQtBlctl5fPEZRM4HjPKTatSlGvKNBmY+t+oKseSKvZozZqV1aaGDZuxILblLi4GkH+HArtvN1BY1qlWPqhaXG4VFOl5eVcZ7mMLjRnbGaBPCM0QOTlI8IwQj9xIbfiQ4wY3O8Bb74K5hmGsY1KK+2SQvDE8JYnP80DR9yy1bnuQJUOeruXnzHfxZG7eGXyhEXVBSrljE2ROdhE2/Lu5VbARkywuM1uoMXNXPV5fEKy7Vk63ebguOUHGeg0vYiKijftlWzPD4dkfMZ+CQLg/YSCu+mpjHUq+vVAkya7TFbPKFuSn63m719nbD40eDK1GrTlvh81XjiReHx3j3H49Pz5sVatyTJ9uvX3/z5s0/oVP79etn3zw/fP7q2cFBDQrkU3EGYQX8Y//mhBds0qBreMAdLsYBzuwrSJjHZEU4gLgA8u8IsapWWcBFTKEm4UhLZlKMiYuzsNsM+G0WZJdWeUeE3hBgljhY6rHfuhClOzTQNg8UlgAc4tIawDlV3okBQklTQaop6ewKD78mQGyIqvZklU90iG0RIMyvGiWXIk79yqGhuQ20iInSBkqUJ79jq0qc55S7ZChpzjlDVeq8AhvQYLYsuP06fFQD9alhcwpEIz6PmvbhciN/To32GbFuNWJJj1eWX5EB0yHXT2R99AtexfVxDcFhxC7XESINpGA9aVaHUoOvm9A5IZs0UE8NWVDLRmC8CecxwwYlpVLwhdEa3GwjcaYBHe6hbfTxfc00dwtLiUptEALHG9kTTQw9KY2W/wGr6Cgh64PSi78qTz4iJ5UYGPkCxGU5NlVHzZFiM64e+T+IZRfkpFx82TlUycdV2e+hSo9RYeeooHN9FtRSH3vahpntQvrHiKMt5RzEH5WUsxtOWWiK6R3Brjqo7hGwkZvYaaiITAtjc4LQFHPbo1ye4DNAJ/WM7LkOvoqUQa08NVCHGG5ENGkKFwaocZ8q7lNsBmT+GapVd4OG/N2aRxZzqtyjMiLgrIycq+am7aypV5clO6uGezstEbdeQEvpaSZuhltcU0qrsWqwE99aC2CRTod84ru36w9uNT96MBD01+i1lZ0dZBTmzPpm6yefTw+Oylts0k8+2Xn9+tt/Ri30NvH7m2eH3377dGfTDC71iqkuElh65BfzFVk7FPgGHnSbhXFUZIzkX/FhCtdZkC0OdJ8Du82G7TIha3SgE1lQm3Sy9uqpCB25ycPFmfBdDnSDCdyTYtcluAUmjPHROy50WZwG2RIh3ZzKoAbdS8qRZn3UCE6vKUw2pJ0PS0hhCSYsga7KobdNlGURxCNCduGK8Il/HJPgZ1SkRRVhWgTVFJ5hXft9Oy63nw1iZpyVVaT1CzDjErRDhXWpsdNi2IgA2kYDiMtTUNeOjmvpdgFiQomb0BAbaZVGfCkyMyH1+K+ROVfk2LJOGXFYSxpWY4dVmFkLo1eB41SmyBD5kxb+iJY4pkKOyMGzBuyQEt6rROLzPh6uY3r7Nf0m/FgN3mGlT+nx4wYCOe9jPalgxEIbq6HMWqmLjZQ+BUACulB15ZcVV39LrbjAAp5D5/yBXPoRG3iWXHrqzC/+Fw74gp6eUScoGG/CDVtR4y0YezWgTpQ504Z191GddqJ3kOIdJNlNBXzEkWrOldVZ7sosOzJFD44RF3ugFsG1kSZodEYYmeGFptnbHnVgnE+qPKpjZbSqAVzkhRZNSXReOtoKtZnz3RPU7/nRbPp17nG2RXZTSrvgm+JFHUqTMBeQ8dvRVla19ObuqmRnRba/ZtiJWYIOrYSd2W7F76y1jw+w7W3ooFNuNRWLWAnxiPLxvYaHd9of3xvyOiwqablKWazR5G9uNz57sdhtZ01MNT54sP3y5dN/oEyH/zbX9o86td8cvnz+5rPHz3bX6kDFPg4hQkI6yvP7Uy5vk1HbJNQBkziTf3Mq98YGEb7PxG0QEbtU9D4Dt0lDbXKwYSq0KfWs4tS7PYXXVviYZTYiKsCERZgVJSmqogxgC6XXjk1jKwJM9LKAsMBBTvMQg0ywougy++YpTsYZcV7iIBc2xkcOMkF9dNCYkNDDQNhZGEVFJifvmpUCaedh68jABirYQgIQMi9gM8/zqjKYFZnMyjw5BqgjwVTYKgUaoCfBDFSEGFnJqiqklmXzoKU6GlKBBytoSD4eTAYXF91IBObfoCMAMiZOTEULyHARBS6loaQ0FI8AYSIrmMhyLhYgIUGUNLiSBlNQoBIikIUoIQCylUyUWURW0OE6NkpPrGwXYBroYPi1Y2pUXo8c26NAD+nwIwZcvxpmoWZyK89U0zJnGskLNvpEA95t5863UTqUpYibP1+bFDls2MgwIzRAXrLBIoOEXtXNBu7F6aby4BBpZYITHub47IwuZYEIdrRDeXN1krY2xQiP0CMjbE8PTUe7HJphx+YEvjFGaEa47tI4BlgVaf/GRp5Vs6+N2GDeacbyIqvHWtDblBtbYmx4ZTt+05anbq5HyEFcadZURefV/VaoAH9+rpc208No0qate8n31hX7Ud2qV+uaVKjFRWODPK9LY2uBjPbjlpck9YY8reT63pr24b75ya3OT/ZHHWNmKiaNy0jd32u8/6D5k0/bu+zkJVfP1198fvjqzT9jmOnbLYi+e/rm68++WAuqy7JCSl5UzIyLWB256V4yxkfGRNmUwfKCwbJ8PwUbYpJ8ZEyAigvQ8AEWKSRizZBQhvQk1pmjitSLvShAHx7skDLHeYRhDraXidQBsoiXTyhzUmrL8usAxbK8NE7WNXpWEuTKiexjv07+w79mHv8tIvUs8voZxLXTqJQE2PVERGoSpTibVVnEA5eriEg5AaZl4Fo1ot5abV+dbrq7Mbo4uu6Z2V523N+KfHqw8fndzS8f7D779O6rrx69+uZPr7/59Nlndw9ffPnmxRcvv3j02f3dPz/ch1cUDfW0fnp/79H+5vOvPz18+c3b89U3h6++PXz17ZsXX715+sXhiy8Ov/vy8Lsv3zz77NVXj158du/bT259cW9nN+rZCC4G58eGO+rbLZo2rbhLJ+nWSUTISjGqkgcrgmUmANM+Bqd/DEw/Xpb8Xn7irxG5J4TodB2jqEECHmviDNZRjaz8qtR3ZtrogUHR8pAwMipcGROuTwir6Ult0rTgEC46Tg0MUFxdpNlmdD0/VYI+NtpQFJsmRicJsUnq6hTH2UnQ0S85+4jLE5w9vyEwLgyMSezVUFjOb4CZv+qpAS/PCP3TnO2gaqyzsr81e8PP3grItv3GdZdlpIlOBZ4fbiZu+0wSyoXoguRWuHqgEd5uztoNMR6sK++smm6vNU72cxtMMMecqq0FUVtd6Fnkuec4ZlVGi6X4wV7Ng13jvY2mWyudQ21CYNGpxRn57YOmh4+bP/mTzdaJC4fGvvnyyzf/rAi9fvH8m1d/+fSWb46bn+KQc8ZpWI+Mq89OGcLBJul4t4jVDa+0QcomabhZFmmagZ/nkBf4tDk+a4LHsmFRosx05JlTwBMfkq9dwl9LRF0+D7pwEphwsirhVMGp96+/+2+FR95DXUzgF+RrENAGFq1XrxxtMM/1tAYmB9adUwfLSwcB1+3A0ifx6FcHO3+5vf/iyYPDr784fP7t4fOv33z12etvvzx8+VY+fPblm6dfvD2fffHm5VeHb745fPPNm9df//v56i9vXnzx5sUXh6+/fv3yq1dPP3v1/IsHB5s0AkrGZ97d33r13TeHL7558ZfPXz/98vDF12/v+erp4ctvXz/76vWzLw6/+8vhq6/fcvXyL4cvvjx8+vnrrz99+vmDbz+7f/j8i7eNT/98+OLLbz958PXDe6+++uLrR/eef/bwzdd/+vO9zf2YO+oaWxxttTerTHKimFGFrrx+8+Lvsi7+viTleHnaCUzxJXJlknvIMN8pG66jjTcyFrv4zm4BB5xg5tyY74R5B/HLo8zwGH+hg6ijXRSjP1zoAkanceFJ9MoMZX2OM9eO1FASAmPsDady06VZ7KW7+nm4kiOA1H9rVpR5h4Qr84rVBfnqotReV9DXnLXuY8R9sLy47QAAHRVJREFU4i2fbt1l7q8nUECn5+wM/yRfxbp8f702NCdo1Re1mzO3ArS7K/Lbq6bHu+0jXYyORvxwP5PDulJjzt9eN3kWuBpxcrOl6JM71od75nubTfsrto5aMqTs5K3tjrt3Wh49aXn8xNbUgtnaXHz69Zf/d3vfHV3Fkeb7x/7z3tk/3r4zb2d23j57Z/aMZ7wz3nHCOAw2YINtbDKYZLJIIiuAcs7hKkeSQCgAQhKIKAEKKOesq3SvsnQVbu5UXaH3VbcQgoPD7jlrY0HxnaLuVd/uqurvV1+or6oIwi+mFMIA8QhaRjpqVUd2FsYFn7E7kOXj7Lxyacj2DdH7tycd2euxdpn9FwudViyx/2LhwYXz93z41tZ3/rLujdeX/+lPa/76ls1nS05u3OS6bVuUg0O0s9O5wIDs5ISS3KzuqnJmuJ9YTGR0XJo0SyaWTBnF8UmoNxCeE6wWzkQLmGUIxxKekxCUEJYgknhBEkUJY8hzPGNlWSvG9FwLedoOEwkJIssBM8CMiBleNDO8geGNDG/kgAlLPICMbnJQb9JNTY3us9mxf/d2dUuDYXJM5CwEgcmxIdasx4CVIC9BngAW8VbEmTFnIrxZEhkJcgq0KMaIMEOEt4iMUT54Q45ioetDEMGQY0wCb5EvYyWJkSQLgnrAj0NucrSzoeh6RnyQ6+FtKxa88craJW97HNkc5LTjSrJ3YVZMQabKfseSKPe1Jdn25dccS7JOVOR63Euzj3BeHOI4/2HO/tq7h2vuHGwosG9+4HL7gk2o498aC3yKsxw7SyMK0uxddr+3c9n/O77x3yuv+bcXRTcVhLYVhtfd8bsYuebyqeWNDx2aH3q0l4W2lUZnJR12tHk35+wB+91/upW+t7HYa0yd7H747Sun1reU2vc1+PfWR+h60rNTHVJPHw4JWO3q9HFe7rH+7qT7Nx2DPBenJn87qknS9SWOdJ3rbTofH7zT3eGLscErw0OpY7rUkdHUpFMHhgZrecZM4IsJIUkSCDQz+ramMj+7vYGHdyV6O50N9olwdTgV6JUeH5mRGHUpKSb/8sWKO9dq791qK32gra8YbW+c6u0x9g1bhsaB0Up4EVk4IojAwokAIYghPc4F0pPDRIjosliCWIwFwluBQc8wLOABYgG08mDKxHIi4SHhIGIFURAhywucIAJEzLwgEMIiLBCJwZhBmEHICoAVCCzkeQx4AjgkWEXWzFvNgtUqshbAWEWWRbxmuC9IFXwxLXWgv49jGbPZpNdPWa0WAASEICFYPlqGnu5HT6QhSMJIIlAiaIYIhoBnMQRI5EWBxVDASBREZGaBhYcWHhrlAiMiDmEOQRYJHOIFDAQkAMQRDDDkWbOeMU1ylindYHevuv7B3ey0s1GxYR7eJw+42e3+ds1ih71fno/ceTlhf3bSscLLfjfOOXke/MT7yAfFuXaVd+yr8u0rbjvU5LvevGgb6/NF7R33myn70qM2Bh7/KCNy6+Fv/hDn/nVZlpu6KKL1XnBzfkDzXf8rcd9knVnR+NCusdiltTSwtUSVGrVj+/LfeB+f72z7prrKu/b+yb6m8BCXj25nbG8qth9uDVdXhWqaTqWdOuDj+uWxw+/m5hzt0ySrW1SppzeFeC8uvu3c1x6r0yYNdCSXF/gftXknK91uZCBDN5Y2PpE2NJQaE7tHb+gSWCuG6IWUQpLEEaQHRgFZjDoNMIyIFqNxfJQxTvFGvcgzvNlAC6wVshZgMYqcVWZdgZ6ChAkEkLFwAo94AUJCGF6EkgQlCUgShyWLCFkRA1l+AJ5ASMcpMytaBcghzECsZ7ihKRODJSvEkwynM5qhJIlEEjBmIdSZTQIhgnI3iRgF3iwCBiGeUEhyCPKYyib6E4muXTdznM6gH5kc7xsZCVKFJZ45O67XI4ytDMcLgBcAorFMEhChCDHCkgixXEZQOcIJIQgxpJCimzxDhBiGw4RwAs+yvHy+oGS0CmYem3jaOp5IFoBYhPUMO8UwLEG8hHmCLJAzsGaj1UhxSbsJYSJSxyenZzkDw0wCYBwZ6tSNdA0PtBfknYsN2H9026KtX79zcs/KKI/9XkfXBDuvvXfVo/S2d+U936I8j9JbftdSHaK9vy68eth53x/tt/8+J3lb8ZVjx7f8Ll21fqAqsrMooPG2W9s977o8p4yolXmp33RUu7SUureW+jcWBiUErl3xyf8IcHqvrzmku96nvdKj6aHbt8v/vjTvYEeFq0Gb2F4Z3FymOhW1c+uG30dHrq2rDe7uiu5uD09JXKMKWNLZEDXSc2q4O76zPiLjzJ6vFv2mtiJkcixzcjJ9YjJzcDBNFWFjMPQKrOUFhRCWJE5CVgIEyreKnQ3lQ8KwBLFE9Sa5gDAtTBOhvhdMSdkQGROCKCsTkRBRekyCRIBEB3yJ0P8IlrCsqYlIErEEiAQIETABkiRQYUgAgVASFRIlERAAJeVamiMi5xIkEmVxq5WzWFiEEM8Ds5kRRcgLIscCtbrLxyfA1vaQtm9Qli8SlKuHCA0+eSYpsFfapFyGCR0IED1WUP45pkBFRKINpDn9q4J22l6CRYJEWROFElRqLtAuFQVJBBIQJQAlXiQcIhwmLJZYhM0KAWGcnezWNpTkX0pRuZ+wWfPVsg//vHv9gnNRdjczvSsKImuLEguvqxKC93sc/fjojle97d66krSx8qZD2fVj+9f/KithfWepd+sD185iz56H3hVXD6WGLb2Xta29yrUw17ahyLu5JCjo5KJ9G15pLHZvq/DobfTubfBrr/RcvfjvGoucagqO9VQHDLUmdtbEJYRvCg9Y8aDAvacnQdMb09kWmhC5LMRn4YA6eUxzdrQnqfi24/Zvfv3tml+3N6nGhs+PjV0YGDw/OXEtLNxGr9cQLGJFuv/XvMW/kF89w6ktQ4hYJSRQ9hAkLFA2fyajPfElZWPpEYNRFqWAU9AGIWUmJaf2jeLppJt0KVCjjKmcGUvFPpZ5UeZIhCUgD+48oUP8NEkS/wQRAdMDNyAUkMACzsyLnIhFLHKi1cRMjenPJJ3dvH5LTUUtzwHyHZh5oinyNQokfjCXBw06bjxCJaQQoyTSAUEmTAEjCBLgJYGnOS9IvCgTlFiFsGRVSOAmoXkMWg282TLeN1xxt+B8TMRJ222rl7xls3lBsNeOW1cj8nPiVd6Ht6/9N5cjbz7IPd5Tp6q953Irbee+9f/rSuKatmKX9iIXTYVPX6Vvadbe82Gf3kzb2FLm0lLm1VYelHP2kPuhRRdi1qmr/VrKXXoavHobfRuLndcv/buaAkdNnX9ffXhTScBQe0qg++fnT+1sqA/r1cRpNJFtzf5xEZ+H+y8a6EzSac71NEakJn1ju/Ofd23+x/bmkKmJCzrd+YHB8+O666rwA3q9ViJUgsvj5S8EDf+lan4nhBgKIbr6mzI/lTw/gvUohEQqZrAieIDykVAYUBnzOCcilkdqeiWmZjjNaUE2PCjGoCzpgAwbVpIeEWGlpwizEuapfBIw1d5EgniMOMSbecbADGmGIoMjj+w70lzbYpmyABbI8o8C9fsJPYbxtHh5JpboYCDL2icFLS+RJ4gQHhMeSDwvcTzNWeERiRIryiiagRBGVsJbMcMhsyAaADfBmscmdf296qayWzmnPZ1279u+fM/WlZtWLjm0+9PLKQdK73gV33Itz3e9fXmv497f5aZsVpd7dpS61t0+WpG7P+/0uoyYL+9kblVX+Qw0R9Xd90mJ2HR8x18Kc4911fq1Vjh3N3j0NPg8vHlo28q/r8k/Md4Z098Y0VDoW1cU7GA773rW8e6uuF5NjEajaqh1jw3/NDbs8wF10lDX6epCjwD3+T4ubx/Y9evO9iCTIVWnOz80lDo8mBMVecxg6JcItXsJ1ZTncnoGhAhVoggna1yEyh9ZVshnIlNMUTjJY67yJ6rlKFocpva3goTvzwlEGEAiUJeCAjYsSykqnxQgiRiLEAsi4ZEkzJZCj1kTUytDQtNEgIABxCJGAoIcFKwCb+UHtYNpKelnk8421zVbDFargaEQohJQ/keF4Kx/8scZXMmtnG7ZTBOfVSCyywFQWT0tsR+57JRvHnnwMBEAFUE8kARA8xkpxCOJEm0m4SjYEIcBSwQRcxixhA4RHD0rTeRMJn1/W+PDgtvZmakpkUFBzsd3hvhsjwradSb+4L0877MxW+z2vn4zY19DoXtriWdLoWtjgVNa5NdnQ5YW5dq2lPlU3XU7E7bO1fbdYKeFD/Pse+oDWiucu+rcu+u8r5z55uiOV1tKvAaawntrwiruuAe7LXU4+M69205dnVG9mkiNNqyk8EhkyMfnk9cOqBPba1R5mQdUfh8nRn52ZP+vB/tDpyaTdbqUkZGMnq7MxAQnA5VCAIoCNTHndHo2hBTrHylKD5QkqmRBmdCjfHZB0cOmgfXUES6KgaTgUGFJuu09oSJOpJaFYg8pOJy2rAhGCCMRQ4FAICEwrQFCJGuGsiUCp+GKkGxuIAlji5VhWI7nAcsJEGGNti/lQmrK+dS+vgFeAGazVQDQbLbI4gfL2uL35bJmNl132cT7rjI9H3q2zkbNN2rQUafGbMIEihIE1C6Csk4LkWxYySrsdNdRTZiePwpEYBFYC2dhOQuAHJbvBDFkgKC3GIcNkyMTY2MDPQPtTY21FfkZKRHhAcdPHFmxbd1fdm34Y/aFow9ynesf+DUX+bUU+p7y/+pc2Mrquy73so6q3Jf4HF9wIXJrvP+KxmJvbVNwa4VzR7Wbutoz0udvPnbz2ksD+htVzUW+Ye6f+p1YGOa7rPi+m7ojXKNVabUhN69vCw/84NqlXf3qhLJ8j/Tkb29c2XUu8XMn+9/qxsLGxqLHx8/pdFeaG8+nnPXRT2gJFkTAY/QCLnZ4ZAlQLVaUfVt0FxbFcJ+dgye/hJSRp30KjxlOwYiEZB+CrA0SQr1zvCzlqISjBpRiicvPouigeBWIogzRK2XTh/ohZG2KOirk2yrqJYUfJpKRZYw8wyHRxLM9Q/3n0i+6+npXNzboGYuRZ62CMKKfMDEMBc8sP/V3lx/ZOE8NCU9+pAYQRTOFslygglimp58ha6uyj1y2meS7PwLyjJKsNA8CjCwIWqEoyIe7EwQREKyCYEDYBICeZQw8zyGAASsaJ/SDvb09HY13rqW42K3f8c07Xo5fhXuteZDj0VKsaikMDXZcpHL9rDTPOTlkldO+t6+eOnA7zT4hYFVXTVh/S2hrhXN7lWtHlZfnsb+oPBZ3VoZ0VwXnnN7pdOCvqfE7TsduLi1y71SHafrCtX1BWZfWh/rPL8g71K9OuH/9RGrCpqqik2cSPgv0fW10NGh8InpiMmVi4mpt1emLF4KnximEgMC9iBCiq1ZlJFC7XoEQQTNuse8uQJn5p+XNbCwpKJrOEb25KDvcgOzRoiMv9dzJNpRsRiFZ3ABJYiCsaWrqHRpSvAfNanVVbS2gY/t0DWfubLRY9YzVBHgT4Fo13bFnk+3dnC9kZepZxiIKk6xFz1oNHGsVhWlvxbTRpVhfj2ywJ2aBfiyEHllyCrx/wHB65LZ8PKBQI/MpM4tOUjEIW4DICICHkDrVEeIgshDJgrAFQo5OsAmYZyFgIZKHMsP4QGP1nRtXY6OCDx6xWeTtuCot4ejDvDAfu2VBTl+nRG11OTQvMWR9Q1H4zXS7+MDlndXB/a0hVApVuqorfU7u/UO835f9dTE1d9y9j74XF7D8zhW7lIRNZUUuXeqQvr5wrTYk4+KaIN/3C+/Y9Xcm5F+zv5C0sebhydPxn8RFvTU44GU0xk1OnJuazK4sS8pIC5vUaTGFEPuCQkixuanFrQyQdNCnps/3EhUnM7rRjFFBbcnZH6j9Pe1zQzI7U4tEccMpc5hYvoBIw6Ojt27f3muzx2bXbkYQCouL99jYHLS1NTMMRBhhwrAcpCUyNaUf1Y1PGo0mxtrTr02/cik0UpV7M29gdARSjQpTTgMC9T7TzWnlh9GnypVVnj1TiSc+/rAKr1R8ptXfX5jdDU/0ydM/o4MMJgAiAKGIMZ3zVTQDxb8nC1J5lkHEVIDLf5Rne01W02hHa2VhQdbVjMSkaJ+oUBe7g1vsD631cloZHbKh8JZPY2XUjaxjCeFfddYHDLSHNJed7Kryai32sln9q7sXD7XeD4/xWBnvt6o637Pkpl1q0oqqh3Z9PSH9mvC+HtWp+JX+XgvKitwKbjkkx625f/tIbfnxaNVfM9M+Hh5yG9eFTo4ljw2nlxXHXc6I0E8OiSIvAiDX/4d78pd7xTNsoZ+mMQo/ff+ziCTdvnV74YKP6+rq6uvrZy5WDr5lGFYQBAjhgweF9fX1JpNJq9Xm5uampafV1NZMTk4qcgQrvg85py6DX0Z6ZvfMYPCZbVD+iiEEosjr9RPtbS0lxQ+u5WbHRAUeP7LuhN3y+Oj9OVdcr2QejY1Y3lDp1Vrj1VDqpG0MKsk9svnz/1mZ53wpdmes14qyPKeeusCSm3vSz3zaWHV4WBs80Bve1apKiFwbHbb6Vq5DsO/S0wnrWht9Kh7u9/X6v/cLVupG3Qa03rqheN1wRtG9qJyseINhFEIAEVW6n1ndOfPlzwahH9mD7W1tH85/39fbe/ZhfaIoEkKUo6GNRmNISMidO3csFktubm5oaGh5ebnValXOZH/ScqGffuRzf9GXAQAsFgsAANFwCqa3R33jeroq9KT9sW8OHfjcw3VlUtzWhuqgymLX6hKXtmqfO5dsHPf8a/kNxzCXBWV5Dtr6wI7Kk9fSl6Wd/rCp6sCIJnCgO7y1NjgxckNs2IZTMVud7T64d8uxRx1cWLDzhP2v6mt3jI95aLs9Rvtjp3RZt64F3so7azCO0VdEQ6XmeJ8/7xBSDi5Pu3hxNk8DABRsSJLU1NS0e/dulUqVnZ3t5+eXmpo6OjoqiiKEUKDxdE+n2feZk2UIIcuyCoQwpnPOPM8bDVPqtsbrORejVC4ert+6u67IvHio5IFnZYlXc3VAbtoOR9s/pidvCvf8SNvgP6oO6Ko9fjbmzbTT8xor9470+g90hjVVBMaFrHW3/yTY86uYkLUtdWF9PeG3b2w9cugfu9WHJ8Y8Nd2eQ5rY8eFL55KP37970Wgco05IJOKXEPp5+ez/H9b32cJFdkePzR7MOI5TNGye51NTU5csWbJx40ZbW9vExESNRgMAgBByHAdpjN7T6edtzk/wdEFOshOCeiEEQbBaWbOJsZqsHGM1GUYqyq4HBe45fnSxp/uyxLjNtRXBOZkHNq3+3y7289KS12kaPYfa3fvbHWND/vXqxb+11dqOdPsPdIQ1lvqHe39ls+kPIZ7L7l936e9M7OsJu5698ZDtbwb7TkyMeg9o/AZ6YjSd59xOrCp5cNlo0tHAesAjasvN5fRcSyGz2Xzzxo3TyafWrlxlMplm3oMgCDzPY4xbW1v37dv3xhtvvP/++2vWrAkMDMzPz+/t7bVarSaTSdH3nsLQzE3makGclSCEFEW8qASj0/hWJDKMrrOz+HyKp7vrhgD/TWmpDvHROz/95B9s98wrvuvWUe0+2O490OES5vsv1y8t7W09MdQZ0N8WVl/k5ef08Z7N/5J+amt3c+RgT1x3R8DVy6uPH/mnkUHXiVHfscHw/q7Y6jLVqmV/Ki3KNpnGMRatrHW2Bj4n+/x5hBAhxGq1AgAuZWSazebq6upPPvpbe1tbbU3N2OioJEmKrjI+Ph4WFvbmm2++8sorr7322nvvvbdu3brAwMDKykqz2QyAHMvzFIDmulIhSRI9aVpOSE6iKAIgAhEBiGUfn8BwBgFM8MIQy/ZrNGU52XExkU67d3x99ND6lMTjRTecuhtCe5oCvE++lpu5VtvhP6gO17aEl9y093eZH+w1v67UYVgTou0KbGvyyEj90sP11cE+l8mxQON4YndLdEz4lg/f/T81lbcs1kmIeJazvojb0v/sQ0V7W9u8t99etXxFb0+PJElms3n9mrVfffFFdXW1UjdFVcvPz1++fPmrr776+uuvr1692tfXNz8/f3x8XJFRihb3s7fleagAPcGdhkTQUFdIg4k4LDFEYgnhELJCyADO0q1WX0w5b2e7Jdh946mIXUW3vNzs3su7vL+3LWpMc0bbFpeTZhMTsuju9W+HNJ7DfW6abvfmBuezyZ9EhP25v9dlaizEoj9bfNd1zdf/vHrZn9WtpTxvEgCDiSg73Z+HbvjvqsNzKoWMRuNsBUDR72f6gOM4nU6nUqkWLlw4b9683bt3Z2dnd3V1GQwGZegFACiO75mfvMgFeXUKhyTmEbFySB7ABPKCwHMiQRLgpOGBidryhzEhjjabF7g7rDpsMz/z3GF1Q/JQT3q/+nxKwo6Y0KVNtfbjoz6jQy6jw76NdScSYj+Ij3lnbMh7SOs7OZIcGfiV3cEFW7/5oKujXBStArAiDOTJv7nc/c8jhH6wv81mc11dnbOzs42NjZ+fX2VlJcMwWE6K4kaXnsrpB2/1Ilwgr7xgsGTCklmOB2flqHm62lCEksDThU00Yp4GiCAiWpqq70WHOtpsW5wYc+xGdlB+XtiDW2FuDl97uSysq3bo07iNjnoY9GGVZUfCgt5IObNAN+w70OvbVON9fP+/pyQd3v3tor7uOoQ4jjeLiJcn0udyN/8iIQQA6O3tra+v7+/vZxgGyEmRVIrwobGacprLr+4/0TZEJI5Q5Y2Rg8EBIYiumxWpt4yGPwp0ZxfAS4CDEAiAM42P9ag7Kq7nnomLdo8Odw7xO2Kz/ePggLVtLaqBgQhtn79W6/+wyNbb/fc5Wct7O120nT6RwYtjQ9fVlZ/Zsu7DscEOgnmLVQ8g9xJC/4kX9ZNdyjDMxMQEx3HK7CGaNQWuzITQHRpmffmTVew5fZASzTQdASuvO5bXRgIBQREpe1rQ7pKw0WREGCIiGC0TU4ZBhp2AomV4QJORevbQvi3OjhtuXvftVJ/SahO02siyksNe7r8rvr+9tcGutPDA3m2/batJaKq6uGHl/CmdhhCB5UwihdCLF6n9nPLBrGop80J00YQoMgxjNBp5nldUOISQ4myYPY8066cvZHFm0Qpdqv6IaGAeQVAUeAsQzSKSCTOCxBvZSUC3sWCAyFjMJiAA1sKqW5qjw923bflo7573IyM3VpR7X8/ZetLht9XlB/q6vXIvbwjy/mSoKzM/L3z3t59NjPcCYBEhI0BGXiA/l7v9F6nIKd42i5yQvBxFMYSUF6UYQsqUyFx+dT++bbMhpESFP4rwxQggyNLNMiQGQLpnGIdZM28QMaczjBhMUxCKEpEQIDzDD/apSwqzgoMObdr4rofb8viYDfv3/K6y3G189NTF85vzbzhp1OlpKS7HDq7SjXayzBTGPC9YEX7xtqX/8a/m5ZW/jB6YCU+dXXhc9cfh5vIiEiVqneaKP1qZaJLDHaAo8mbz1Nhof2V5oafrsY3rFnm670q94B4cvHVw6Mbg0M3IqP3BwftMxm6CGZ4uLhFexIXfj/v2ZellD0iSHCJk5ThOEfiywox5jjPqp/RTIw/uXfX3O2zvsLr4YXJ9Y6an95bc3CiOG5YkgbVYRF58CaGXTPSi9wBd2k7306OxQo8tTEIQALzVaJjsa2srDA8/+tGC33j77Fj6+WuZmeEmYx/BAmdhoIDmfEDIL9IWetGZ+udovwIkhBDdsI8QBLHAAbo/K2ZEOGk0dja23AgOO7pt55LS8hyG1RECWSsHePQiboL1c7ygl898fntAkTzKDpszEMIIAx4Anm57LAh6XhiZMnQMDteXlucyzAjGLIaQtfICB19C6Pl9tS9r9tP3wGNFTpIIlndJphnENISVx1jgeIu8FwSVVHR1/lzfRE6SpJeK3E/Phy+fOKd64CWE5tTrfNmYn74HXkLop+/zl0+cUz3wEkJz6nW+bMxP3wP/AbpvFVmIFdxoAAAAAElFTkSuQmCC;" vertex="1" parent="1">
          <mxGeometry x="750" y="50" width="118.58" height="75.5" as="geometry" />
        </mxCell>
        <mxCell id="ag9oP0E_3bfdzs0P4WXb-52" value="$$\nabla^2 f(x)\succ 0$$" style="text;html=1;align=center;verticalAlign=middle;whiteSpace=wrap;rounded=0;fontSize=8;" vertex="1" parent="1">
          <mxGeometry x="665.37" y="123" width="70" height="10" as="geometry" />
        </mxCell>
        <mxCell id="ag9oP0E_3bfdzs0P4WXb-54" value="$$\nabla^2 f(x)\prec 0$$" style="text;html=1;align=center;verticalAlign=middle;whiteSpace=wrap;rounded=0;fontSize=8;" vertex="1" parent="1">
          <mxGeometry x="774.29" y="123" width="70" height="10" as="geometry" />
        </mxCell>
        <mxCell id="ag9oP0E_3bfdzs0P4WXb-55" value="二阶条件" style="text;html=1;align=center;verticalAlign=middle;whiteSpace=wrap;rounded=0;" vertex="1" parent="1">
          <mxGeometry x="710" y="140" width="90" height="30" as="geometry" />
        </mxCell>
        <mxCell id="ag9oP0E_3bfdzs0P4WXb-56" value="梯度单调" style="text;html=1;align=center;verticalAlign=middle;whiteSpace=wrap;rounded=0;" vertex="1" parent="1">
          <mxGeometry x="520" y="140" width="90" height="30" as="geometry" />
        </mxCell>
        <mxCell id="ag9oP0E_3bfdzs0P4WXb-57" value="" style="curved=1;endArrow=none;html=1;rounded=0;startFill=0;" edge="1" parent="1">
          <mxGeometry width="50" height="50" relative="1" as="geometry">
            <mxPoint x="100" y="240" as="sourcePoint" />
            <mxPoint x="215" y="210" as="targetPoint" />
            <Array as="points">
              <mxPoint x="140" y="210" />
              <mxPoint x="185" y="230" />
            </Array>
          </mxGeometry>
        </mxCell>
        <mxCell id="ag9oP0E_3bfdzs0P4WXb-58" value="" style="endArrow=classic;html=1;rounded=0;" edge="1" parent="1">
          <mxGeometry width="50" height="50" relative="1" as="geometry">
            <mxPoint x="85" y="280" as="sourcePoint" />
            <mxPoint x="85" y="180" as="targetPoint" />
          </mxGeometry>
        </mxCell>
        <mxCell id="ag9oP0E_3bfdzs0P4WXb-59" value="" style="endArrow=classic;html=1;rounded=0;" edge="1" parent="1">
          <mxGeometry width="50" height="50" relative="1" as="geometry">
            <mxPoint x="75" y="270" as="sourcePoint" />
            <mxPoint x="255" y="270" as="targetPoint" />
          </mxGeometry>
        </mxCell>
        <mxCell id="ag9oP0E_3bfdzs0P4WXb-65" value="$$x$$" style="text;html=1;align=center;verticalAlign=middle;whiteSpace=wrap;rounded=0;fontSize=8;" vertex="1" parent="1">
          <mxGeometry x="150" y="270" width="20" height="10" as="geometry" />
        </mxCell>
        <mxCell id="ag9oP0E_3bfdzs0P4WXb-69" value="Lipschitz" style="text;html=1;align=center;verticalAlign=middle;whiteSpace=wrap;rounded=0;" vertex="1" parent="1">
          <mxGeometry x="115" y="290" width="90" height="30" as="geometry" />
        </mxCell>
        <mxCell id="ag9oP0E_3bfdzs0P4WXb-70" value="" style="endArrow=none;html=1;rounded=0;dashed=1;" edge="1" parent="1">
          <mxGeometry width="50" height="50" relative="1" as="geometry">
            <mxPoint x="159.78" y="220" as="sourcePoint" />
            <mxPoint x="160" y="270" as="targetPoint" />
          </mxGeometry>
        </mxCell>
        <mxCell id="ag9oP0E_3bfdzs0P4WXb-71" value="" style="endArrow=none;html=1;rounded=0;dashed=1;" edge="1" parent="1">
          <mxGeometry width="50" height="50" relative="1" as="geometry">
            <mxPoint x="220" y="180" as="sourcePoint" />
            <mxPoint x="100" y="260" as="targetPoint" />
          </mxGeometry>
        </mxCell>
        <mxCell id="ag9oP0E_3bfdzs0P4WXb-72" value="" style="endArrow=none;html=1;rounded=0;dashed=1;" edge="1" parent="1">
          <mxGeometry width="50" height="50" relative="1" as="geometry">
            <mxPoint x="220" y="260" as="sourcePoint" />
            <mxPoint x="100" y="180" as="targetPoint" />
          </mxGeometry>
        </mxCell>
        <mxCell id="ag9oP0E_3bfdzs0P4WXb-73" value="$$f(x)$$" style="text;html=1;align=center;verticalAlign=middle;whiteSpace=wrap;rounded=0;fontSize=8;" vertex="1" parent="1">
          <mxGeometry x="214" y="210" width="20" height="10" as="geometry" />
        </mxCell>
        <mxCell id="ag9oP0E_3bfdzs0P4WXb-74" value="$$f(y)=f(x)+L(y-x)$$" style="text;html=1;align=center;verticalAlign=middle;whiteSpace=wrap;rounded=0;fontSize=8;" vertex="1" parent="1">
          <mxGeometry x="200" y="190" width="110" height="10" as="geometry" />
        </mxCell>
        <mxCell id="ag9oP0E_3bfdzs0P4WXb-75" value="$$f(y)=f(x)-L(y-x)$$" style="text;html=1;align=center;verticalAlign=middle;whiteSpace=wrap;rounded=0;fontSize=8;" vertex="1" parent="1">
          <mxGeometry x="190" y="230" width="110" height="10" as="geometry" />
        </mxCell>
        <mxCell id="ag9oP0E_3bfdzs0P4WXb-76" value="" style="curved=1;endArrow=none;html=1;rounded=0;startFill=0;" edge="1" parent="1">
          <mxGeometry width="50" height="50" relative="1" as="geometry">
            <mxPoint x="350" y="180" as="sourcePoint" />
            <mxPoint x="463" y="210" as="targetPoint" />
            <Array as="points">
              <mxPoint x="388" y="210" />
              <mxPoint x="433" y="230" />
            </Array>
          </mxGeometry>
        </mxCell>
        <mxCell id="ag9oP0E_3bfdzs0P4WXb-77" value="" style="endArrow=classic;html=1;rounded=0;" edge="1" parent="1">
          <mxGeometry width="50" height="50" relative="1" as="geometry">
            <mxPoint x="333" y="280" as="sourcePoint" />
            <mxPoint x="333" y="180" as="targetPoint" />
          </mxGeometry>
        </mxCell>
        <mxCell id="ag9oP0E_3bfdzs0P4WXb-78" value="" style="endArrow=classic;html=1;rounded=0;" edge="1" parent="1">
          <mxGeometry width="50" height="50" relative="1" as="geometry">
            <mxPoint x="323" y="270" as="sourcePoint" />
            <mxPoint x="503" y="270" as="targetPoint" />
          </mxGeometry>
        </mxCell>
        <mxCell id="ag9oP0E_3bfdzs0P4WXb-79" value="$$x$$" style="text;html=1;align=center;verticalAlign=middle;whiteSpace=wrap;rounded=0;fontSize=8;" vertex="1" parent="1">
          <mxGeometry x="400" y="270" width="20" height="10" as="geometry" />
        </mxCell>
        <mxCell id="ag9oP0E_3bfdzs0P4WXb-80" value="Smooth + 凸函数" style="text;html=1;align=center;verticalAlign=middle;whiteSpace=wrap;rounded=0;" vertex="1" parent="1">
          <mxGeometry x="350" y="290" width="117" height="30" as="geometry" />
        </mxCell>
        <mxCell id="ag9oP0E_3bfdzs0P4WXb-81" value="" style="endArrow=none;html=1;rounded=0;dashed=1;" edge="1" parent="1">
          <mxGeometry width="50" height="50" relative="1" as="geometry">
            <mxPoint x="354.83" y="194" as="sourcePoint" />
            <mxPoint x="460" y="244" as="targetPoint" />
          </mxGeometry>
        </mxCell>
        <mxCell id="ag9oP0E_3bfdzs0P4WXb-84" value="$$f(x)$$" style="text;html=1;align=center;verticalAlign=middle;whiteSpace=wrap;rounded=0;fontSize=8;" vertex="1" parent="1">
          <mxGeometry x="462" y="210" width="20" height="10" as="geometry" />
        </mxCell>
        <mxCell id="ag9oP0E_3bfdzs0P4WXb-87" value="" style="curved=1;endArrow=none;html=1;rounded=0;startFill=0;dashed=1;" edge="1" parent="1">
          <mxGeometry width="50" height="50" relative="1" as="geometry">
            <mxPoint x="377" y="182" as="sourcePoint" />
            <mxPoint x="467" y="182" as="targetPoint" />
            <Array as="points">
              <mxPoint x="397" y="222" />
              <mxPoint x="447" y="222" />
            </Array>
          </mxGeometry>
        </mxCell>
        <mxCell id="ag9oP0E_3bfdzs0P4WXb-89" value="" style="endArrow=none;html=1;rounded=0;dashed=1;" edge="1" parent="1">
          <mxGeometry width="50" height="50" relative="1" as="geometry">
            <mxPoint x="410" y="220" as="sourcePoint" />
            <mxPoint x="410" y="270" as="targetPoint" />
          </mxGeometry>
        </mxCell>
        <mxCell id="ag9oP0E_3bfdzs0P4WXb-90" value="$$f(x)+\nabla f(x)^\top (y-x)$$" style="text;html=1;align=center;verticalAlign=middle;whiteSpace=wrap;rounded=0;fontSize=8;" vertex="1" parent="1">
          <mxGeometry x="465" y="240" width="90" height="20" as="geometry" />
        </mxCell>
        <mxCell id="ag9oP0E_3bfdzs0P4WXb-92" value="$$f(x)+\nabla f(x)^\top (y-x)+\frac{L}{2}||y-x||^2$$" style="text;html=1;align=center;verticalAlign=middle;whiteSpace=wrap;rounded=0;fontSize=8;" vertex="1" parent="1">
          <mxGeometry x="500" y="170" width="90" height="20" as="geometry" />
        </mxCell>
        <mxCell id="ag9oP0E_3bfdzs0P4WXb-93" value="$$x$$" style="text;html=1;align=center;verticalAlign=middle;whiteSpace=wrap;rounded=0;fontSize=8;" vertex="1" parent="1">
          <mxGeometry x="350" y="120" width="20" height="10" as="geometry" />
        </mxCell>
        <mxCell id="ag9oP0E_3bfdzs0P4WXb-94" value="" style="endArrow=none;html=1;rounded=0;dashed=1;" edge="1" parent="1">
          <mxGeometry width="50" height="50" relative="1" as="geometry">
            <mxPoint x="360.18" y="102" as="sourcePoint" />
            <mxPoint x="360" y="120" as="targetPoint" />
          </mxGeometry>
        </mxCell>
        <mxCell id="ag9oP0E_3bfdzs0P4WXb-95" value="" style="curved=1;endArrow=none;html=1;rounded=0;startFill=0;" edge="1" parent="1">
          <mxGeometry width="50" height="50" relative="1" as="geometry">
            <mxPoint x="680.5" y="205" as="sourcePoint" />
            <mxPoint x="740" y="190" as="targetPoint" />
            <Array as="points">
              <mxPoint x="710" y="290" />
            </Array>
          </mxGeometry>
        </mxCell>
        <mxCell id="ag9oP0E_3bfdzs0P4WXb-96" value="" style="endArrow=classic;html=1;rounded=0;" edge="1" parent="1">
          <mxGeometry width="50" height="50" relative="1" as="geometry">
            <mxPoint x="640" y="280" as="sourcePoint" />
            <mxPoint x="640" y="180" as="targetPoint" />
          </mxGeometry>
        </mxCell>
        <mxCell id="ag9oP0E_3bfdzs0P4WXb-97" value="" style="endArrow=classic;html=1;rounded=0;" edge="1" parent="1">
          <mxGeometry width="50" height="50" relative="1" as="geometry">
            <mxPoint x="630" y="270" as="sourcePoint" />
            <mxPoint x="810" y="270" as="targetPoint" />
          </mxGeometry>
        </mxCell>
        <mxCell id="ag9oP0E_3bfdzs0P4WXb-98" value="$$x$$" style="text;html=1;align=center;verticalAlign=middle;whiteSpace=wrap;rounded=0;fontSize=8;" vertex="1" parent="1">
          <mxGeometry x="690" y="270" width="20" height="10" as="geometry" />
        </mxCell>
        <mxCell id="ag9oP0E_3bfdzs0P4WXb-99" value="强凸函数的定义" style="text;html=1;align=center;verticalAlign=middle;whiteSpace=wrap;rounded=0;" vertex="1" parent="1">
          <mxGeometry x="657" y="290" width="117" height="30" as="geometry" />
        </mxCell>
        <mxCell id="ag9oP0E_3bfdzs0P4WXb-101" value="$$f(x)$$" style="text;html=1;align=center;verticalAlign=middle;whiteSpace=wrap;rounded=0;fontSize=8;" vertex="1" parent="1">
          <mxGeometry x="740.75" y="180" width="20" height="10" as="geometry" />
        </mxCell>
        <mxCell id="ag9oP0E_3bfdzs0P4WXb-102" value="" style="curved=1;endArrow=none;html=1;rounded=0;startFill=0;dashed=1;" edge="1" parent="1">
          <mxGeometry width="50" height="50" relative="1" as="geometry">
            <mxPoint x="674.29" y="219" as="sourcePoint" />
            <mxPoint x="774.29" y="219" as="targetPoint" />
            <Array as="points">
              <mxPoint x="699.66" y="249" />
              <mxPoint x="749.66" y="249" />
            </Array>
          </mxGeometry>
        </mxCell>
        <mxCell id="ag9oP0E_3bfdzs0P4WXb-103" value="" style="endArrow=none;html=1;rounded=0;dashed=1;" edge="1" parent="1">
          <mxGeometry width="50" height="50" relative="1" as="geometry">
            <mxPoint x="700" y="240" as="sourcePoint" />
            <mxPoint x="700" y="270" as="targetPoint" />
          </mxGeometry>
        </mxCell>
        <mxCell id="ag9oP0E_3bfdzs0P4WXb-105" value="$$f(x)+\nabla f(x)^\top (y-x)+\frac{\mu}{2}||y-x||^2$$" style="text;html=1;align=center;verticalAlign=middle;whiteSpace=wrap;rounded=0;fontSize=8;" vertex="1" parent="1">
          <mxGeometry x="750" y="250" width="90" height="20" as="geometry" />
        </mxCell>
      </root>
    </mxGraphModel>
  </diagram>
</mxfile>
